<?xml version="1.0" standalone="no"?>
<!DOCTYPE svg PUBLIC "-//W3C//DTD SVG 1.1//EN" "http://www.w3.org/Graphics/SVG/1.1/DTD/svg11.dtd" >
<svg xmlns="http://www.w3.org/2000/svg" xmlns:xlink="http://www.w3.org/1999/xlink" version="1.1">
<metadata>
Created by FontForge 20150102 at Tue Feb  3 16:03:22 2015
 By uniteet7
Copyright (c) 2011 by Emily Lime Design. All rights reserved.
</metadata>
<defs>
<font id="CarolynaProBlack" horiz-adv-x="0" >
  <font-face 
    font-family="CarolynaProBlack"
    font-weight="700"
    font-stretch="normal"
    units-per-em="1000"
    panose-1="3 5 5 2 4 0 0 0 0 4"
    ascent="750"
    descent="-250"
    x-height="339"
    cap-height="790"
    bbox="-3486 -873 3212.2 1387.32"
    underline-thickness="50"
    underline-position="-50"
    unicode-range="U+0021-25CA"
  />
<missing-glyph horiz-adv-x="320" 
 />
    <glyph glyph-name="s_s" unicode="ss" horiz-adv-x="708" 
d="M120 108q-5 -3 -17 -8.5t-22.5 -10.5t-24 -12.5t-22 -14.5t-15 -14t-5.5 -14.5t10 -14.5q17 -9 36.5 -8.5t33.5 6.5q15 6 22 17t7.5 19t-1.5 27.5t-2 27.5zM160 517q-10 -6 -11 -21.5t3.5 -36.5t4.5 -25q2 5 9.5 18.5t11.5 25.5t3 23q-4 24 -21 16zM444 108
q-5 -3 -17 -8.5t-22.5 -10.5t-24 -12.5t-22 -14.5t-15 -14t-5.5 -14.5t10 -14.5q17 -9 36.5 -8.5t33.5 6.5q15 6 22 17t7.5 19t-1.5 27.5t-2 27.5zM484 517q-10 -6 -11 -21.5t3.5 -36.5t4.5 -25q2 5 9.5 18.5t11.5 25.5t3 23q-4 24 -21 16zM342 7q-13 10 -16.5 20.5t2.5 20
t16 18.5t25 17.5t27.5 14.5t26 12.5t18.5 9.5q-5 57 -31 208q-9 -11 -38 -45.5t-48.5 -56t-49.5 -47.5t-58 -39q13 -111 -48 -136q-16 -7 -76.5 -7t-73.5 10t-16.5 20.5t2.5 20t16 18.5t25 17.5t27.5 14.5t26 12.5t18.5 9.5q-5 57 -31 208q-34 -51 -86 -111v21q69 81 82 107
l-6 44q-9 76 41 122q34 31 60 20q14 -6 17 -24q2 -3 0.5 -11.5t-1.5 -12t-3.5 -12t-4.5 -11.5t-5.5 -11t-5.5 -10.5t-5.5 -9.5t-5.5 -9q1 -23 25.5 -140t25.5 -128q35 16 68 47.5t73.5 83t50.5 62.5l-6 44q-9 76 41 122q34 31 60 20q14 -6 17 -24q2 -3 0.5 -11.5t-1.5 -12
t-3.5 -12t-4.5 -11.5t-5.5 -11t-5.5 -10.5t-5.5 -9.5t-5.5 -9q1 -23 27.5 -145t27.5 -133q11 6 51.5 22.5t69 34t45.5 39.5v-21q-14 -17 -47.5 -35t-72 -33.5t-44.5 -18.5q11 -100 -52 -126q-16 -7 -76.5 -7t-73.5 10z" />
    <glyph glyph-name="swsh0" unicode="&#x2a;&#x31;" horiz-adv-x="707" 
d="M111 179l13 -1q-1 -8 -4 -24t-4 -24q38 0 168.5 -22.5t175.5 -22.5t79 9t64 32.5t50 45.5t54 66v-21q-55 -75 -108.5 -110t-135.5 -35q-49 0 -181.5 23t-167.5 23q-12 -45 -42 -65q-31 -21 -66 -9l-6 8q10 75 102 78q6 30 9 49zM14 54q32 -6 52 9q21 16 34 55
q-76 -6 -86 -64z" />
    <glyph glyph-name="swsh1" unicode="&#x2a;&#x32;" horiz-adv-x="707" 
d="M596 275l-13 2q6 28 8 47q-36 0 -167.5 23t-176.5 23t-79 -9t-64 -32.5t-50 -45.5t-54 -66v21q37 49 67 77.5t75 47.5t102 19q49 0 181.5 -22.5t168.5 -22.5q10 41 41 65q30 20 67 8l5 -8q-10 -75 -102 -78q-6 -28 -9 -49zM693 400q-32 8 -51 -9q-23 -17 -35 -54
q76 6 86 63z" />
    <glyph glyph-name="swsh2" unicode="&#x2a;&#x33;" horiz-adv-x="952" 
d="M687 226q-39 17 -117 68q-43 29 -67.5 44t-67 36.5t-73 29t-68 8t-70.5 -13.5q7 -39 -21 -51q-11 -6 -24 -5t-17 10q-13 21 29 45l18 9q-14 37 -73 21q-45 -11 -84 -40.5t-38 -59.5h-13q-2 34 41 68.5t92 44.5q35 7 58 -0.5t30 -28.5q33 14 71.5 14t70 -8t74.5 -29.5
t69 -37t70 -44.5q74 -49 116 -68q41 -20 65 -30t55 -18.5t51.5 -5.5t43.5 15.5t44 38.5v-21q-35 -39 -84 -43t-79.5 7t-90.5 40q-7 3 -11 5zM212 392q-1 0 -13 -6q-31 -19 -25 -28q2 -9 25 2q17 8 13 32z" />
    <glyph glyph-name="swsh3" unicode="&#x2a;&#x34;" horiz-adv-x="952" 
d="M264 229q40 -19 118 -69q46 -30 68 -43.5t66 -36t73.5 -29.5t67.5 -7.5t71 13.5q-7 37 20 50q31 15 42 -5q13 -21 -30 -44q-11 -8 -17 -9q13 -36 72 -22q45 10 84.5 40.5t38.5 59.5h13q2 -34 -41 -68.5t-92 -44.5q-73 -14 -88 29q-33 -14 -71.5 -14t-70.5 8t-74.5 29.5
t-69 38t-69.5 44.5q-79 50 -116 68q-51 25 -80.5 36.5t-64.5 16.5t-61.5 -8.5t-52.5 -44.5v21q26 29 57 40t66.5 4t62 -17.5t64.5 -28.5q9 -5 14 -7zM740 62q1 0 3 1t5 3t5 3q32 19 25 28q-6 8 -25 -3q-17 -7 -13 -32z" />
    <glyph glyph-name="swsh4" unicode="&#x2a;&#x35;" horiz-adv-x="619" 
d="M14 231h-13q-2 34 41 68.5t92 44.5q35 7 58 -0.5t30 -28.5q52 22 81 16.5t56.5 -30t46.5 -51.5t50.5 -47.5t69.5 -18.5q53 3 93 54v-21q-40 -44 -93 -46q-34 -1 -63.5 13.5t-48 36.5t-39.5 45t-39.5 38t-48 17t-63.5 -19q3 -44 -21 -54q-11 -5 -24 -3t-17 11
q-7 12 8 27.5t40 25.5q-7 20 -32.5 25t-41.5 -2q-45 -11 -84 -41t-38 -60zM213 296q-11 -4 -21 -11t-15 -13.5t-3 -9.5q1 -4 8.5 -5t16.5 4q18 9 14 35z" />
    <glyph glyph-name="swsh5" unicode="&#x2a;&#x36;" horiz-adv-x="619" 
d="M605 223h13q2 -34 -41 -68.5t-92 -44.5q-74 -14 -87 29q-38 -20 -69.5 -17.5t-51.5 18t-41 38t-38.5 44t-45 36t-59.5 12.5q-51 -2 -93 -53v21q39 43 93 45q34 2 63.5 -13t48 -36.5t39.5 -44.5t39.5 -38t48 -17t63.5 19q-4 42 20 53q11 6 24 3.5t19 -11.5q6 -12 -9 -27.5
t-40 -24.5q7 -20 32.5 -25t40.5 1q46 11 85 41.5t38 59.5zM406 158q17 7 30 18.5t10 16.5q-9 9 -26 1q-18 -11 -14 -36z" />
    <glyph glyph-name="swsh6" unicode="&#x2a;&#x37;" horiz-adv-x="627" 
d="M325 -124q-8 1 -19 7.5t-14 16.5q-6 22 21.5 38.5t52.5 21.5q31 7 86 -6q69 61 131.5 146.5t78.5 157.5q26 119 -96 154q-151 44 -313 -13t-253 -182v21q95 122 256.5 176.5t313.5 10.5q69 -21 103.5 -66.5t21.5 -104.5q-42 -159 -221 -304q36 -11 52 -20l-6 -12
q-29 14 -58 20q-92 -72 -137 -62zM371 -53q-21 -4 -45.5 -17.5t-19.5 -27.5q0 -9 23 -14q36 -5 109 56q-52 7 -67 3z" />
    <glyph glyph-name="swsh7" unicode="&#x2a;&#x38;" horiz-adv-x="56" 
d="M0 217v21q-30 2 -42 37q-10 30 14 39q23 9 39 -13q15 -20 6 -55q15 -3 33 12l3 -9q-15 -18 -39 -14q-1 -1 -5.5 -7t-8.5 -11zM5 249q10 39 -13 51q-14 8 -21 -3q-5 -7 0 -19q8 -20 34 -29z" />
    <glyph glyph-name="swsh8" unicode="&#x2a;&#x39;" horiz-adv-x="707" 
d="M124 277l-13 -2q-3 21 -9 49q-92 3 -102 78l6 8q36 12 66 -8q30 -22 42 -65q35 0 167.5 22.5t181.5 22.5q57 0 102 -19t75 -47.5t67 -77.5v-21q-34 44 -54 66t-50 45.5t-64 32.5t-79 9t-176 -23t-168 -23q1 -8 4 -24t4 -23zM14 400q10 -57 86 -63q-13 38 -34 54
q-20 17 -52 9z" />
    <glyph glyph-name="swsh9" unicode="&#x2a;&#x30;" horiz-adv-x="949" 
d="M764 -208l-2 14q29 -2 61.5 12.5t59 40t39 66t0.5 84.5q-25 90 -136 132q-24 -84 -131 -152q-105 -68 -204 -68q-104 -1 -125 82l-4 33q0 48 50 92t132 55q140 18 259 -22q22 79 -5.5 157.5t-119.5 119.5q-112 47 -233 26t-228 -87.5t-177 -159.5v21q113 143 300 212
t345 0q50 -22 84.5 -58.5t48.5 -76.5t18.5 -83.5t-6.5 -78.5q54 -21 93.5 -58t51.5 -81q22 -85 -33 -151t-138 -71zM760 149q-111 41 -255 21q-74 -10 -122.5 -51t-46.5 -82q2 -87 87 -99q82 -12 187 46q103 58 140 138q6 14 10 27z" />
    <glyph glyph-name="swshA" unicode="&#x3d;A" horiz-adv-x="1146" 
d="M542 143q304 0 593 129q18 8 58.5 28t68.5 31.5t63.5 22t65 5.5t51.5 -25q21 -16 12 -30q-4 -7 -14 -10t-18 1q-9 4 -11 32h-13q-1 -11 3.5 -25t15.5 -19q13 -5 27.5 -1t21.5 15q15 22 -15 47q-24 22 -55 28t-68.5 -4.5t-65.5 -21.5t-71.5 -33t-60.5 -29
q-99 -43 -206.5 -73.5t-231 -44.5t-240 -6.5t-233.5 47.5t-211 111l-8 -12q219 -163 542 -163z" />
    <glyph glyph-name="swshB" unicode="&#x3d;B" horiz-adv-x="2254" 
d="M2155 -86l-4 -12q-48 17 -101 52t-84 62.5t-86 80.5q-49 47 -79 73t-76 59.5t-91 51t-93 21.5q-62 6 -124 -5t-131 -41.5t-112 -53.5t-121 -69q-177 -102 -254 -131q-106 -40 -217 -48t-219.5 17.5t-204.5 100t-158 191.5l11 6q61 -114 155 -187t200 -98t215.5 -17
t213.5 47q93 36 251 129q64 37 97 56t93 48t102.5 42t97.5 22t106 4q50 -5 96 -22.5t93 -52.5t77 -60.5t80 -73.5q57 -53 86.5 -79.5t81.5 -61.5t99 -51z" />
    <glyph glyph-name="swshC" unicode="&#x3d;C" horiz-adv-x="823" 
d="M142 162l-6 -10q-83 50 -114 134.5t-5 191.5q37 158 160.5 282.5t250.5 132.5q31 1 73 -10q29 42 65 76q111 105 253 168.5t282 70.5q70 4 148 -9t153.5 -40.5t135 -78.5t81.5 -116q70 -205 -145 -328l-10 9q211 121 145 314q-21 64 -79.5 113.5t-132.5 76.5t-150.5 39
t-144.5 9q-138 -7 -278 -69t-251 -166q-33 -33 -60 -74q61 -20 113 -70q67 -71 60 -144q-1 -34 -19 -65t-46 -50q-53 -33 -107 -14q-79 29 -95 96q-20 99 76 242q-34 10 -67 9q-123 -9 -242.5 -130t-157.5 -274q-9 -37 -11 -73.5t5.5 -82t38 -88t81.5 -72.5zM506 869
q-95 -144 -76 -235q15 -64 87 -88q50 -18 98 13q56 38 61 105q6 70 -60 136q-49 49 -110 69z" />
    <glyph glyph-name="swshD" unicode="&#x3d;D" horiz-adv-x="1566" 
d="M1582 -88l-4 -10q-68 5 -133 33.5t-113.5 63.5t-105.5 96t-92 104.5t-90 117.5q-20 27 -30 40q-5 6 -26 33t-27.5 35t-26 32.5t-27.5 34.5t-26.5 31.5t-29 33t-27.5 30t-30 31t-29 27.5t-31 28q-105 87 -231 116.5t-236 -6.5q-96 -31 -161.5 -109t-94.5 -193l-11 3
q28 118 96 198t168 112q112 38 241 7.5t236 -119.5q49 -41 103 -100.5t87.5 -101.5t90.5 -117q136 -177 199 -245q184 -197 358 -206h3z" />
    <glyph glyph-name="swshE" unicode="&#x3d;E" horiz-adv-x="1483" 
d="M437 2q-197 0 -327 131q-80 79 -102.5 187.5t21.5 202.5q37 84 113.5 127.5t178.5 38.5v-12q-98 5 -171.5 -36.5t-110.5 -122.5q-41 -92 -20 -195.5t98 -181.5q165 -165 432 -117q110 19 220 75.5t194 135.5q69 66 210 259q40 55 61.5 84t61 79t67 78.5t67 67.5
t74.5 61.5t77.5 45.5t87.5 34.5t92 13.5q67 5 136 -15t116 -57q81 -67 79 -120q-1 -47 -62 -89l-10 9q58 39 61 80q1 51 -76 109q-45 37 -111.5 56.5t-132.5 15.5q-53 -3 -104 -19.5t-92 -38t-88 -61.5t-78.5 -71t-76 -86t-69.5 -88.5t-70 -94.5q-133 -185 -211 -260
q-85 -81 -196.5 -138t-225.5 -77q-52 -11 -113 -11z" />
    <glyph glyph-name="swshF" unicode="&#x3d;F" horiz-adv-x="1922" 
d="M-6 542l9 6q63 -40 136.5 -68t145 -44.5t159 -22t160.5 -5t169 11t165 21t167.5 30.5t158 33.5t153.5 35.5q291 68 406 88q89 15 115 17q179 14 214 -61q12 -32 5 -65.5t-27 -61.5q-40 -56 -89 -51v13q46 -2 79 45q20 29 26 60t-4 54q-18 37 -79.5 49.5t-121.5 7
t-115 -18.5q-121 -20 -407 -87q-100 -23 -156 -36t-159 -33.5t-169.5 -30.5t-165.5 -21t-170.5 -11t-161 5.5t-160.5 23t-145.5 46.5t-137.5 70z" />
    <glyph glyph-name="swshG" unicode="&#x3d;G" horiz-adv-x="2238" 
d="M2778 542l14 -4q-31 -100 -252 -100q-48 0 -101.5 13.5t-118 35.5t-98.5 31q-62 15 -105 23.5t-99.5 16.5t-109.5 7t-104 -11q-59 -11 -121.5 -33.5t-106 -43t-110.5 -62.5t-95.5 -62t-102.5 -71l-83 -60q-164 -111 -344 -111t-415 124q-168 87 -417 156l1 14
q254 -70 421 -157q103 -54 191.5 -83.5t182 -38t185.5 17.5t182 88l83 58q85 60 131 90.5t122.5 75.5t148 71.5t145.5 40.5q52 10 106 11.5t110.5 -6.5t100 -16.5t105.5 -23.5q33 -8 97.5 -30.5t118 -35.5t100.5 -13q41 0 84 5.5t92.5 26.5t61.5 56z" />
    <glyph glyph-name="swshI" unicode="&#x3d;I" horiz-adv-x="2995" 
d="M2064 202q-38 0 -83 16.5t-97.5 51t-80.5 55t-78 59.5l-44 34q-59 43 -110 72t-114.5 52.5t-128 19t-123.5 -38.5q-21 -13 -65 -77q43 -59 31 -105q-11 -35 -49 -36q-38 -4 -45 21q-10 36 47 120q-7 11 -20 20q-41 27 -95.5 35.5t-101.5 4t-113 -24t-102.5 -34
t-97.5 -40.5l-13 -5q-86 -37 -148.5 -58.5t-140.5 -39.5t-151 -15t-143 26l4 13q69 -23 139.5 -26.5t146 14t138 39.5t150.5 59l14 4q60 26 98.5 41t104.5 35t114.5 24.5t104.5 -4t99 -36.5q11 -8 20 -20q43 60 67 76q62 35 128.5 40t131.5 -18.5t117.5 -53t112.5 -73.5
l45 -35q54 -42 86.5 -65.5t89.5 -59t104.5 -48t84.5 -1.5q38 11 63 51q-39 15 -59 39q-18 25 -14 56q7 48 34 56q25 8 47 -15q41 -46 19 -106q-1 -2 -9 -22q29 -10 70 -14q30 -3 60 -4t65 3t58 6.5t63.5 11t57 12t61.5 13.5q106 26 184 38q32 4 116 8.5t185 -3.5t112 -35
q7 -18 -27 -44l-5 13q24 14 20 27q-8 20 -96 26.5t-175.5 3.5t-127.5 -9q-69 -10 -182 -37q-40 -9 -61.5 -14t-59 -12.5t-64 -11t-60 -6.5t-64.5 -2.5t-62 3.5q-41 4 -74 15q-27 -47 -72 -60q-20 -5 -37 -5zM2133 411q-5 0 -7 -1q-20 -6 -25 -46q-4 -26 11 -46
q17 -23 55 -35q8 20 9 22q20 55 -16 93q-13 13 -27 13zM1132 435q-51 -79 -42 -105q0 -15 31 -12q31 0 37 26q10 35 -26 91z" />
    <glyph glyph-name="swshJ" unicode="&#x3d;J" horiz-adv-x="2387" 
d="M2613 498l-10 -8q-97 91 -625 76h-30q-335 12 -1590 -1q-246 -3 -358 -3v12q194 0 358 3q1254 13 1589 1h30q536 15 636 -80z" />
    <glyph glyph-name="swshL" unicode="&#x3d;L" 
d="M-274 571q-60 0 -119 9q-231 38 -318 210l12 6q84 -167 308 -202q174 -29 363 24.5t279 143.5l9 -9q-76 -76 -226.5 -129t-307.5 -53z" />
    <glyph glyph-name="swshM" unicode="&#x3d;M" horiz-adv-x="2438" 
d="M2627 335l-5 13q28 9 47 30q45 45 29 91q-18 50 -80 76q-82 27 -183 17t-165 -42q-71 -37 -204 -132q-65 -46 -101.5 -70t-95.5 -57t-118 -51.5t-125 -27.5q-57 -11 -162.5 -1t-183.5 45q-45 -48 -113 -75q-82 -34 -200 -34q-155 0 -329 53t-300 117q-40 21 -81.5 48
t-95.5 71t-98 103.5t-65 124.5l10 4q16 -52 49.5 -101.5t69.5 -85t80 -68.5t75 -51.5t61 -33.5q58 -30 129.5 -59t165 -56.5t182 -42.5t181 -11t162.5 33q61 23 106 70q-88 43 -125 120q-19 38 -21.5 90.5t17.5 102.5q21 48 69 64q66 18 106 -25q25 -26 37 -72t10.5 -90.5
t-12.5 -77.5q-20 -61 -61 -108q74 -33 171.5 -43t163.5 1q65 8 123 26t116.5 51t94.5 57t100 70q142 98 207 133q41 20 102 32.5t132.5 12t122.5 -20.5q66 -25 87 -83q9 -24 0.5 -53t-32.5 -53q-24 -21 -50 -31zM1246 603q-16 0 -35 -6q-41 -11 -61 -58q-18 -44 -15.5 -95
t19.5 -87q36 -74 124 -116q41 47 61 108q11 31 12.5 73t-9.5 86t-35 69q-26 26 -61 26z" />
    <glyph glyph-name="swshO" unicode="&#x3d;O" horiz-adv-x="1841" 
d="M2093 566l-6 12q-16 -41 -12 -67t12 -36t19 -14q27 -11 60 4t45 44q4 9 4 20t-5 26.5t-26 33.5t-56 33q-50 20 -111.5 21t-139 -17.5t-122.5 -33t-127 -43.5l-69 -24q-1001 -345 -1551 47l-7 -9q293 -211 721 -211q372 0 841 162q10 3 33.5 11.5t35.5 12.5q65 23 98 34
t98.5 29t108.5 23.5t95 3.5t91 -18q99 -43 77 -97q-11 -23 -39.5 -36.5t-50.5 -4.5q-19 8 -23.5 32.5t6.5 61.5z" />
    <glyph glyph-name="swshU" unicode="&#x3d;U" horiz-adv-x="1446" 
d="M1463 834l7 8q-20 5 -41 5.5t-44 -3.5t-43 -9t-45 -15.5t-42 -18t-42.5 -21.5t-38.5 -21t-37 -21l-30 -18q-253 -146 -552 -187.5t-545 34.5l-4 -9q164 -50 348 -50q193 0 390.5 52.5t367.5 151.5l30 16q23 14 40 24t44 24.5t46.5 23t48.5 19.5t48.5 13.5t47.5 5.5t46 -4
z" />
    <glyph glyph-name="swshV" unicode="&#x3d;V" horiz-adv-x="1757" 
d="M741 226q-425 0 -742 158l7 12q154 -77 331.5 -116.5t351 -40.5t320 15t295.5 48q170 38 312 85q37 13 64 24q22 9 33.5 13.5t35 13t35.5 11t35 7.5t34 3t33 -3q26 -5 52 -23.5t28 -38.5q4 -24 -33 -43l-5 13q26 12 26 28q-2 16 -26 31.5t-46 19.5q-12 3 -27 3t-26.5 -1
t-29.5 -5.5t-27.5 -7t-30 -10.5t-27.5 -10.5t-29 -11.5q-33 -15 -65 -24q-152 -52 -313 -86q-290 -64 -566 -64z" />
    <glyph glyph-name="swshX" unicode="&#x3d;X" horiz-adv-x="1880" 
d="M498 424q-254 0 -397 116q-41 34 -72.5 77.5t-22.5 77.5q9 39 78 51l2 -12q-62 -9 -68 -41q-8 -28 19.5 -69t70.5 -75q203 -163 642 -90q303 51 662 225q106 52 238.5 83t254.5 24t168 -65l-10 -8q-44 55 -163.5 61t-250 -25t-232.5 -80q-364 -175 -666 -226
q-149 -24 -253 -24z" />
    <glyph glyph-name="swshY" unicode="&#x3d;Y" horiz-adv-x="1653" 
d="M1670 821q37 -4 60 -32l-10 -7q-21 25 -51 28q-36 3 -91.5 -21t-105.5 -56.5t-124.5 -92t-116 -95.5t-112.5 -99q-113 -101 -145 -124q-235 -166 -540 -166q-189 0 -434 66q2 4 2 10q134 -37 251.5 -53t242.5 -11.5t245 45.5t228 118q31 22 144 123q70 63 112 99.5
t117 96.5t126 93t108 57.5t94 20.5z" />
    <glyph glyph-name="swshZ" unicode="&#x3d;Z" horiz-adv-x="1735" 
d="M901 437q-220 0 -413 68q-59 21 -94 47q-79 -62 -184 -42q-45 12 -81.5 40.5t-60.5 69t-38.5 75.5t-27.5 79l10 3q29 -99 74 -167t126 -90q96 -19 174 38q-56 46 -68 124q-18 164 51 208q34 21 67 5q22 -10 37.5 -34t18.5 -54q8 -70 -15 -135t-70 -108q-1 -1 -2.5 -3
t-2.5 -3q32 -23 89 -44q202 -71 434.5 -66.5t454.5 83.5q56 20 180 84q150 79 230 100q34 9 80.5 -6t56.5 -41q11 -34 -29 -49l-2 13q14 3 19.5 12.5t1.5 19.5q-8 21 -50 35t-73 7q-88 -24 -228 -100q-126 -65 -182 -85q-241 -84 -483 -84zM408 891q-17 0 -34 -10
q-35 -22 -45.5 -84.5t0.5 -113.5q13 -76 65 -117q4 4 6 5q45 41 67 104.5t15 130.5q-3 26 -17.5 48.5t-33.5 31.5q-9 5 -23 5z" />
    <glyph glyph-name="swsha" unicode="&#x3d;a" horiz-adv-x="1862" 
d="M1192 122q-201 0 -381 32q-6 1 -69.5 13t-96 17.5t-86.5 11t-93 3.5q0 -12 -3 -19q-5 -17 -30 -33.5t-43 -12.5q-20 3 -16 28q2 18 17 29q20 14 61 19q-5 20 -25 37.5t-43 26.5q-75 27 -152 -5q0 -1 -2 -1t-3 -1q1 -13 0 -25q-2 -13 -13.5 -29.5t-23.5 -18.5
q-15 0 -20 13q-7 13 -2 28q6 18 44 39q-8 15 -17 22q-38 34 -81 20q-32 -10 -64 -39t-50 -60v21q49 70 107 88q24 8 50.5 2t45.5 -22q15 -13 19 -27q3 1 5 1q81 33 162 6q25 -10 47.5 -30.5t27.5 -44.5q40 2 94.5 -3.5t85.5 -10.5t98 -17.5t72 -13.5q595 -95 1012 97l4 -11
q-279 -130 -638 -130zM454 198q-35 -3 -55 -16q-12 -10 -13 -21q-1 -15 6 -15q12 -3 33.5 11.5t26.5 26.5q2 4 2 14zM216 262q-31 -16 -36 -31q-5 -9 1 -18q3 -7 7 -7q7 1 16 14t11 23q1 7 1 19z" />
    <glyph glyph-name="swshb" unicode="&#x3d;b" horiz-adv-x="2441" 
d="M1481 45q-165 0 -340 33q-41 7 -99.5 29.5t-94 39t-120.5 56.5q-74 35 -114.5 54t-112 49t-117 41.5t-109 24.5t-109.5 6t-96.5 -21.5t-92 -50.5t-76.5 -89v21q6 12 26 32q33 38 73 64t78 40t88.5 15t89.5 -1.5t97 -19t95 -29t99 -39t94 -41.5t94 -45q188 -88 257 -109
q29 -9 53 -13q388 -76 716.5 16.5t573.5 346.5l9 -10q-388 -400 -962 -400z" />
    <glyph glyph-name="swshc" unicode="&#x3d;c" horiz-adv-x="339" 
d="M-757 -776q-149 0 -269 66q-93 51 -132.5 126t-20.5 164l9 -2q-11 -55 -0.5 -103t37.5 -81.5t53.5 -55t57.5 -38.5q131 -71 291.5 -64.5t243.5 88.5q21 19 37 50q-162 26 -216 102q-40 52 -8 126q23 52 77 64q64 19 122 -24q55 -44 61 -135q3 -61 -23 -124q49 -6 91 -2
q141 11 273 69t224 150q79 78 133 191t44 226q-4 55 -31 109t-68 89q-26 22 -68 35.5t-83 8.5q-52 -8 -78 -42v21q22 23 76 32q43 5 87.5 -9t71.5 -37q43 -38 71.5 -93.5t33.5 -113.5q10 -114 -45.5 -229t-136.5 -195q-93 -93 -226.5 -152t-277.5 -71q-41 -3 -94 4
q-14 -32 -40 -58q-94 -92 -277 -92zM-563 -339q-14 0 -31 -5q-48 -11 -72 -58q-27 -67 8 -116q53 -74 212 -98q25 60 21 123q-3 85 -57 127q-39 27 -81 27z" />
    <glyph glyph-name="swshd" unicode="&#x3d;d" horiz-adv-x="1918" 
d="M0 217v21q27 34 110 171q35 60 55 92.5t57.5 89.5t65 89t67 74.5t76.5 63t80.5 38t90.5 16.5t97 -18q47 -16 108.5 -67t136.5 -135.5t130 -152t134 -169.5q163 -205 204 -244q83 -77 213 -52q88 14 161.5 72t120.5 148l11 -4q-48 -93 -124.5 -152.5t-167.5 -75.5
q-22 -5 -53 -5q-105 0 -169 61q-10 9 -21 21t-25.5 28.5t-26 30t-31 37.5t-31 38.5t-35.5 44t-36 44.5q-83 107 -134.5 170t-127 149.5t-135.5 136t-105 64.5q-43 14 -85 15t-77.5 -7t-73.5 -31.5t-66.5 -45.5t-63 -62t-57 -69t-55.5 -79.5t-50 -79t-48 -80.5
q-81 -136 -120 -186z" />
    <glyph glyph-name="swshe" unicode="&#x3d;e" horiz-adv-x="2058" 
d="M0 217v21l27 24q36 30 86.5 46.5t93 22t109.5 2t101.5 -8t105.5 -14.5q66 -10 105 -14l68 -8q107 -12 168 -17.5t169.5 -14t170.5 -7.5t170 3q572 33 660 234l11 -5q-18 -43 -59 -78.5t-86.5 -59t-112 -42.5t-115.5 -28.5t-119 -18t-99.5 -10.5t-79.5 -5
q-43 -6 -136 -3.5t-136.5 3.5t-136.5 9t-135.5 12.5t-134.5 14.5l-69 7l-105 14q-79 13 -131 18t-124 6t-130 -16.5t-102 -52.5q-14 -11 -34 -34z" />
    <glyph glyph-name="swshf" unicode="&#x3d;f" horiz-adv-x="2318" 
d="M0 217v21q40 67 125.5 113.5t168.5 48.5q48 58 95 83q171 94 557 22q85 -11 268 -43q96 -16 157 -26t158 -22.5t167 -16t160.5 -3t162.5 10.5t150 31t145 54l5 -9q-78 -38 -167 -61.5t-186.5 -30t-186 -6t-197 13t-185.5 24t-184 30.5q-189 33 -268 43q-387 70 -551 -20
q-39 -19 -86 -74q12 0 34 -2q56 -11 79 -39t25 -57q4 -42 -22.5 -84.5t-66.5 -59.5q-22 -6 -34 -6q-42 0 -73 42q-29 35 -18 89q10 52 54 106q-86 -5 -170.5 -55t-115.5 -117zM299 390q-45 -56 -57 -109q-10 -46 17 -80q38 -52 94 -32q37 13 62 53t22 79q-8 68 -97 85
q-17 4 -41 4z" />
    <glyph glyph-name="swshg" unicode="&#x3d;g" horiz-adv-x="2126" 
d="M2124 676l-1 -13q-183 -2 -365 -127l-92 -64q-89 -63 -143 -99t-136 -84t-161 -77.5t-160 -45.5q-57 -10 -116 -10.5t-123.5 9t-110 19.5t-116.5 28q-37 9 -97.5 30t-106.5 37.5t-105.5 28.5t-106.5 9.5t-96.5 -27t-87.5 -73.5v21q40 45 91 67.5t98 24t106 -10t104.5 -28
t105.5 -37t98 -29.5q71 -18 115 -28t108 -20t122 -9.5t114 11.5q81 15 159 44.5t161.5 78t134 82t142.5 98.5q72 51 92 64q187 130 373 130z" />
    <glyph glyph-name="swshh" unicode="&#x3d;h" horiz-adv-x="2826" 
d="M374 -190q-14 13 -19.5 28t-1.5 30.5t12 31t24 33t31 31.5t36 31t36 28t34.5 25.5t28.5 21.5q-45 78 -118.5 136.5t-151.5 84.5t-156 9t-129 -83v21q89 89 200 81.5t213 -77t153 -164.5q150 104 322.5 187t359 140t372 98t398.5 67t398.5 40t408.5 24v-13
q-223 -10 -407.5 -24t-397 -40t-397.5 -66.5t-371.5 -98t-358.5 -140.5t-321 -187q34 -73 9 -152q-14 -40 -47.5 -75.5t-76.5 -49t-83 21.5zM561 57q-5 -4 -26.5 -19.5t-33 -24.5t-33.5 -26t-34.5 -29t-29 -29t-23.5 -30.5t-12.5 -28t-1.5 -27.5t15 -24q48 -44 106 -3t79 99
q26 70 -6 142z" />
    <glyph glyph-name="swshi" unicode="&#x3d;i" horiz-adv-x="2743" 
d="M0 217v21q40 44 113 76.5t134 32.5q6 23 17 32q21 20 64 23t90 -6t105 -26t98 -32l80 -30q5 -2 8.5 -3.5t6.5 -2.5q17 -8 25 -10q226 -81 402 -50q111 19 171 84q1 1 2.5 4t2.5 4q-29 17 -51.5 41.5t-21.5 45.5q0 27 45 38q44 9 56 -17q10 -21 6.5 -50t-17.5 -54
q5 -3 12.5 -7t9.5 -5q44 -16 89.5 -18t97.5 11t84.5 24t92.5 35q5 1 33 13q40 15 64.5 24t77.5 23.5t91 18t80.5 -4t69.5 -30.5q40 17 108.5 19.5t134.5 -3.5q73 -3 137.5 -4.5t123 17t91.5 59.5l10 -8q-35 -43 -95.5 -62.5t-127 -18t-141.5 4.5q-62 5 -128.5 3.5
t-104.5 -15.5q1 -2 19 -28q32 -63 -5 -86q-17 -13 -40.5 -10t-38.5 19q-32 28 0 70q18 25 43 38q-93 71 -364 -38l-34 -14q-60 -23 -93.5 -34.5t-86 -24t-99 -10t-92.5 18.5q-12 5 -25 13q-1 -1 -3 -4.5t-4 -5.5q-64 -69 -177 -88q-178 -31 -410 50q-2 1 -5.5 2.5t-8.5 3.5
l-10 4q-370 149 -440 82q-10 -14 -12 -24q23 0 40 -7q63 -20 54 -81q-5 -34 -28 -34q-19 -2 -40.5 14.5t-29.5 36.5q-12 33 -10 59q-65 -1 -135 -35t-111 -84zM2134 408q-30 -15 -43 -36q-23 -33 -3 -54q13 -12 33 -14.5t33 6.5q25 19 0 69q-8 17 -20 29zM1311 450
q-7 0 -16 -3q-36 -9 -37 -27q-1 -16 20 -38t48 -38q12 22 16 48t-4 45q-9 13 -27 13zM258 336q-1 -20 9 -54q6 -16 25 -30.5t33 -13.5q15 2 16 24q9 49 -44 68q-2 1 -39 6z" />
    <glyph glyph-name="swshj" unicode="&#x3d;j" 
d="M-2725 -388l-8 11q99 73 209 124t206 81.5t222.5 43.5t215.5 16.5t231.5 -8t224 -21t237.5 -30.5q181 -24 279.5 -34.5t255 -20.5t290 -0.5t260.5 36.5q144 30 252 96t158 138.5t52 141.5q3 112 -102 139q-146 36 -258 -108v21q20 22 24 26q64 64 152.5 78t152.5 -29
t63 -127q-1 -53 -35 -110.5t-94.5 -111t-155 -98.5t-206.5 -68q-128 -28 -262 -37.5t-292.5 0.5t-255 20t-280.5 34q-181 24 -276 34.5t-256 21.5t-269.5 -0.5t-244 -37t-256 -81.5t-234.5 -140z" />
    <glyph glyph-name="swshk" unicode="&#x3d;k" 
d="M-2045 -449l-9 9q187 196 468 230q78 9 163 10.5t157.5 -2.5t164.5 -15t156 -21t160 -26q31 -5 119 -20t130 -21t121.5 -15t132.5 -10t119.5 3.5t124.5 17.5q94 22 169 73.5t115.5 132t23.5 171.5q-11 65 -49 131t-87 81q-67 20 -134 -63v21q26 33 63 48.5t75 4.5
q55 -17 103 -86.5t61 -134.5q13 -71 -11 -137.5t-74 -116t-115.5 -85.5t-137.5 -53q-60 -13 -127 -18t-121 -4t-131 10t-121 16t-129.5 22t-120.5 21q-101 17 -160.5 26t-154.5 20.5t-165 15t-156 2.5t-163 -11q-278 -33 -460 -227z" />
    <glyph glyph-name="swshl" unicode="&#x3d;l" 
d="M-1751 -442q-7 0 -11 1q-44 11 -45.5 52t20.5 81t47 63q52 49 153 74t227 28t275.5 -4t303 -19t305 -21.5t287 -7t243 20.5t179 65t89.5 123q51 209 -59 272q-56 32 -127.5 13.5t-135.5 -82.5v21q33 32 76.5 53.5t95 27t96.5 -20.5q62 -35 86 -111.5t0 -175.5
q-19 -80 -91.5 -129.5t-182 -69t-247 -22.5t-290.5 7t-308.5 22.5t-306 21t-277.5 6t-229 -27.5t-154 -74q-24 -23 -44 -58.5t-19.5 -71t36.5 -43.5q30 -6 70.5 25t60.5 73l12 -4q-19 -43 -60 -75.5t-75 -32.5z" />
    <glyph glyph-name="swshm" unicode="&#x3d;m" horiz-adv-x="2721" 
d="M1930 102h-15q-77 0 -150.5 28t-118.5 76q0 1 -1 1q-100 -92 -235.5 -89.5t-283.5 99.5q-50 33 -132 104q-59 49 -82 67.5t-73.5 52.5t-94 47t-90.5 13q-65 0 -137.5 -31t-118.5 -83q60 -5 129 -36.5t83 -77.5q13 -50 -55 -100q-36 -27 -80.5 -33t-80.5 12q-60 30 -60 98
q0 71 43 128q-119 6 -203.5 -29.5t-173.5 -131.5v21q88 91 177 125.5t209 26.5q47 56 123 90t145 34h3q32 0 63 -6t64.5 -23t54.5 -28t59 -40.5t50 -40t54 -45.5q95 -82 129 -105q35 -23 71 -41.5t94 -36.5t111 -20t115.5 19t114.5 69q-65 76 -58 175q3 36 22 75.5t47 49.5
q31 12 65 -21q28 -28 30 -81q0 -52 -27.5 -108t-59.5 -88l-3 -3q48 -49 123.5 -77t153.5 -25q135 5 265 60t224 146q25 24 85 92q42 48 67 75t65.5 61.5t74.5 50.5l4 -9q-33 -16 -72.5 -50.5t-64 -60.5t-66.5 -74q-60 -68 -85 -93q-97 -93 -228.5 -148.5t-268.5 -60.5z
M390 377q-45 -58 -45 -127q0 -62 53 -88q34 -17 74.5 -11.5t75.5 31.5q62 44 51 88q-11 40 -76 71t-125 35q-6 0 -8 1zM1665 508q-4 0 -14 -2q-24 -9 -40.5 -45.5t-19.5 -70.5q-8 -95 55 -167q0 3 2 3q30 29 57.5 84.5t26.5 103.5q0 46 -28 74q-20 20 -39 20z" />
    <glyph glyph-name="swshn" unicode="&#x3d;n" horiz-adv-x="1830" 
d="M718 216q-26 0 -34 16q-11 26 48 62q1 1 3 2l2 1q-24 23 -62 44.5t-63 28.5q-115 31 -228 26.5t-218 -52t-166 -127.5v21q19 21 37 38q104 95 268 124t310 -18q24 -6 65 -29.5t67 -50.5q143 84 282.5 109.5t325.5 17.5q150 -9 249.5 -9.5t191.5 24t228 89.5l6 -12
q-136 -65 -229.5 -89.5t-194 -24t-251.5 8.5q-183 9 -320.5 -16t-278.5 -107q16 -21 17 -37q1 -14 -10 -24.5t-29 -13.5q-4 -2 -16 -2zM745 286q-12 -4 -32.5 -21t-17.5 -27q2 -6 13 -8.5t23 0.5q8 0 18.5 7t10.5 18q-2 15 -15 31z" />
    <glyph glyph-name="swsho" unicode="&#x3d;o" horiz-adv-x="2308" 
d="M2118 114q-188 0 -400 30t-375.5 67t-378 75.5t-390.5 51.5q-151 12 -260 3q-227 -19 -314 -124v21q84 95 312 116q103 9 263 -2q180 -13 393.5 -51.5t375 -76t373.5 -68t403 -30.5q170 0 170 68h13q0 -26 -25 -47q-40 -33 -160 -33z" />
    <glyph glyph-name="swshp" unicode="&#x3d;p" horiz-adv-x="2190" 
d="M628 43q-22 0 -36 5q-62 15 -68 57q-15 76 174 224l10 8q33 26 68 50q-106 68 -223 77q-159 13 -305.5 -52.5t-247.5 -194.5v21l36 39q102 106 238 158t280 41q153 -11 244 -73q112 75 248 125t263 74t289 32.5t288 6t298 -12.5v-12q-169 10 -295.5 13t-286.5 -5.5
t-286.5 -32.5t-261.5 -73t-246 -123q35 -23 54 -61q43 -83 -38 -183q-37 -45 -91 -76.5t-105 -31.5zM786 380q-35 -24 -71 -53l-9 -8q-185 -144 -171 -212q7 -33 59 -48q48 -13 108.5 20.5t101 85.5t41 114t-58.5 101z" />
    <glyph glyph-name="swshq" unicode="&#x3d;q" horiz-adv-x="717" 
d="M437 -65q-44 0 -71 15q-30 16 -25 45l13 -1q-3 -21 19 -34q35 -22 105.5 -8t128.5 58q109 87 73 222q-41 168 -208 198q-126 25 -254.5 -33t-217.5 -180v21q18 24 30 36q90 101 209 146.5t235 22.5q91 -17 154.5 -72t83.5 -136q36 -139 -83 -234q-89 -66 -192 -66z" />
    <glyph glyph-name="swshr" unicode="&#x3d;r" horiz-adv-x="2005" 
d="M1572 -8q-78 0 -153 34q-71 32 -123 72.5t-80.5 81t-41.5 83.5t-10.5 82.5t16.5 76.5q30 76 103.5 131t174.5 73t219 -20l-4 -12q-160 53 -298 -4.5t-183 -172.5q-14 -35 -16 -72.5t10.5 -79t40 -80t78.5 -77.5t120 -70q95 -44 189 -31t171.5 63t129.5 124q45 65 64 137
t-2 158.5t-91 157.5q-271 280 -636 274q-166 -3 -345.5 -65t-342 -165t-303 -222.5t-259.5 -251.5v21q120 131 261 249t303 219.5t341.5 163t344.5 64.5q372 6 644 -280q74 -73 95.5 -161.5t2 -163t-65.5 -142.5q-61 -86 -156 -140.5t-198 -54.5z" />
    <glyph glyph-name="swshs" unicode="&#x3d;s" 
d="M0 217v21q33 44 51 105q57 198 -41 318.5t-286 116.5q-122 -2 -344.5 -26t-273.5 -28q-243 -19 -378 -28t-311.5 -16t-316.5 -2.5t-274 20.5q-285 34 -349 151l11 5q9 -16 21.5 -29.5t31 -24t33.5 -19t41.5 -15.5t40.5 -11t46 -8.5t42.5 -6t44.5 -5.5t39 -5
q153 -17 312 -22t337 3t301 16.5t328 26.5q26 2 158.5 15.5t215.5 20.5t192 7.5t170 -13.5q144 -33 206 -152.5t15 -289.5q-19 -70 -63 -125z" />
    <glyph glyph-name="swsht" unicode="&#x3d;t" 
d="M-2014 -753l-12 -3q-26 122 49 226q60 83 176.5 150.5t241.5 106t247 52.5q133 23 294 27q184 7 504 -9q349 -19 552 -7q214 8 300 88q55 52 48 125q-13 66 -67 93q-20 10 -33 14q-2 -36 -31.5 -68t-65.5 -44q-29 -12 -63 8q-34 23 -31 56q4 21 24 37.5t47 23.5
q43 9 90 0q0 60 -46 111q-48 50 -112.5 44t-97.5 -61v21q43 52 118.5 52.5t119.5 -48.5q48 -52 48 -120q38 -12 44 -16q75 -36 85 -100q10 -72 -57 -136q-51 -48 -132 -67t-186 -25q-178 -10 -554 7q-298 16 -504 9q-146 -3 -292 -26q-122 -14 -246 -51.5t-238.5 -104
t-171.5 -148.5q-75 -101 -48 -217zM211 116q-19 0 -42 -5q-25 -5 -42 -19t-19 -31q-6 -24 25 -45q26 -18 51 -8q29 10 49.5 41.5t20.5 61.5q-22 5 -43 5z" />
    <glyph glyph-name="swshu" unicode="&#x3d;u" 
d="M1148 -8q-54 0 -109 15t-115 48t-97.5 57t-101.5 69q-6 5 -10.5 8t-9.5 6q-69 48 -105.5 72.5t-96 58t-111 49t-100.5 15.5q-178 3 -228 -132q29 -3 49.5 -28t25.5 -57q5 -41 -27 -58q-26 -14 -43 -5q-25 14 -27 72q0 41 6 65q-26 -1 -48 -30v21q22 22 51 22
q23 71 88 108.5t153 35.5q51 -1 103.5 -16.5t111.5 -49t98 -59t107 -73.5q150 -107 225 -144q149 -75 267 -53q82 16 126.5 57.5t47.5 104.5q4 68 -34.5 131.5t-85.5 77.5q-43 13 -71 -31l-11 5q33 54 86 39q51 -15 92 -82t37 -140q-1 -24 -9 -46.5t-26 -49t-56.5 -47.5
t-93.5 -31q-25 -5 -58 -5zM61 246q-8 -27 -6 -63q2 -53 20 -61q11 -8 31 4q23 14 20 45q-2 24 -22 49t-43 26z" />
    <glyph glyph-name="swshv" unicode="&#x3d;v" horiz-adv-x="3003" 
d="M0 217v21q86 105 263.5 184.5t375.5 119.5t391 44q235 6 516 9t456 3t527 -0.5t474 -0.5v-13q-122 0 -474 0.5t-527 0.5t-455.5 -3t-515.5 -9q-195 -4 -396 -45.5t-377.5 -123.5t-257.5 -187z" />
    <glyph glyph-name="swshw" unicode="&#x3d;w" horiz-adv-x="968" 
d="M526 46q-153 0 -300 49.5t-226 121.5v21q90 -90 278.5 -144t363.5 -25q225 35 308 202l12 -5q-85 -172 -318 -211q-68 -9 -118 -9z" />
    <glyph glyph-name="swshx" unicode="&#x3d;x" 
d="M-3474 -545l-12 2q5 59 40.5 107t103 82t146 60.5t195.5 41.5t225 25t260 11t274 0.5t294.5 -8t294.5 -14t299 -16.5q74 -4 240.5 -14t244.5 -14t213 -10t210.5 -5.5t168.5 3t155.5 12t107.5 24.5q58 20 97 57t55.5 81.5t21.5 78t5 65.5q-1 80 -30.5 147t-68.5 80
q-34 10 -66 -34v21q34 38 70 25q43 -13 74.5 -83t33.5 -156q0 -25 -2.5 -51t-13.5 -64t-30.5 -69.5t-56 -62t-85.5 -47.5q-103 -35 -330 -43.5t-444 -0.5t-571 28q-727 43 -1045 45q-723 5 -954 -134q-110 -68 -120 -170z" />
    <glyph glyph-name="t_b" unicode="tb" horiz-adv-x="790" 
d="M193 30q-20 -18 -53.5 -28t-69 -7.5t-64.5 22t-39.5 59.5t4.5 106q38 164 128 364q-18 5 -52 15q-46 13 -68 19t-60.5 15.5t-60 11.5t-53 3.5t-52 -4.5t-45 -16t-45 -28t-39.5 -43l-11 11q18 22 38 38.5t38 28t43.5 17t43 9t49 0.5t48.5 -5t54.5 -11t54.5 -14t60.5 -17.5
t61.5 -17.5q7 16 58.5 47t56.5 39l12 -6q-19 -77 -35 -112q40 -11 103.5 -23t78.5 -9q66 131 203 143q22 1 30 -23q14 -50 -31 -88q-32 -27 -103 -44q-124 -265 -95 -436q14 68 43.5 142.5t67.5 109.5q22 19 42 23q23 4 47 -8q37 -18 57 -58t13 -90q-5 -29 -26 -68.5
t-45 -69.5q28 15 91 77.5t118 133.5v-21q-58 -72 -117 -130t-89 -73q-55 -24 -85 -14t-59 55l-6 9l11 8q36 -61 76 -63q14 -1 33 99q25 139 6 187q-6 15 -18 14q-14 -2 -28 -11q-33 -22 -62 -84t-42.5 -113t-19.5 -87v-15h-83v15q-20 55 -25 101q-55 -61 -89 -85zM371 479
q-10 -1 -79.5 13t-100.5 23q-95 -208 -118 -337q-24 -136 36 -163q29 -12 76 25q47 40 95 92q-2 73 26 174t65 173zM581 624q-19 0 -49.5 -43t-48.5 -84q61 16 90 40q35 30 27 66q-5 21 -19 21z" />
    <glyph glyph-name="t_h" unicode="th" horiz-adv-x="769" 
d="M331 2l-89 3q2 12 7 38t8 39q-24 -25 -58 -52q-32 -25 -67.5 -29t-65 11t-53 40.5t-33.5 60.5t-3 69q9 45 70 208q-42 10 -101 41q1 1 2.5 3.5t3.5 5.5l1 2q55 -29 99 -39q24 62 55.5 97t65 59.5t49.5 48.5l11 -6q-11 -29 -43.5 -102.5t-50.5 -121.5q64 -13 101.5 -14
t96.5 17q37 120 62 178q32 75 110 101q69 24 113 -6q31 -21 29 -62q-2 -46 -45 -94.5t-87.5 -77t-79.5 -42.5l-36 -116q64 82 120 89q71 8 109 -41t14 -123q-8 -23 -21.5 -62.5t-24 -67.5t-21 -65.5t-16 -65.5t-5.5 -57t8 -51q18 -45 42 -56.5t65 9.5l6 -13
q-48 -23 -113.5 -7t-81.5 60q-28 82 26 271q6 20 17 59q40 132 37 167q-4 38 -45 30q-56 -12 -127 -115q-8 -27 -28 -103t-33 -118zM287 213q0 4 45 152q-62 -16 -99 -14.5t-98 15.5q-44 -118 -56 -188q-24 -136 36 -163q29 -12 76 25q35 29 71 67zM444 395q66 30 126 83.5
t68 112.5q5 36 -23 50q-36 18 -77 -27q-20 -22 -36 -56q-18 -38 -58 -163z" />
    <glyph glyph-name="t_k" unicode="tk" horiz-adv-x="776" 
d="M423 540q29 60 73 118.5t100 107.5t123 71.5t130 4.5q43 -12 64 -59t12 -92q-31 -156 -288 -221q-73 -17 -149 -15q-58 -127 -92.5 -228t-59.5 -225l-82 2l9 84q-30 -33 -63 -58q-20 -15 -52 -23t-66.5 -5t-63 21.5t-41 57t0.5 101.5q11 51 35.5 117t40.5 101.5t53 113.5
l6 12l5 8q-127 46 -185 56q-75 13 -149 4l-4 13q63 7 127.5 -1.5t103.5 -20.5t102 -35q11 -4 16 -6q12 11 56 41t51 42l12 -8q-6 -12 -21.5 -47.5t-22.5 -49.5q142 -42 187 -48q5 11 16.5 33.5t15.5 32.5zM279 184l107 278q-60 9 -187 48q-94 -200 -119 -332
q-18 -132 36 -160q30 -12 76 24q41 34 74 69q5 36 13 73zM524 533l-32 -65q87 2 139 14q251 62 281 211q8 36 -9.5 80.5t-57.5 56.5q-43 13 -94 -15.5t-95 -80.5t-78 -104.5t-54 -96.5zM511 -2q-28 1 -48 18.5t-31.5 49.5t-17.5 60t-13 70q0 3 -0.5 5t-1 4.5t-0.5 4.5l10 6
q29 -15 63 -2.5t62.5 37.5t45.5 55t12 50l15 -4q4 -25 -23 -66t-75 -70t-92 -18q163 -67 148 -167q-1 -8 1 -8l47 38q3 3 6 5q20 17 77.5 80t79.5 92v-21q-19 -27 -73 -84.5t-75 -76.5q-36 -31 -61.5 -45t-55.5 -13z" />
    <glyph glyph-name="t_t" unicode="tt" horiz-adv-x="674" 
d="M71 456l5 13q0 2 5 11q6 13 20 27l9 9q13 11 38 29t43.5 33.5t26.5 29.5l12 -6l-60 -141q36 7 116.5 27.5t124.5 28.5q13 12 38 29.5t43 32.5t26 29l12 -6l-31 -72q25 3 53 3q18 0 36.5 -2t37 -11.5t15.5 -25.5t-43 -25l-2 12q32 6 33 16q5 24 -77 24q-18 0 -58 -4
l-25 -58l-6 -14q-64 -156 -80 -222q-21 -83 -12 -145q15 -90 92 -51q28 15 90.5 76.5t120.5 134.5v-21q-57 -71 -117.5 -129.5t-90.5 -73.5q-28 -10 -69.5 -12t-82 18.5t-45.5 57.5q-2 12 -2 20q-67 -67 -101 -84q-28 -10 -69.5 -12t-82 18.5t-45.5 57.5q-16 112 92 357
q-10 -1 -29 -1q-97 0 -106 48q-7 30 28.5 43.5t57.5 -0.5l-5 -11q-20 11 -47 1t-21 -33q9 -36 93 -36q23 0 35 1q2 6 4 9zM371 456l5 13q0 2 5 11q6 12 12 19q-34 -7 -112 -25t-117 -25l-1 -4q-64 -156 -80 -222q-21 -83 -12 -145q15 -90 92 -51q31 16 103 89q2 112 105 340
z" />
    <glyph glyph-name=".notdef" horiz-adv-x="320" 
 />
    <glyph glyph-name=".null" 
 />
    <glyph glyph-name="nonmarkingreturn" horiz-adv-x="333" 
 />
    <glyph glyph-name="space" horiz-adv-x="192" 
 />
    <glyph glyph-name="space" horiz-adv-x="192" 
 />
    <glyph glyph-name="exclam" unicode="!" horiz-adv-x="469" 
d="M189 146q11 178 63 330q3 8 13 38.5t13.5 40.5t13.5 35.5t17.5 39.5t19.5 35.5t26.5 40t31.5 38.5q35 -81 -32 -276q-23 -66 -35.5 -98.5t-47 -96t-83.5 -127.5zM210 25q-2 -18 -14 -28.5t-30 -7.5q-15 0 -26 13t-8 29q2 17 14 27t28 7q16 0 27 -11.5t9 -28.5z" />
    <glyph glyph-name="quotedbl" unicode="&#x22;" horiz-adv-x="268" 
d="M37 763q25 0 25 -20q1 -18 -21 -42t-39 -27l-2 9q13 2 30.5 19t22.5 32q-6 -3 -15 -3q-10 0 -17 4.5t-7 11.5q0 16 23 16zM114 738q25 0 25 -20q1 -18 -21 -42t-40 -27l-1 9q13 2 30 19t23 32q-4 -3 -15 -3q-10 0 -17.5 4.5t-7.5 11.5q0 6 7 11t17 5z" />
    <glyph glyph-name="numbersign" unicode="#" horiz-adv-x="669" 
d="M491 442q-8 -47 -64 -79q-1 -30 3 -93q4 -26 4 -80v-28q73 13 113 48q27 27 25 48q-1 11 -9 21t-17 8q-21 -3 -34 -25l-11 8q18 26 44 30q25 3 45 -10q12 -12 14 -31q2 -28 -26 -56q-43 -37 -145 -53q-1 -11 -2 -37.5t-3 -38.5l-12 4q-6 13 -15 69q-66 -10 -127 -42
q-2 -73 -23 -97q-13 -18 -46 -9t-27 35q8 48 64 80q0 51 -4 92q-4 36 -4 81q0 19 1 27q-76 -13 -113 -48q-27 -24 -25 -48q2 -13 10 -20q13 -13 35 -8q21 3 34 24l11 -7q-18 -26 -44 -30q-14 -2 -35 1t-29 9q-12 11 -14 31q-2 28 26 56q45 38 145 53q2 20 24 76l12 -5
q-1 -11 -2 -34t-2 -35q70 13 127 43q2 72 23 97q13 19 46 9t27 -36zM266 290q0 -28 4 -82q4 -60 4 -88q61 30 128 41v26q0 46 -4 82q0 10 -1 28t-1.5 32.5t-0.5 27.5q-60 -31 -128 -42q-1 -8 -1 -25zM221 14q19 26 21 84q-47 -29 -52 -65q-3 -18 10 -23.5t21 4.5zM448 462
q-19 -25 -21 -83q46 28 51 65q4 18 -9 23.5t-21 -5.5z" />
    <glyph glyph-name="dollar" unicode="$" horiz-adv-x="299" 
d="M226 334q13 -27 7.5 -55.5t-27.5 -50.5q-25 -25 -64 -22l-5 -54h-13l5 56q-41 9 -59 50q-14 38 2 72q12 27 38 40l5 -13q-22 -9 -31 -32q-12 -32 -2 -61q8 -21 24.5 -32.5t34.5 -10.5q13 0 24.5 29t9 68t-24.5 60q-4 4 -13.5 11t-13.5 11q-27 25 -37 50q-7 17 -3.5 39.5
t15.5 38.5q9 13 32.5 20.5t41.5 5.5l6 55l12 -2l-5 -55q33 -12 41 -54q8 -57 -35 -75l-5 12q35 15 27 60q-3 19 -13.5 34.5t-28.5 12.5q-27 -4 -34.5 -60t14.5 -72q6 -5 28 -24q35 -24 47 -52z" />
    <glyph glyph-name="percent" unicode="%" horiz-adv-x="430" 
d="M294 261q-27 -34 -93 -125t-103 -135l-10 7q43 93 176 261q14 18 29 34t24.5 25t12.5 13q-15 -14 -62 -14q-36 0 -70 18v-15q-3 -36 -22 -79q-27 -61 -67 -61q-11 0 -16 4q-25 17 -28 49t11 61.5t41 51.5t57 22q10 0 19 -12q5 -8 29 -17t46 -9q49 0 62 20l16 -19l-6 -11
q-6 -11 -18 -29.5t-28 -39.5zM164 257q22 50 22 87q0 20 -12 20q-21 0 -52 -59q-35 -67 -26 -94q5 -8 13 -9q31 0 55 55zM356 182q10 -10 10 -28q0 -47 -22 -94q-28 -62 -68 -62q-50 0 -50 48q-1 49 41 98q36 42 75 42q10 0 14 -4zM333 67q21 47 21 87q0 20 -11 20
q-20 0 -44 -42.5t-30.5 -78.5t7.5 -42q31 0 57 56z" />
    <glyph glyph-name="ampersand" unicode="&#x26;" horiz-adv-x="458" 
d="M261 309q3 27 -58 12q4 -3 9.5 -8.5l8.5 -8.5t7.5 -5t10.5 -2q19 0 22 12zM207 82q-56 0 -98.5 29.5t-43.5 80.5q-1 42 26.5 77.5t67.5 51.5q-56 47 -44.5 88.5t66.5 63.5t102 2l3 -1q3 5 13.5 10t17.5 6l5 -11q-14 -2 -26 -12q19 -15 19 -41q0 -22 -13 -30.5t-26 -0.5
t-14 26q-2 22 15 43q-34 14 -56.5 -2t-29 -44t-6.5 -54.5t7 -33.5q23 10 56.5 6t24.5 -32q-11 -23 -43 -18.5t-59 26.5q-10 -3 -16.5 -55t4 -105.5t43.5 -56.5q44 -4 86 26.5t42 72.5q0 36 -27 49q-29 -13 -42 -26.5t-13 -33.5h-14q0 34 35 56q12 8 44.5 23t48.5 28
q30 25 14 45l12 7q15 -27 -8 -51.5t-58 -38.5q29 -44 17.5 -81.5t-50 -62t-82.5 -26.5zM287 458q-13 -22 -13 -32q0 -15 7 -20t14 1t7 18q0 23 -15 33z" />
    <glyph glyph-name="quotesingle" unicode="'" 
d="M5 693q25 0 25 -20q1 -18 -21 -42t-39 -27l-2 9q13 2 30.5 19t22.5 32q-6 -3 -15 -3q-10 0 -17 4.5t-7 11.5q0 16 23 16z" />
    <glyph glyph-name="parenleft" unicode="(" horiz-adv-x="417" 
d="M321 -154v-14q-100 0 -178.5 120.5t-78.5 285.5t78.5 286t178.5 121v-13q-45 0 -76 -30t-47.5 -86.5t-23.5 -123t-7 -154.5q0 -87 7 -153.5t23.5 -122.5t47.5 -86t76 -30z" />
    <glyph glyph-name="parenright" unicode=")" horiz-adv-x="321" 
d="M0 -168v14q45 0 76 30t47.5 86t23.5 122.5t7 153.5q0 88 -7 154.5t-23.5 123t-47.5 86.5t-76 30v13q100 0 178.5 -121t78.5 -286t-78.5 -285.5t-178.5 -120.5z" />
    <glyph glyph-name="asterisk" unicode="*" horiz-adv-x="433" 
d="M210 412l-96 -98l-8 8l95 99l-137 -3v12l138 2l-98 95l8 9l98 -96l-2 138h12l2 -136l95 97l9 -9l-96 -98l137 2l2 -11l-139 -2l99 -96l-8 -9l-99 97l2 -139h-11z" />
    <glyph glyph-name="plus" unicode="+" horiz-adv-x="378" 
d="M183 386h12v-119h119v-13h-119v-118h-12v118h-119v13h119v119z" />
    <glyph glyph-name="comma" unicode="," horiz-adv-x="223" 
d="M37 46q25 0 25 -20q1 -17 -21 -41t-39 -27l-2 8q13 3 30.5 20t22.5 32q-5 -4 -15 -4t-17 5t-7 11q0 16 23 16z" />
    <glyph glyph-name="hyphen" unicode="-" horiz-adv-x="474" 
d="M346 252v-12h-250v12h250z" />
    <glyph glyph-name="period" unicode="." horiz-adv-x="200" 
d="M0 22q0 9 6 14.5t14 5.5t14 -5.5t6 -14.5q0 -8 -6 -14t-14 -6t-14 6t-6 14z" />
    <glyph glyph-name="slash" unicode="/" horiz-adv-x="310" 
d="M63 14l136 610l15 -7l-135 -611z" />
    <glyph glyph-name="zero" unicode="0" horiz-adv-x="414" 
d="M162 -7q-55 0 -78 19q-49 37 -51.5 136.5t33.5 180.5q26 64 77 105.5t103 47.5h7q49 0 82 -36q55 -60 46 -178t-66 -190q-27 -34 -69 -59.5t-84 -25.5zM251 469q-43 0 -76 -106q-37 -116 -29 -231q8 -113 61 -114q40 1 98 67q54 69 62.5 181t-42.5 169q-33 34 -74 34z
" />
    <glyph glyph-name="one" unicode="1" horiz-adv-x="274" 
d="M203 -9h-109q0 31 19 190q29 241 40 281q-12 -25 -47 -66t-68 -49l-6 10q22 4 51.5 34t48 57t18.5 29l91 3q0 -9 -3 -49t-10 -116.5t-12 -132.5q-10 -125 -13 -191z" />
    <glyph glyph-name="two" unicode="2" horiz-adv-x="446" 
d="M267 21q-46 39 -88.5 33.5t-65.5 -53.5l-81 1q8 23 36 66t50 65q74 74 132 163q108 168 -7 178q-7 1 -15 1q-40 0 -74 -20q-24 -15 -40.5 -38.5t-18.5 -47.5q-3 -44 19 -54q34 -17 62.5 22.5t13.5 70.5l9 5q11 -24 -1 -54.5t-38 -47t-52 -4.5q-28 17 -34 39.5t6 44
t29.5 40t37.5 31.5q35 21 94.5 24.5t110.5 -18.5t56 -66q9 -86 -172 -261q-24 -24 -67.5 -57t-53.5 -46q21 32 97 56t102 0q6 -5 16.5 -16t15.5 -15.5t13.5 -8t15.5 -2.5q19 0 39 23l-23 -55q-18 -22 -44 -29q-16 -5 -42 6.5t-38 23.5z" />
    <glyph glyph-name="three" unicode="3" horiz-adv-x="377" 
d="M163 -5l-33 3q-45 9 -74 40t-22 84l13 1q-6 -48 20.5 -75.5t67.5 -35.5q22 -2 31 -2q43 0 54 84q10 79 -11 138q-17 47 -42 26l-29 -24l-7 11q28 22 47 40t44 44t42 43q-41 2 -70 23h1q-7 4 -20 13t-21 13.5t-20 7t-23 0.5q-32 -11 -64 -56l25 41q33 51 74 64q10 2 19 2
q48 0 88 -27q6 -4 20.5 -15t23 -14.5t17.5 -1.5q12 5 31 28l-24 -42q-15 -22 -33 -32q-10 -8 -16.5 -14.5t-12 -12.5t-20.5 -22.5t-36 -37.5q14 4 23 4q26 0 55 -19q31 -21 47 -63.5t9 -84.5q-11 -58 -63 -94.5t-111 -36.5z" />
    <glyph glyph-name="four" unicode="4" horiz-adv-x="500" 
d="M350 -5l-110 -1q0 2 10 38.5t26 96.5t28 109q-20 5 -57 20.5t-50 19.5q-41 -72 -105 -64q-39 5 -56 34t15 43q6 3 13 5q9 2 23 1.5t19 -3.5q13 30 21 65t6.5 69.5t-16.5 49.5l81 2q23 -28 24 -88.5t-21 -105.5q18 -4 52.5 -20.5t51.5 -20.5q26 104 30 149h80
q-13 -107 -20 -152h7q34 0 62 19l6 -7q-30 -19 -68 -19h-8q-10 -68 -44 -240zM49 248q23 -7 53 38q-21 7 -36 4q-17 -4 -24.5 -18.5t7.5 -23.5z" />
    <glyph glyph-name="five" unicode="5" horiz-adv-x="387" 
d="M186 -3q-43 -5 -83 14.5t-60 56.5q-9 19 -10 45.5t12 41.5l8 -9q-18 -35 2 -73.5t52 -52.5q52 -24 85 44q31 63 21 137q-9 71 -53 75q-10 1 -20 -2q-38 -10 -64 -31h-11q2 19 4.5 77.5t5.5 75.5q11 39 34 54.5t50 11.5t58 -10t58 -10.5t50 10.5q15 10 21 30l9 -75
q-14 -33 -38 -46.5t-50.5 -9t-56 11t-53.5 12t-43.5 -5.5t-26.5 -41q-1 -3 -7 -65q26 17 59 22q31 3 60 -6q58 -19 90 -62t25.5 -95.5t-54.5 -93.5q-29 -24 -74 -31z" />
    <glyph glyph-name="six" unicode="6" horiz-adv-x="413" 
d="M38 95q-10 33 -4 95q7 81 51 165.5t93 107.5q44 25 92 23.5t98 -41.5l-9 -7q-32 29 -63 29q-20 0 -41 -13q-44 -26 -77.5 -104.5t-40.5 -159.5q-2 -24 -1 -32q14 35 44 64t64 40q15 5 34 5q53 0 83 -40q22 -32 19 -75q-4 -38 -24 -74q-28 -49 -76.5 -73t-96.5 -20t-89 33
t-56 77zM137 120q1 -4 2.5 -11t1.5 -10q23 -92 91 -92q38 0 58 73q21 76 4 135q-13 47 -46 36q-39 -13 -72 -52.5t-39 -78.5z" />
    <glyph glyph-name="seven" unicode="7" horiz-adv-x="347" 
d="M169 -2h-81v26q0 94 80 189q14 17 43.5 49t44 49.5t29 47.5t17.5 62q-11 -46 -27.5 -67.5t-35 -21.5t-39 9.5t-42 21.5t-42 18.5t-41 -4t-35.5 -41.5l-8 76q28 55 62 63q6 3 20 3q25 0 81.5 -26.5t81.5 -21.5q17 4 27 23l11 -1q0 -8 0.5 -40t0.5 -47.5t-3 -45.5
t-8.5 -49.5t-17 -44t-28.5 -44.5q-7 -8 -19.5 -21t-19.5 -21t-17 -20t-15.5 -21t-11.5 -21t-8 -23.5t-2 -26t3 -29.5z" />
    <glyph glyph-name="eight" unicode="8" horiz-adv-x="365" 
d="M134 -3q-55 0 -83 40q-21 29 -18 65q2 28 15 55t26.5 42.5t38.5 42t36 38.5q-2 3 -8 13t-9 15.5t-9.5 17.5t-8.5 19.5t-6.5 21t-2.5 22t2 23.5q11 49 58 72t95.5 12t64.5 -48q7 -16 7 -30t-3.5 -24t-14 -22t-19.5 -20t-26.5 -22t-28.5 -24q32 -29 56.5 -64.5t31.5 -63.5
q18 -75 -36 -128t-158 -53zM156 268l-10 -10q-10 -12 -33.5 -37t-33.5 -37.5t-20.5 -35t-12.5 -47.5q-1 -31 16 -56q30 -39 87 -33q48 6 73.5 33t24.5 63.5t-25 71.5q-4 5 -28.5 36.5t-37.5 51.5zM188 413q-13 -34 44 -97q58 47 71 64q23 31 9 62q-16 35 -62.5 24t-61.5 -53
z" />
    <glyph glyph-name="nine" unicode="9" horiz-adv-x="414" 
d="M375 379q10 -33 4 -95q-7 -81 -51 -165.5t-93 -107.5q-44 -25 -92 -23.5t-98 41.5l9 7q32 -29 63 -29q20 0 41 13q44 26 77.5 104.5t40.5 159.5q2 24 1 32q-14 -35 -44 -64t-64 -40q-15 -5 -34 -5q-53 0 -83 40q-22 32 -19 75q4 38 24 74q28 49 76.5 73t96.5 20t89 -33
t56 -77zM276 354q-1 4 -2.5 11t-1.5 10q-23 92 -91 92q-38 0 -58 -73q-21 -76 -4 -135q13 -47 46 -36q39 13 72 52.5t39 78.5z" />
    <glyph glyph-name="colon" unicode=":" horiz-adv-x="385" 
d="M159 110q5 -20 -10 -25q-14 -3 -19 16q-3 9 0.5 16t9.5 9q6 3 11.5 -2t7.5 -14zM159 238q5 -20 -10 -25q-14 -3 -19 16q-3 9 0.5 16t9.5 9q6 3 11.5 -2t7.5 -14z" />
    <glyph glyph-name="semicolon" unicode=";" horiz-adv-x="312" 
d="M32 -69l1 -5q1 -12 27 12q52 49 70 122q12 48 2 93l-18 3q-2 -53 -30 -138.5t-52 -86.5zM151 234q2 -22 -15 -24q-14 0 -16 20q-1 9 3.5 15.5t11.5 7.5t11 -4.5t5 -14.5z" />
    <glyph glyph-name="less" unicode="&#x3c;" horiz-adv-x="286" 
d="M90 218q11 -5 132 -79v-13l-36 20q-37 20 -75.5 40.5t-46.5 24.5v15q28 15 84.5 52.5t73.5 47.5v-13q-8 -6 -35.5 -26.5t-53 -39t-43.5 -29.5z" />
    <glyph glyph-name="equal" unicode="=" horiz-adv-x="378" 
d="M314 201v-12h-250v12h250zM314 345v-12h-250v12h250z" />
    <glyph glyph-name="greater" unicode="&#x3e;" horiz-adv-x="286" 
d="M190 218q-22 13 -68.5 50t-57.5 45v13q17 -10 73.5 -47.5t84.5 -52.5v-15q-11 -5 -84 -45t-74 -40v13q18 11 48 30t51 32.5t27 16.5z" />
    <glyph glyph-name="question" unicode="?" horiz-adv-x="596" 
d="M180 153q-6 93 19 146.5t89 108.5q61 52 90 137q34 96 -12 137q-36 31 -113 16q-18 -3 -37.5 -12.5t-43 -28t-40.5 -54t-21 -81.5l-10 1q-2 52 19.5 93.5t56.5 64.5t79 32t86.5 1.5t80.5 -32t59 -63.5q50 -104 -83 -217q-34 -29 -75 -59.5t-56.5 -44.5t-38.5 -49t-49 -96
zM134 22q0 18 11.5 29t28.5 11q16 0 28 -11.5t12 -28.5q0 -16 -12.5 -28t-27.5 -12q-16 0 -28 12t-12 28z" />
    <glyph glyph-name="at" unicode="@" horiz-adv-x="911" 
d="M578 603q59 3 111 -24.5t82.5 -74.5t38 -108t-22.5 -127q-32 -74 -79 -121.5t-79.5 -60.5t-47.5 -7q-38 17 -28 123q-39 -89 -83 -121q-25 -20 -44 -20q-92 0 -105 81q-13 75 40 166t127 116q60 21 114 -14q37 -25 37 -136v-14h-13v14q0 106 -31 125q-23 16 -64 -4
q-16 -7 -43.5 -53.5t-49.5 -101t-31.5 -103t11.5 -60.5q17 -9 42 12q36 28 64.5 84.5t41.5 114.5q0 4 2 12t2 11l12 -4q-12 -207 9 -216q5 -2 17.5 0.5t32.5 14t41.5 31t47 56.5t47.5 84q32 81 15.5 152.5t-77.5 118t-137 41.5q-106 -6 -190.5 -83t-132.5 -192
q-50 -121 -44 -235q5 -76 45.5 -122.5t99.5 -57.5t124.5 -2t126 38.5t100.5 69.5l10 -11q-40 -41 -112.5 -71.5t-154.5 -40t-158 2t-129 61t-61 131.5q-9 100 26.5 195.5t101.5 165.5t158 114.5t190 49.5z" />
    <glyph glyph-name="A" unicode="A" horiz-adv-x="1273" 
d="M774 325l-27 -71q-32 -83 -50 -127t-50 -109.5t-68.5 -114t-80.5 -86.5q-51 -46 -136 -88t-165 -51q-98 -9 -157 39q-47 38 -38 93q6 42 55.5 80t95.5 48q66 19 165.5 8t160.5 -51l-7 -12q-61 39 -157.5 50t-159.5 -8q-45 -11 -88.5 -46t-52.5 -73q-8 -44 36 -79
q57 -43 146 -35q57 6 108 34t93 76t75 97.5t64 118t50 116t43 111.5q11 31 17 46l37 94q-38 24 -68 38.5t-64.5 24t-68 7.5t-67.5 -17q7 -38 -20 -51q-31 -15 -42 5q-13 20 30 45l17 9q-12 37 -72 21q-46 -10 -84.5 -40t-37.5 -60h-14q-1 34 42 68.5t92 44.5q34 7 57 -0.5
t30 -28.5q35 15 69 17.5t69 -7.5t66 -25t71 -39q60 148 184 242t298 131l13 3q13 -25 -19.5 -228t-68.5 -365q60 -23 97.5 -9.5t80.5 67.5v-21q-82 -92 -181 -51q-6 -30 -16.5 -67.5t-18 -63t-13 -52t-4 -45.5t11.5 -32q15 -20 42 -20l-2 -13q-41 6 -67.5 33.5t-37.5 63.5
t-13.5 82t1 81.5t9.5 70.5q-100 48 -210 121zM987 218q69 286 175 536q-77 -18 -137 -56.5t-105 -97.5t-76 -118t-65 -144q143 -91 208 -120zM403 432l-13 -6q-31 -19 -25 -28q4 -8 25 2q17 8 13 32z" />
    <glyph glyph-name="B" unicode="B" horiz-adv-x="791" 
d="M671 497q-8 -9 -23 -19.5t-27 -17t-31.5 -16.5t-26.5 -14q81 -39 106 -124t-16 -174t-137 -137q-46 -21 -93 -18.5t-81 26.5q-67 48 -43 142q12 45 43 80t70 46l5 -12q-36 -11 -65 -43.5t-40 -73.5q-20 -77 28 -122q62 -56 138 12q67 59 99 167q37 125 -9 200
q-9 14 -21 25q-20 -10 -47 -18t-53.5 -10.5t-45 6t-17.5 29.5q0 24 20 32.5t48.5 3.5t53 -13t40.5 -16q26 11 53 69t34 116t-15 93q-39 40 -92.5 25.5t-95.5 -72.5q-32 -47 -53 -110t-39.5 -140.5t-29.5 -111.5q-21 -66 -66 -143.5t-102 -145.5t-124 -105.5t-122 -20.5l4 12
q124 -39 228 217q26 64 69 199q7 20 27 86.5t31.5 100t34.5 82t49 81.5q40 53 113 74t138 10.5t96 -40.5q34 -34 36.5 -80t-13 -79.5t-36.5 -57.5zM532 430q-18 8 -39 14t-43.5 10t-37.5 -1.5t-16 -20.5q0 -14 14.5 -20t36.5 -3.5t44 8.5t41 13z" />
    <glyph glyph-name="C" unicode="C" horiz-adv-x="644" 
d="M259 -7q106 -6 189.5 50t195.5 195v-21q-109 -133 -192.5 -187.5t-194.5 -49.5q-99 4 -170 78.5t-83 167.5q-10 82 13 174.5t75 175.5q53 85 144 139.5t186 34.5q63 -12 103.5 -53t41.5 -98q29 17 76 36l9 -9q-62 -28 -85 -42q-2 -25 -10 -47q-9 -26 -24 -43t-31 -9
q-13 6 -13 20t7.5 27t18.5 25q15 17 39 33q1 55 -37.5 95.5t-100.5 52.5q-92 19 -180 -104q-85 -118 -116 -285q-35 -183 23 -282q40 -66 116 -74zM522 546q-35 -40 -14 -50q9 -4 19.5 12t18.5 34q5 14 7 32q-20 -15 -31 -28z" />
    <glyph glyph-name="D" unicode="D" horiz-adv-x="889" 
d="M452 306l1 -11q-66 -29 -119 -37q-47 -139 -144.5 -243.5t-189.5 -112.5l4 10q36 3 68 29.5t59 77t48 104.5t45 130q-50 -2 -89 15t-60.5 45.5t-35.5 65t-13.5 73.5t5.5 71q22 105 123 167q80 51 183 63q39 8 77 6q38 53 91 81t95 30l3 -11q-17 -3 -48.5 -37.5
t-48.5 -63.5q92 -9 162.5 -65.5t104 -145.5t22.5 -190q-11 -108 -75.5 -203.5t-165.5 -135.5q-137 -56 -266 10l10 9q79 -38 146 -20.5t117.5 74t82 127.5t40.5 140q13 112 5 196t-55.5 135.5t-133.5 57.5q-25 -47 -51 -122t-59 -186t-53 -171q57 10 115 38zM406 747
q-40 0 -70 -5q-102 -16 -178.5 -74.5t-95.5 -150.5q-24 -114 23.5 -182.5t142.5 -69.5q8 27 31 103.5t35 114t32 95t39.5 98t40.5 71.5z" />
    <glyph glyph-name="E" unicode="E" horiz-adv-x="554" 
d="M348 37q88 52 206 201v-21q-114 -139 -197 -191q-111 -66 -229 -36q-65 17 -96.5 60t-30.5 102q1 83 55 164.5t130 110.5q-44 22 -79 65q-24 36 -18.5 86.5t33.5 95.5q32 51 84.5 75t103 19t93 -36t57.5 -82q42 23 78 36l9 -9q-66 -30 -85 -42q4 -21 -4 -48
q-8 -24 -26 -41.5t-35 -9.5q-13 6 -13 20.5t7.5 27.5t18.5 25q13 14 38 32q-9 33 -29 59q-59 75 -134 37q-60 -30 -92 -110q-39 -98 1 -177q3 -8 8 -15q34 16 67 21.5t61 -5.5q15 -9 17.5 -27.5t-16.5 -25.5q-42 -15 -130 23q-35 -22 -61 -99t-28 -161q-2 -57 19 -95
t55.5 -52t77.5 -8t84 31zM218 428q79 -30 109 -18q10 4 7.5 14.5t-11.5 15.5q-29 16 -105 -12zM418 598q-8 -8 -13.5 -17.5t-8 -19.5t6.5 -13q10 -4 23.5 11t19.5 32q7 26 4 36q-20 -15 -32 -29z" />
    <glyph glyph-name="F" unicode="F" horiz-adv-x="732" 
d="M360 19q-37 -57 -86 -83.5t-139 -23.5q74 4 135 122q37 63 102 322q-15 15 -28 38l10 9q7 -14 22 -30q2 7 9.5 36t9.5 37t8.5 31t10.5 33.5t10.5 28.5t13.5 32.5t15 28.5q41 71 82 98l-36 4q-6 1 -132 21.5t-185 16.5q-130 -11 -164 -152q-16 -56 15 -113t88 -56v-13
q-67 1 -100 62t-15 125q39 149 174 159q45 3 103 -3.5t126.5 -18.5t102.5 -16l36 -4q17 16 77.5 40t92.5 34q35 12 51 -19q15 -28 -6 -51q-11 -12 -31 -16q-35 -6 -99 -2q-37 -25 -72 -93q-29 -64 -89 -281q62 -44 127 -18q9 32 18 47q12 24 30.5 38.5t32.5 0.5
q12 -16 2.5 -35.5t-31.5 -35.5q-17 -12 -41 -25q-8 -35 -10 -94l-13 6q1 29 9 83q-66 -24 -128 17q-62 -222 -108 -287zM645 709q58 -4 86 2q30 7 29 31q-1 19 -19 22q-10 2 -21 -4q-42 -21 -75 -51zM630 350q-2 -3 -16 -40q17 9 29 18q14 10 25 27t4 24q-14 15 -42 -29z
" />
    <glyph glyph-name="G" unicode="G" horiz-adv-x="714" 
d="M460 117l57 193l73 -4q-7 -120 -28 -195q-33 -120 -87 -238t-120 -191q109 -37 243 -136l-10 -8q-121 94 -243 134q-105 -103 -248 -83q-33 4 -57.5 32.5t-5.5 57.5q19 28 114.5 35.5t129.5 -4.5q42 42 78 115t49.5 114.5t43.5 139.5q-108 -112 -225 -97q-94 13 -151 80
t-68.5 156.5t11 187t74.5 172.5q60 87 147 139.5t177 33.5q83 -17 123 -77.5t16 -135.5q-9 -26 -25.5 -43.5t-33.5 -9.5l7 12q9 -5 21 12t17 33q20 71 -19 127t-112 71q-44 8 -90.5 -29.5t-108.5 -133.5q-50 -77 -83 -171t-41 -182t29 -152.5t119 -76.5q117 -9 224 113z
M43 -330q-11 -18 10.5 -42t50.5 -24q31 0 81 32t82 64q-35 10 -122.5 1.5t-101.5 -31.5z" />
    <glyph glyph-name="H" unicode="H" horiz-adv-x="989" 
d="M371 390q-75 17 -108 42l4 14q37 -28 107 -44q29 108 79 198q41 71 82 98l-36 4q-6 1 -132 21.5t-185 16.5q-130 -11 -164 -152q-16 -56 15 -113t88 -56v-13q-67 1 -100 62t-15 125q39 149 174 159q45 3 103 -3.5t126.5 -18.5t102.5 -16q12 -2 36 -4q7 7 25.5 15.5
t42 16.5t42.5 14t39 12t21 6q35 12 51 -15q15 -25 -6 -46q-11 -11 -31 -15q-35 -6 -99 -2q-37 -25 -72 -93q-31 -65 -75 -228q139 -22 242 4q32 108 96 226t129 141q23 12 63 6.5t60 -28.5q38 -56 -36 -168q-80 -123 -202 -177q-17 -56 -31.5 -115.5t-30 -148.5t-6.5 -152.5
t46 -79.5q-45 8 -74.5 39.5t-40 78t-13 95t5 104t14 91.5t15.5 70q0 2 1 4q-102 -24 -241 -3q-25 -95 -38 -139t-37 -107.5t-48 -96.5q-72 -110 -159 -117l4 10q25 31 45 69t38 94t27.5 91t28.5 114t27 110zM1030 565q14 22 21.5 35t17 35.5t9 42t-11.5 36.5q-18 28 -43 19
q-92 -38 -180 -338q117 59 187 170zM645 709q58 -4 86 2q30 7 29 31q-1 19 -19 22q-10 2 -21 -4q-42 -21 -75 -51z" />
    <glyph glyph-name="I" unicode="I" horiz-adv-x="622" 
d="M16 26q-14 18 -15.5 43.5t21.5 68.5l12 -7q-39 -58 -7 -97q24 -32 70 -41t85 8q41 17 73 46t52 60.5t37.5 77t26.5 80.5t22 86.5t22 80.5q36 117 102 248q-66 -20 -179 -40q-12 -2 -46 -7.5t-50 -9t-47.5 -10.5t-48 -14.5t-40.5 -20t-36.5 -28t-24.5 -36t-15.5 -47.5
t-0.5 -59q6 -59 54.5 -102t101.5 -22l5 -13q-63 -21 -115.5 25t-58.5 112q-3 30 1 56t11 46t22 37t28 28.5t36.5 22t39.5 16.5t45 13t44.5 10t47 8.5t44.5 7.5q130 24 188 43q27 49 96 85t90 9q22 -29 -10 -56t-88 -48q-18 -34 -30.5 -75.5t-25.5 -95.5t-23 -86
q-4 -14 -19 -63.5t-20.5 -67.5t-21.5 -61.5t-27 -64t-30.5 -54t-39 -53t-47 -40t-58.5 -34.5q-32 -14 -82.5 -16.5t-99.5 11t-71 40.5zM619 703q42 18 68.5 38.5t13.5 37.5q-23 30 -74 -62l-3 -6q-4 -6 -5 -8z" />
    <glyph glyph-name="J" unicode="J" horiz-adv-x="714" 
d="M1 -148q0 57 19 114.5t49.5 100t69.5 72t80 31t81 -23.5q34 -23 16 -68q-12 -31 -44 -55t-59 -21l1 12q22 -2 50.5 20t39.5 49q14 34 -12 53q-44 34 -93 17.5t-90 -60t-68 -109.5t-27 -131q-1 -65 41 -115t102 -53q55 -3 105 38q33 27 61.5 74t47 93t35.5 111t25 105.5
t19 100t13 71.5q40 191 95 340q-35 -25 -135 -86.5t-149 -105.5q27 -59 11 -111q-10 -31 -30 -44.5t-37.5 -2t-21.5 44.5q-7 59 62 116q-14 23 -41 61l9 8q18 -19 41 -60q54 47 156.5 109.5t141.5 91.5q2 7 35.5 47t77.5 80.5t66 39.5q9 0 12 -8q8 -32 -27 -75.5t-75 -74.5
q-20 -52 -33 -115t-24 -141t-19 -117q-38 -189 -57 -256q-97 -327 -306 -347q-27 -2 -55 0q-66 5 -113 58.5t-46 121.5zM263 418q-61 -59 -54 -104q3 -27 16 -34t27 5t21 35q15 45 -10 98zM743 793q-33 -1 -83 -123q36 32 60 62q11 15 17.5 29.5t6.5 21t-1 10.5z" />
    <glyph glyph-name="K" unicode="K" horiz-adv-x="1002" 
d="M334 19q-35 -44 -105.5 -78.5t-122.5 -38.5l4 10q38 2 70.5 33t65.5 89q35 55 57 120.5t42 148t36 129.5q46 140 113 248q-67 -20 -180 -40q-12 -2 -40.5 -7t-44 -7.5t-42.5 -8.5t-42 -12t-37.5 -16t-35 -21t-27 -27t-21 -35t-10 -44t-0.5 -54q6 -59 55 -102t102 -22
l4 -13q-63 -21 -115 25t-58 112q-6 67 12.5 112t69 70t84 34t106.5 22q8 2 13 2.5t12 2t13 2.5q130 24 189 43q26 49 95 85t90 9q22 -29 -10 -56t-88 -48q-19 -31 -34.5 -67.5t-23.5 -61t-20.5 -69.5t-18.5 -66q-11 -34 -30.5 -103t-32 -109.5t-37.5 -95t-57 -95.5zM741 618
q30 54 113.5 105t147.5 54h1q9 20 31.5 35.5t42.5 17.5l2 -10q-34 -3 -63 -43q42 -1 48 -20q3 -11 -3.5 -21.5t-16.5 -14.5q-20 -9 -33 7q-15 19 -11 38q-21 -1 -41.5 -12.5t-33.5 -22.5t-31.5 -38t-25 -38t-25.5 -45q-56 -96 -125.5 -141t-179.5 -55q34 -29 71 -101.5
t46 -134.5q3 -19 5 -52t4.5 -51t10 -38t24 -27.5t42.5 -4.5q44 6 111 69q96 96 150 164v-21q-68 -84 -143 -155q-75 -64 -117 -70q-61 -5 -103.5 16.5t-62.5 57.5t-31.5 87t-13 96.5t-5 93.5t-10.5 71h-3l4 13q34 2 64 15t51 29t42.5 43.5t35 49t31.5 54.5zM596 703
q42 18 68.5 38.5t13.5 37.5q-4 5 -9 7t-10 0t-10 -5.5t-10.5 -10.5t-10 -13t-10 -15t-8.5 -14.5t-8 -13.5t-6 -11zM1012 766q-5 -15 8 -31q6 -9 18 -4q6 2 10.5 9.5t3.5 12.5q-3 13 -40 13z" />
    <glyph glyph-name="L" unicode="L" horiz-adv-x="901" 
d="M222 771l8 -12q-33 -56 -4.5 -98.5t102 -64t156.5 -12.5q40 91 111 136t155 37q22 0 33 -35q14 -40 -12.5 -76t-87.5 -59q-44 -15 -89 -18q-22 -54 -65.5 -197t-80.5 -217q36 -11 78.5 -43.5t73.5 -62t72 -49.5t80 -13q35 7 62 47l10 -9q-31 -46 -70 -51q-37 -4 -72 8
t-63.5 34.5t-54.5 46.5t-58.5 47t-63.5 33q-36 -67 -86.5 -108t-99 -53t-97 -10t-81.5 13t-52 25q-26 26 -26 59q0 49 47.5 81.5t98.5 45.5q86 19 192 -28q29 67 72 203.5t68 198.5q-78 -9 -154.5 15t-109.5 71.5t8 114.5zM202 189q-19 0 -53 -6q-48 -10 -91.5 -39.5
t-43.5 -74.5q0 -32 21 -50q35 -32 97 -27q126 13 201 163q-73 34 -131 34zM750 745q-41 7 -112 -94q-4 -6 -38 -69q49 7 80 18q53 20 78 52.5t14 65.5q-9 24 -22 27z" />
    <glyph glyph-name="M" unicode="M" horiz-adv-x="1139" 
d="M523 760l90 -10q-2 -12 16.5 -147t30.5 -261t-2 -225q36 98 105.5 223t141 241t96.5 169l85 -5q-11 -90 -46.5 -256.5t-40.5 -192.5q-4 -19 -12.5 -63t-12 -65.5t-9.5 -57.5t-6.5 -57t0 -47t5.5 -44t15 -32q24 -33 59 -36l-2 -12q-36 -1 -64.5 6.5t-48 19t-32.5 33.5
t-20 42t-8.5 53.5t-1 58.5t6.5 66t10.5 67.5t13.5 71.5q12 64 50 206.5t48 189.5q-15 -32 -84.5 -145t-142 -241t-103.5 -215l-12 -7q13 96 -8 322.5t-41 314.5q-22 -56 -42 -150.5t-38 -175.5t-46 -164.5t-79 -147.5t-125 -96q-41 -21 -133 -11.5t-120 46.5
q-14 18 -15.5 43.5t21.5 68.5l12 -7q-39 -58 -7 -97q24 -32 73.5 -41t87.5 8q48 20 83.5 54.5t57 84t34 91t27.5 105.5t25 96q4 14 27.5 95.5t40.5 132t34 84.5q-66 -20 -179 -40q-12 -2 -46 -7.5t-50 -9t-47.5 -10.5t-48 -14.5t-40.5 -20t-36.5 -28t-24.5 -36t-15.5 -47.5
t-0.5 -59q6 -59 54.5 -102t101.5 -22l5 -13q-63 -21 -115.5 25t-58.5 112q-3 30 1 56t11 46t22 37t28 28.5t36.5 22t39.5 16.5t45 13t44.5 10t47 8.5t44.5 7.5q130 24 188 43z" />
    <glyph glyph-name="N" unicode="N" horiz-adv-x="806" 
d="M223 368q27 86 47 141.5t58.5 128.5t83.5 122q-8 -42 9 -194q14 -127 35 -257q4 -32 30 -149t35 -130q3 29 11.5 78t25.5 131t43.5 162.5t59.5 158t81 134.5t101 75q46 20 101.5 13t87.5 -48q9 -11 13.5 -26t0.5 -38.5t-20 -47.5l-12 7q40 57 8 97q-64 80 -153 -18
q-52 -57 -100 -154t-79 -187t-71 -201.5t-70 -175.5h-23q-28 16 -83 317q-24 143 -36 259q-12 113 -9 159q-16 -169 -67 -366q-31 -122 -97.5 -241t-151.5 -183q-40 -30 -82 -33l4 10q26 7 52 37t44.5 65.5t40 91.5t32.5 93t28 95t22 74z" />
    <glyph glyph-name="O" unicode="O" horiz-adv-x="660" 
d="M308 566l-5 12q16 49 53.5 78t62.5 34q50 8 84.5 -5t52.5 -43.5t25.5 -65.5t8.5 -81q4 -139 -60 -263q-41 -80 -97 -135q-51 -53 -112 -83q-99 -49 -172 -12q-66 32 -102.5 89.5t-43 122t4.5 136t33.5 131.5t51.5 108q58 99 152 144.5t207 24.5q0 -1 -0.5 -2l-2 -4
t-1.5 -4l-1 -2q-41 7 -84 -8q-42 -17 -80.5 -58t-67 -94.5t-47.5 -98.5t-33 -91q-42 -145 -47 -213q-9 -133 69 -171q67 -32 159 14q66 36 108 80q57 59 94 131q62 124 59 258q-2 46 -8 77t-21.5 59.5t-47 40t-79.5 5.5q-24 -3 -56.5 -29t-56.5 -82z" />
    <glyph glyph-name="P" unicode="P" horiz-adv-x="546" 
d="M-47 -98l4 10q40 23 67 90.5t44.5 157t35 183t49 187t74.5 150.5q97 125 228 97q54 -11 99 -53q51 -51 58.5 -120t-18.5 -127t-72.5 -100t-95.5 -46q-52 -4 -103 13.5t-62 51.5l13 1q18 -39 75 -50q65 -12 120 86q50 92 54 199q4 105 -48 123q-6 2 -12 3q-37 4 -76 -18.5
t-66 -60.5q-40 -72 -66 -162t-37 -162t-36 -161.5t-64 -161.5q-73 -123 -165 -130z" />
    <glyph glyph-name="Q" unicode="Q" horiz-adv-x="645" 
d="M279 3h1q50 -17 91.5 -50t64.5 -60t47.5 -47.5t52.5 -16.5t67 38l8 -10q-54 -43 -104 -52.5t-85.5 7.5t-67 46.5t-50.5 60.5t-34.5 54t-20.5 24q-33 3 -75 -19.5t-75 -58.5l-12 12q42 41 88 62q-100 13 -144.5 110.5t-26 231.5t90.5 257q120 204 349 169q0 -1 -0.5 -2
l-2 -4t-1.5 -5l-1 -1q-41 7 -84 -8q-42 -17 -80.5 -58t-67 -94.5t-47.5 -98.5t-33 -91q-42 -145 -47 -213q-9 -133 69 -171q67 -33 159 15q62 30 108 79q57 59 94 131q33 69 47 128q15 56 11 130q-1 46 -7 77t-21.5 59.5t-47 40t-79.5 5.5q-14 -2 -31 -10.5t-41.5 -35
t-40.5 -66.5l-5 13q16 50 54 79t62 33q50 8 84.5 -5t52.5 -43.5t25.5 -65t8.5 -81.5q2 -78 -12 -132q-15 -68 -48 -131q-41 -80 -97 -135q-51 -54 -112 -83q-19 -10 -34 -14z" />
    <glyph glyph-name="R" unicode="R" horiz-adv-x="806" 
d="M234 32l-7 -13q-30 -46 -101.5 -79.5t-125.5 -37.5l3 10q73 4 136 122q28 66 49.5 162t34 171.5t43 163t78.5 149.5q39 53 107 74t128.5 10.5t91.5 -40.5q59 -51 77 -118t-1 -123.5t-68.5 -99t-116.5 -49.5q39 -30 62 -73t29 -87.5t8 -92t-1 -88t1.5 -73.5t16.5 -51
t42.5 -18t81.5 23l4 -12q-56 -17 -94 -17q-45 0 -78 22q-42 31 -61 95t-18.5 126.5t-0.5 135t-11 107.5h-1q-23 -3 -50.5 0t-51 8.5t-35.5 20t-3 34.5q12 26 34.5 29.5t46 -10.5t42.5 -32t30 -34q12 2 36.5 46.5t45.5 104.5t27.5 122t-17.5 101q-13 21 -50 28.5t-83.5 -10
t-75.5 -60.5q-40 -72 -66 -162t-37 -162t-36.5 -161.5t-64.5 -161.5zM415 389q-10 -24 30.5 -36t92.5 -9q-11 20 -35.5 41t-49.5 26.5t-38 -22.5z" />
    <glyph glyph-name="S" unicode="S" horiz-adv-x="577" 
d="M108 586q11 99 95 145.5t179 18.5q38 -12 63.5 -39.5t33.5 -60.5l3 1q37 21 75 35l9 -9q-65 -29 -84 -42q3 -20 -4 -48q-9 -25 -27 -42t-35 -9q-13 6 -13 20.5t8 27.5t19 25q10 12 36 32q-5 33 -29 59t-60 38q-86 28 -127.5 -49.5t-27 -173t65.5 -111.5q62 -30 96 -86
t32 -113t-27 -111q-46 -87 -135 -104q-133 -26 -201.5 47t-52 167.5t94.5 123.5l7 -16q-40 -14 -63.5 -50.5t-22.5 -80.5t17 -85.5t56 -69t94 -27.5q32 0 65 55.5t51 124.5t14 134t-39 82q-5 2 -28.5 12.5t-38.5 18t-38 24t-35.5 33.5t-21 44.5t-4.5 58.5zM437 598
q-8 -8 -13.5 -17.5t-8 -19.5t6.5 -13q10 -4 23.5 11t19.5 32q6 24 4 36q-18 -12 -32 -29z" />
    <glyph glyph-name="T" unicode="T" horiz-adv-x="555" 
d="M501 699q-32 3 -127 22.5t-152 15.5q-34 -3 -64 -35.5t-46.5 -77t-23.5 -89.5t1.5 -78.5t31.5 -37.5v-13q-67 1 -100 62t-15 125q39 149 174 159q45 3 103 -3.5t126.5 -18.5t102.5 -16q98 -12 157.5 -3t85.5 21.5t27 24.5l14 -2q-2 -13 -23 -27t-76.5 -24.5t-134.5 -8.5
q-35 -57 -67.5 -156.5t-54.5 -189.5t-54 -185t-66 -145q-32 -49 -86 -81t-103 -36l4 10q50 32 85 93t52.5 130t37.5 150.5t39 154.5t58 143.5t94 115.5z" />
    <glyph glyph-name="U" unicode="U" horiz-adv-x="690" 
d="M51 802q-12 -4 -19 -13q-25 -30 -18 -45q6 -13 22 3q5 6 10 14q12 19 5 41zM22 796q7 8 24 18q-10 17 -28 20l6 8q7 0 17.5 -8t15.5 -16q8 4 25 4q26 0 48 -9q59 -25 92.5 -67t41 -92.5t0.5 -108.5t-27 -117t-43 -117t-45.5 -109t-37 -91t-14.5 -67t19 -33q63 -21 135 26
q60 41 118 124q43 63 93 180l39 83q7 15 50.5 118.5t67.5 151.5l83 -5q-117 -348 -176 -509q-27 -76 -40 -138.5t-12.5 -103.5t10.5 -71t26 -45.5t36 -23t38.5 -7.5t35.5 6l6 -9q-21 -8 -56 -5.5t-77.5 20.5t-69.5 62.5t-32.5 121t33.5 194.5q8 22 18.5 57l13.5 45
q-33 -67 -77 -131q-60 -85 -120 -125q-75 -52 -148 -28q-80 29 -75 163q1 41 15 92t23.5 75.5t39.5 97.5q3 7 14.5 34t17.5 43t17 46t15.5 51t10 49t3 48.5t-8.5 41.5t-20.5 36t-36.5 25q-19 8 -44 8q-10 0 -20 -3q13 -25 -6 -56q-25 -33 -45 -22q-19 10 -7 39q5 15 18 29z
" />
    <glyph glyph-name="V" unicode="V" horiz-adv-x="770" 
d="M508 775l2 3l12 -2q20 -125 12.5 -253t-22 -291t-11.5 -210q45 166 114 290t192 291q70 92 148 185l10 -10q-196 -233 -337 -487q-90 -157 -123 -307l-13 2q-153 483 -1 760q-33 -23 -87.5 -36t-107 -17t-108 -15t-95.5 -28t-62.5 -58t-16.5 -104q6 -59 54.5 -102
t101.5 -22l4 -13q-63 -21 -114.5 25t-57.5 112q-9 67 17 111.5t73 62.5t108.5 30t119.5 17t111 21.5t77 44.5z" />
    <glyph glyph-name="W" unicode="W" horiz-adv-x="1148" 
d="M511 778l12 -2q-4 -61 -4.5 -148.5t-3.5 -137.5q-2 -28 -7 -116t-7.5 -135t-3 -111.5t4.5 -105.5q41 209 133.5 366.5t257.5 335.5l9 -10q27 -149 21.5 -309.5t-44.5 -382.5q45 169 100 284q15 32 32 62t43 67t36.5 52.5t46 63t39.5 52.5q30 39 75 89t58 65l9 -10
q-173 -208 -311 -456q-91 -162 -123 -307l-13 2q-145 333 13 706q-151 -194 -239.5 -352.5t-137.5 -355.5l-13 2q-9 38 -30.5 110t-35 121.5t-23.5 123.5t-4.5 135.5t32 137.5t77.5 148q-35 -33 -104 -49t-136 -22.5t-129.5 -21t-97.5 -58.5t-27 -121q6 -58 54.5 -101
t101.5 -23l5 -12q-63 -22 -115.5 24t-58.5 112q-8 59 10.5 99.5t55.5 61.5t84.5 33t101.5 19t102.5 13.5t90.5 21.5t63 40z" />
    <glyph glyph-name="X" unicode="X" horiz-adv-x="731" 
d="M438 209q-8 35 -22 107q-45 -111 -90 -179q-57 -89 -86 -118q-6 -6 -12 -11q-48 -42 -111 -42q-37 1 -62.5 22t-54.5 62l11 7q61 -85 123 -77q48 8 79 33q36 28 101 129q51 80 97 197q-2 11 -6.5 36.5t-7.5 38.5q-30 159 -42 203q-1 5 -6.5 28t-9 35t-10.5 30t-16.5 28
t-20.5 14q-36 12 -83 -49q21 -58 13 -83q-9 -31 -30 -35t-28 20q-13 40 29 99l-9 14l10 8l7 -11q27 39 79.5 53.5t104 -12.5t67.5 -96q15 -61 43 -204l10 -57q35 86 64.5 141t81.5 117q38 46 129 81l5 -11q-2 -1 -13 -5.5t-14 -6t-13 -6t-13.5 -6.5t-12 -6.5t-13 -7.5
t-12 -8.5t-12.5 -10t-11 -10.5t-11 -13q-50 -60 -79.5 -114.5t-64.5 -140.5l-6 -16q15 -79 26 -125q10 -44 25 -118q14 -65 20.5 -92t18 -55.5t25.5 -34.5t35 -1l4 -12q-63 -15 -127.5 55t-98.5 216zM199 690q-32 -52 -23 -80q7 -21 21 -9q9 7 13 23q7 32 -11 66z" />
    <glyph glyph-name="Y" unicode="Y" horiz-adv-x="662" 
d="M198 -293q18 44 47 89q18 27 48 64q16 21 54 63q11 13 27.5 29.5l22.5 22.5q1 9 1.5 20.5t0.5 22.5v22.5v22t-0.5 20.5t-0.5 18t-0.5 13.5t-0.5 8.5v3q-10 -16 -46 -51q-29 -29 -60 -49q-37 -24 -76 -29t-69 11q-51 28 -81.5 63t-41 70t-5 77t19.5 78.5t40.5 81.5
t49.5 78t54 75q36 49 52 73t34 57.5t16.5 53t-18.5 31.5q-39 27 -136 -52q12 -55 -1 -118t-51 -88q-23 -16 -49.5 -6.5t-27.5 35.5q-2 32 31 85t82 97q-13 36 -48 83l8 7q37 -47 51 -82q100 83 150 48q25 -17 32.5 -47.5t3 -60t-22 -72t-30 -67.5t-33.5 -62q-7 -12 -10 -18
q-5 -10 -27.5 -50t-28.5 -51.5t-21.5 -44.5t-20 -52.5t-10 -48.5t-5.5 -58q0 -77 49 -103q58 -30 135 18q25 16 47 38.5t37.5 42.5t33.5 51.5t27.5 50.5t27.5 57t26 55l45 96q1 2 16.5 41t30.5 76.5t17 40.5l12 -5q-57 -154 -87 -286t-25 -262q60 64 168 204v-21
q-130 -162 -168 -203q10 -33 8 -84.5t-9 -109t-28.5 -114.5t-49 -101.5t-71.5 -70t-96 -20.5q-31 4 -48 26.5t-19 53.5t2.5 60.5t14.5 52.5zM397 -44q-7 -8 -19 -20.5t-20 -21.5q-22 -22 -54 -61q-30 -37 -49 -65q-34 -56 -45 -85q-8 -20 -12.5 -46.5t-4 -54.5t14 -49
t38.5 -25q32 -5 59 13t43.5 51t26.5 64.5t15 64.5q9 28 8 127.5t-1 107.5zM118 684q-45 -42 -75.5 -89.5t-28.5 -77.5q1 -20 22.5 -24.5t33.5 5.5q35 26 45.5 81.5t2.5 104.5z" />
    <glyph glyph-name="Z" unicode="Z" horiz-adv-x="821" 
d="M177 107q-63 13 -98 4q-29 -6 -45.5 -22t-19.5 -34q-4 -21 15 -36q58 -43 148 88zM599 138q37 0 62.5 -16t30.5 -40q6 -25 -10.5 -49.5t-50.5 -38.5q-33 -9 -58 -8.5t-65 13t-71.5 26t-77 31t-82.5 26.5q-26 -43 -65 -67t-76.5 -27t-68.5 2.5t-48 17.5q-24 16 -17 50
q3 21 22 40t53 25q37 10 106 -6q20 33 97.5 168t134.5 224t110 155q-31 8 -69.5 20.5t-67.5 23t-62.5 20t-59.5 14.5t-52.5 4.5t-47.5 -8.5q-63 -25 -53 -61q6 -22 34 -36t64 -9l2 -13q-8 -1 -19 -1q-37 0 -62.5 16.5t-31.5 39.5q-5 25 11 50t50 39q34 9 60.5 8.5t69 -13.5
t76 -26.5t81.5 -31t85 -26.5q24 28 67 53t90.5 34.5t82.5 -13.5q25 -17 17 -50q-3 -21 -21.5 -39.5t-52.5 -25.5q-35 -9 -102 6q-75 -104 -193.5 -309t-138.5 -237q31 -8 68.5 -20.5t65 -22t59 -18.5t56 -13.5t50 -3.5t46.5 9q32 13 44.5 25t7.5 31q-5 22 -33 36t-65 9
l-1 12q7 1 19 1zM713 645q56 12 66 57q3 24 -12 36q-44 32 -142 -84q-1 -1 -1.5 -2t-1.5 -2q58 -13 91 -5z" />
    <glyph glyph-name="bracketleft" unicode="[" horiz-adv-x="359" 
d="M239 -280v-14h-199v1192h199v-13h-116v-1165h116z" />
    <glyph glyph-name="backslash" unicode="\" horiz-adv-x="374" 
d="M77 524l137 -611l-14 -7l-136 612z" />
    <glyph glyph-name="bracketright" unicode="]" horiz-adv-x="296" 
d="M62 885v13h199v-1192h-199v14h116v1165h-116z" />
    <glyph glyph-name="asciicircum" unicode="^" horiz-adv-x="274" 
d="M139 398q-9 -26 -57 -102h-18q22 24 68 115h16q22 -26 34 -46.5t18.5 -41.5t9.5 -27h-13q-52 52 -58 102z" />
    <glyph glyph-name="underscore" unicode="_" horiz-adv-x="494" 
d="M334 12v-12h-302v12h302z" />
    <glyph glyph-name="grave" unicode="`" horiz-adv-x="179" 
d="M129 447q-1 0 -26.5 -0.5t-28.5 -0.5q-1 2 -13 50t-15 54l12 1q6 -6 39 -53t32 -51z" />
    <glyph glyph-name="a" unicode="a" horiz-adv-x="446" 
d="M254 39q35 25 89.5 81t102.5 118v-21q-48 -59 -99 -111t-86 -78q-18 -13 -32.5 -13.5t-20.5 5.5t-9 14q-13 33 -8 102q-36 -87 -81 -122q-18 -14 -61.5 -19.5t-66.5 6.5q-19 11 -29 40.5t-6 65.5q11 87 53.5 146.5t96.5 82.5q42 20 91.5 21t82.5 -19q36 -23 36 -133v-15
h-13v15q0 101 -31 122q-28 22 -89 -3q-87 -37 -121 -220q-15 -78 6 -91q15 -10 42 11q35 27 62.5 82t39.5 112l5 23l38 -3q9 0 10.5 -17t-2 -43.5t-8 -53.5t-8 -51.5t-2.5 -32.5q4 -14 18 -1z" />
    <glyph glyph-name="b" unicode="b" horiz-adv-x="516" 
d="M58 46q43 190 111 252q21 19 53.5 23t55.5 -8q41 -21 57 -63q22 -57 13 -116t-42 -107q29 15 90.5 76.5t119.5 134.5v-21q-57 -71 -117 -130t-90 -73q-123 -58 -194 41l-5 9l11 8q36 -61 77 -63q20 -4 38 69q24 99 11 174q-12 70 -57 46q-34 -19 -63.5 -82t-42 -113
t-18.5 -89v-15h-33v15q-36 82 -43 174.5t26 198.5q-47 -29 -71 -32q-46 -6 -74 12t-32 46.5t10 60.5t42 53q57 43 119 15l-5 -12q-56 25 -106 -14q-33 -24 -43 -62.5t13 -66t74 -19.5q30 4 82 42q30 88 97.5 157.5t135.5 69.5q24 0 24 -23q0 -27 -44 -79t-100 -93
q-90 -273 -80 -396zM257 624q-17 0 -53 -54q-31 -46 -57 -104q52 42 87.5 85t34.5 63q0 10 -12 10z" />
    <glyph glyph-name="c" unicode="c" horiz-adv-x="364" 
d="M154 27q29 15 91 77t119 134v-21q-58 -71 -117.5 -129.5t-89.5 -73.5q-107 -53 -161 15q-43 55 -29 148q16 102 87 157q65 51 156 36q20 -3 35 -15.5t18 -26.5l-13 -2q-7 24 -38 31q-18 5 -39 -3q-53 -20 -86 -117.5t-27 -173.5q3 -45 31.5 -52t62.5 16z" />
    <glyph glyph-name="d" unicode="d" horiz-adv-x="506" 
d="M371 584l23 -6q59 -35 -16 -250q-13 -39 -43 -115q-55 -144 -51 -169q3 -30 65 24q77 66 157 170v-21q-68 -85 -150 -159q-31 -29 -56 -45t-44 -20t-31 7.5t-15 38.5q-2 17 0 40q-32 -45 -68 -68q-49 -27 -91 -14.5t-69.5 51t-23.5 79.5q1 51 28 95.5t67 70.5t82 38.5
t78 3.5t51 -39q3 11 14.5 48t16.5 51.5t15.5 46t18 50.5t19 44.5t23.5 47.5zM118 14q54 28 95 93q2 17 5 34t8.5 36.5t8.5 30.5t11.5 34.5t10.5 31.5q-14 61 -81 54q-46 -11 -83 -112q-35 -97 -26 -166q8 -59 51 -36z" />
    <glyph glyph-name="e" unicode="e" horiz-adv-x="370" 
d="M-57 121q3 61 66 140.5t125 100.5q19 5 36.5 0.5t24.5 -13.5q23 -31 -8 -82q-43 -72 -135 -151q-2 -51 10 -77t32 -28t47 10.5t51 31t48 41.5q88 86 130 144v-21q-13 -17 -33.5 -39.5t-47 -51t-40.5 -44.5q-56 -64 -130.5 -84.5t-127 12.5t-48.5 111zM148 350
q-28 -10 -57 -66q-29 -54 -39 -150q82 73 124 141q10 16 13 35t-5 31q-11 16 -36 9z" />
    <glyph glyph-name="f" unicode="f" horiz-adv-x="420" 
d="M32 -574q-67 33 -103.5 115.5t-14.5 178.5q17 75 56.5 212t44.5 156q-10 0 -25.5 -0.5t-28.5 5t-11 15.5q5 26 32 27q18 1 40 -21q6 24 60 212q-3 -3 -37 -49t-45 -60v21q16 20 51 68t38 52q18 68 30 103q95 298 256 333q21 3 37 -10q27 -19 30 -53q2 -15 -0.5 -31
t-11.5 -36t-16 -35.5t-25 -40t-27.5 -38t-33.5 -42t-33.5 -40t-37 -43t-34.5 -39.5l-31 -35q-11 -38 -35.5 -127t-33.5 -121q69 -33 148.5 5t148.5 130v-21q-69 -88 -150.5 -123t-147.5 -4q27 -51 44.5 -178.5t10.5 -226.5q-10 -134 -27 -183q-21 -56 -59 -73
q-32 -15 -59 -3zM115 74q-97 -346 -99 -356q-35 -135 -24 -200q13 -63 45 -79q21 -10 47 1q30 14 47.5 58t21.5 73t9 96q1 13 2 20q7 93 -8 211t-41 176zM380 780h-2q-28 -6 -54 -46q-64 -101 -127 -356q1 1 12 13q119 137 151 180q73 101 68 159q-2 20 -15.5 35.5
t-32.5 14.5zM14 101q-8 12 -25 18.5t-25 -8.5q-2 -5 3.5 -7.5t15 -3t17.5 -0.5t14 1z" />
    <glyph glyph-name="g" unicode="g" horiz-adv-x="418" 
d="M134 -165q42 251 47 317q-8 -21 -9 -22q-34 -74 -79 -110q-20 -15 -52.5 -22t-63 4.5t-35.5 45.5q-7 40 14.5 106.5t65 127t108.5 86t146 -15.5q18 -9 27 -36t10 -47.5t1 -54.5v-16h-13v16q0 111 -33 127q-31 15 -62.5 6t-56 -34.5t-47.5 -61t-37.5 -74.5t-25.5 -73
t-11 -57.5t6 -28.5q20 -12 51 12q35 29 65 87t38 113v18l68 -1q9 -38 -3 -185t-27 -236q-14 -75 -37.5 -146t-59 -138.5t-88 -107t-112.5 -37.5q-82 3 -117 78l10 11q30 -72 108 -76q36 -2 70 37.5t59.5 105t44 137t30.5 145.5z" />
    <glyph glyph-name="h" unicode="h" horiz-adv-x="562" 
d="M162 618l52 -4q-51 -145 -140 -440v-1q-3 -8 -9 -27l15 23q27 45 82.5 88t101.5 63q44 20 68.5 7t24.5 -46.5t-13 -74.5q-2 -7 -10.5 -29.5t-13.5 -36.5t-11.5 -36.5t-8 -37t0 -29t10 -22t23.5 -7.5q11 0 28 11.5t37 31t40.5 41t42 47t36.5 44t29 36.5t15 19v-21l-16 -21
q-17 -21 -36.5 -44.5t-44.5 -51.5t-50.5 -52.5t-45.5 -37.5q-18 -12 -40 -18t-47 -5.5t-46.5 20.5t-31.5 59q-9 35 49 151q40 80 37 91q-3 9 -21 0q-54 -25 -124.5 -100t-93.5 -114l-33 -94l-82 3q22 104 41.5 183t50 180t65 167t69.5 85z" />
    <glyph glyph-name="i" unicode="i" horiz-adv-x="327" 
d="M128 404q-15 5 -10 26q8 19 20 16q6 -3 9.5 -11t0.5 -16q-7 -16 -20 -15zM75 8q27 1 84.5 52t98.5 97t69 81v-21q-184 -222 -252 -222q-48 17 -76.5 55t-31.5 83t9 89t44.5 78.5t75.5 46.5l16 -1q-8 -22 -21.5 -69.5t-29 -112t-13.5 -111t27 -45.5z" />
    <glyph glyph-name="j" unicode="j" horiz-adv-x="196" 
d="M78 404q-14 8 -10 25q1 9 7 14t14 3q5 -1 8.5 -8t-0.5 -16q-5 -19 -19 -18zM1032 -324q60 -37 68 -102.5t-47 -95.5q-45 -20 -98 -31t-100 -14.5t-108.5 2t-106 12t-112 21.5t-105.5 25.5t-107.5 29.5t-99.5 27q-252 69 -314 82q-74 -138 -177.5 -196t-248.5 -42
q-57 6 -109.5 29.5t-77.5 65.5q-35 47 -24 89q12 57 100 94q55 20 110 28t119.5 2t103 -12.5t114.5 -22.5q31 65 59.5 164.5t47.5 181.5t54 175.5t80 156.5l15 -5q-3 -17 -10.5 -103t-18.5 -142q-61 -296 -132 -451q117 -24 310 -75q34 -9 111.5 -31.5t123.5 -34.5t120 -29
t128.5 -22.5t118 -7t120 10t105.5 34.5q53 29 42 87t-61 90q-52 35 -137 46t-126 -8l-5 12q43 20 130.5 9t144.5 -49zM-539 -593q60 -9 115 8.5t97.5 55.5t75 83t57.5 100q-163 33 -233 36q-111 4 -204 -33q-85 -31 -91 -82q-10 -33 22 -79q22 -35 67 -57.5t94 -31.5z" />
    <glyph glyph-name="k" unicode="k" horiz-adv-x="463" 
d="M23 -2l-73 2q17 260 120 494q-53 2 -136.5 37t-164 68.5t-127.5 33.5q-19 0 -34 -6l-19 -7l-10 10q1 0 9.5 3.5t9.5 4.5q23 7 41 7q52 2 133.5 -32.5t164.5 -70t138 -35.5q4 10 10 22t13 26.5t11 22.5q28 61 73 120t100.5 108t122.5 71t130 4q43 -13 64.5 -59.5
t11.5 -91.5q-15 -80 -85.5 -134t-202.5 -87q-71 -18 -149 -15q-96 -216 -151 -496zM179 506q88 2 138 15q252 62 282 210q7 37 -10.5 81t-57.5 56q-43 13 -93.5 -15.5t-94.5 -80t-78 -104t-55 -97.5q-30 -59 -31 -65zM197 -2q-17 1 -30.5 7.5t-23.5 21t-17 27t-14 36.5
t-10 37.5t-9 42.5t-8 40l10 6q36 -19 83.5 6t77 66t23.5 68l14 -4q5 -31 -36.5 -82.5t-94.5 -68.5q-1 -1 -14.5 -2.5t-14.5 -0.5q25 -17 44.5 -46t30.5 -52t23.5 -40.5t30 -17t43.5 23.5q19 16 77 79t81 93v-21q-20 -27 -73.5 -84.5t-74.5 -76.5q-37 -32 -62.5 -45.5
t-55.5 -12.5z" />
    <glyph glyph-name="l" unicode="l" horiz-adv-x="346" 
d="M182 507q-2 -5 -27 -82.5t-58 -163.5q74 74 119.5 144.5t51.5 152.5q4 46 -13 61q-8 4 -14 4t-13.5 -10t-12.5 -19.5t-11 -25t-10 -26t-7.5 -22t-4.5 -13.5zM265 629q16 -13 16 -74q-3 -48 -22.5 -96t-52.5 -91.5t-55 -68.5t-53 -56l-10 -10q-12 -35 -21.5 -73.5
t-9.5 -83.5t22 -58q8 -5 17 -5.5t17.5 1t19 7.5t17.5 10.5t17.5 13.5t15 13.5t14 13.5t10.5 10q60 58 139 156v-21q-96 -110 -132 -145q-26 -24 -41 -37t-42.5 -27t-50.5 -13q-94 6 -100 140q-7 128 61 291q62 149 134 199q51 36 90 4z" />
    <glyph glyph-name="m" unicode="m" horiz-adv-x="724" 
d="M-34 -4q47 206 100 314q-58 -84 -66 -93v21q16 20 32.5 44.5t26.5 42t18.5 32t8.5 15.5q79 -5 80 -5l-99 -318l19 33q33 56 55.5 89.5t60 71.5t75.5 54q60 25 73 -31q14 -60 -30 -153q-10 -20 -22 -39q104 128 144 135q33 5 44 -23.5t5 -65.5t-5 -67.5t14 -31.5
q22 0 85.5 61.5t138.5 155.5v-21q-70 -87 -134 -147.5t-92 -61.5q-100 -3 -99 84q0 18 5 50q5 26 0 26q-9 -1 -102 -113q-7 -9 -17 -21q-9 -11 -19 -26l-32 4q18 107 21.5 164t-10.5 72.5t-50 -28.5t-98 -147q-1 -2 -9.5 -16.5t-13 -21.5t-14.5 -20t-19 -18.5t-21 -10.5
t-25.5 -2t-28.5 12z" />
    <glyph glyph-name="n" unicode="n" horiz-adv-x="536" 
d="M312 22q21 0 88.5 65.5t135.5 150.5v-21q-64 -79 -125.5 -139t-88.5 -68q-20 -5 -66 2t-52 22q-7 17 -7.5 40t3 44.5t11 48.5t14.5 47.5t16.5 46.5t13.5 41q5 16 6.5 21.5t2 15t-5 13t-15.5 4.5q-27 1 -56.5 -27.5t-58.5 -82.5t-48 -96t-42 -100q-16 -35 -20 -50l-82 5
q7 59 37 181t49 162q3 0 9 -2t18.5 -12t18.5 -30.5t9.5 -56.5t-10.5 -91q15 32 20.5 43t22.5 44t29 48.5t30 37t35.5 31t35.5 9.5q35 0 69 -18.5t36 -43.5q4 -46 -11.5 -96t-32 -93.5t-14.5 -73.5q2 -22 25 -22z" />
    <glyph glyph-name="o" unicode="o" horiz-adv-x="446" 
d="M206 364q33 -3 51 -32l-11 -7q-17 25 -44 26q-55 3 -96 -86q-41 -87 -36 -175q5 -84 54 -85q19 0 43 13q54 31 87 108.5t8 171.5q-1 9 5.5 9t10.5 -6q6 -8 19 -28.5t22.5 -35t24.5 -28t29.5 -16.5t33.5 7.5t39 37.5v-21q-15 -18 -30.5 -27t-28 -11t-26 4.5t-22.5 13.5
t-20 20.5t-16 21.5t-13 21t-9 14q14 -92 -20.5 -163t-89.5 -101q-95 -54 -154 9q-48 51 -43 142q5 101 73 159q62 52 159 44z" />
    <glyph glyph-name="p" unicode="p" horiz-adv-x="509" 
d="M279 339q-31 -3 -75 -57q-19 -23 -48 -64.5t-33 -46.5l-13 -68q9 -39 36.5 -63t60.5 -24q25 0 55 85t36 156.5t-19 81.5zM0 217v21q53 67 78 112l84 -4q-12 -40 -33 -143q44 62 64 87q42 56 87 61q83 9 105 -66q21 -70 -20 -157q-41 -88 -113 -116q-23 -8 -46 -9
q-33 -1 -60.5 19.5t-39.5 58.5q-14 -38 -27 -94t-22 -109.5t-21.5 -114t-25.5 -112.5t-34 -100.5t-48 -82.5t-66.5 -53.5t-89.5 -17.5q-83 3 -116 78l9 11q32 -72 108 -76q25 -1 42 4.5t31 25.5t20.5 34t21.5 51q18 45 108 521q20 113 71 260q-15 -23 -67 -89z" />
    <glyph glyph-name="q" unicode="q" horiz-adv-x="420" 
d="M231 -598h-33q-35 0 -71 10t-52 29q-29 35 -35.5 97t8 150.5t32 160.5t47.5 178q13 42 22 77q-2 -3 -8.5 -14.5t-11 -19t-13 -20t-15 -20t-16.5 -16t-19 -12t-20 -3t-21 6.5q-58 39 -64 107.5t38 134.5t120 100q31 15 85 16.5t74 -12.5q39 -25 39 -138v-16h-13v16
q0 107 -34 127q-12 7 -33 6t-41 -9q-23 -11 -74.5 -81t-84 -145.5t-5.5 -93.5q22 -14 45.5 5.5t50 63.5t30.5 49l30 98l87 -4q-4 -48 -21 -122.5t-37.5 -146t-40.5 -153t-31.5 -147.5t-8.5 -124t26 -89q16 -22 27.5 -28t40.5 -5z" />
    <glyph glyph-name="r" unicode="r" horiz-adv-x="295" 
d="M-214 -724l-8 -10q-46 43 -65 95t-12 103t21 90t36 76q39 66 111.5 117t164.5 74q-16 29 -25 79t-7 86q2 55 22 120t59.5 121t87.5 64q-5 2 -29 7.5t-44 11.5t-30 12q-23 -55 -68 -105v21q50 67 56 95q-25 20 -47 86.5t5 86.5q9 5 24.5 8.5t34 0t27.5 -16.5
q27 -39 2 -114q8 -8 25 -22.5t37 -30t26 -20.5q10 -8 -8 -39q-2 -3 -3 -5q-71 -134 -79 -275q-2 -39 4.5 -86.5t21.5 -75.5q167 45 329 31q55 -5 89.5 -16.5t52.5 -41.5q16 -28 8.5 -68.5t-32.5 -63.5q-54 -51 -134.5 -59.5t-157 18.5t-143 75t-98.5 104q-92 -23 -162.5 -72
t-107.5 -114q-20 -34 -33.5 -71t-21.5 -86t9.5 -99t61.5 -91zM132 -182q35 -77 112 -133.5t162.5 -62.5t158.5 60q21 21 27 55t-6 58q-24 45 -132 53q-160 13 -322 -30zM78 494q-16 -2 -8.5 -44t22.5 -56q10 19 9 60.5t-23 39.5z" />
    <glyph glyph-name="s" unicode="s" horiz-adv-x="384" 
d="M18 7q-13 10 -16.5 20.5t2.5 20t16 18.5t25 17.5t27.5 14.5t26 12.5t18.5 9.5q-5 57 -31 208q-34 -51 -86 -111v21q69 81 82 107l-6 44q-9 76 41 122q34 31 60 20q14 -6 17 -24q2 -3 0.5 -11.5t-1.5 -12t-3.5 -12t-4.5 -11.5t-5.5 -11t-5.5 -10.5t-5.5 -9.5t-5.5 -9
q1 -23 27.5 -145t27.5 -133q11 6 51.5 22.5t69 34t45.5 39.5v-21q-14 -17 -47.5 -35t-72 -33.5t-44.5 -18.5q11 -100 -52 -126q-16 -7 -76.5 -7t-73.5 10zM120 108q-5 -3 -17 -8.5t-22.5 -10.5t-24 -12.5t-22 -14.5t-15 -14t-5.5 -14.5t10 -14.5q17 -9 36.5 -8.5t33.5 6.5
q15 6 22 17t7.5 19t-1.5 27.5t-2 27.5zM160 517q-10 -6 -11 -21.5t3.5 -36.5t4.5 -25q2 5 9.5 18.5t11.5 25.5t3 23q-4 24 -21 16z" />
    <glyph glyph-name="t" unicode="t" horiz-adv-x="382" 
d="M171 27q28 15 90.5 76.5t120.5 134.5v-21q-57 -71 -117.5 -129.5t-90.5 -73.5q-18 -9 -49.5 -11t-62.5 4t-56 24.5t-29 46.5q-7 52 4 104q35 142 96 275q-25 -3 -49 -3q-97 0 -106 47q-7 31 28.5 44t57.5 -1l-5 -11q-20 11 -47 1.5t-21 -32.5q8 -36 93 -36q27 0 54 3
q11 23 23.5 44t31.5 45.5t42.5 38t46.5 11.5l12 -6q-13 -31 -55 -129q50 9 146 37q155 42 225 42q12 0 25.5 -1.5t30 -5t26 -11.5t7.5 -20q-3 -17 -43 -26l-2 12q32 6 33 16q5 24 -77 24q-62 0 -223 -42q-93 -27 -153 -37q-75 -174 -95 -283q-10 -62 -4 -100q15 -90 92 -51z
" />
    <glyph glyph-name="u" unicode="u" horiz-adv-x="511" 
d="M224 175q-7 -12 -29 -51t-31 -52t-26 -35.5t-32.5 -30.5t-33.5 -8q-34 0 -60.5 9.5t-46.5 31t-20 57.5t20 90q6 14 15.5 33t15 31t12 28t6.5 23t-3 17q-13 16 16 21q37 7 59 -9q4 -2 6 -5q25 -39 -19 -144q-10 -23 -18 -49.5t-12.5 -54t2 -46.5t24.5 -20q24 -1 47 20
q8 7 16 17t16.5 23t15.5 24t15.5 29t14 29.5t14.5 32.5t13.5 31t14 33t12.5 31l21 49l81 -4q-17 -83 -41 -155q-53 -156 -19 -155q21 0 82 62q78 80 139 160v-21q-56 -73 -131 -148q-46 -47 -82.5 -63.5t-56 -5.5t-28.5 37t-6 63t17 75z" />
    <glyph glyph-name="v" unicode="v" horiz-adv-x="380" 
d="M102 -8l-83 2q-11 131 -26 187q-37 140 82 204q17 10 32.5 0t16.5 -32t-10.5 -49.5t-28.5 -44.5q26 -125 25 -184v-9q32 68 116.5 159t116.5 143l11 -8q-24 -39 -68 -91t-79.5 -90.5t-66.5 -89.5t-38 -97zM79 374q-19 -12 4 -96q30 35 28 74q0 13 -10 20.5t-22 1.5z" />
    <glyph glyph-name="w" unicode="w" horiz-adv-x="506" 
d="M-39 52q-16 25 -19.5 51t7.5 53t22.5 48.5t38 49t40.5 41t42.5 38.5t32.5 29l11 -7q-55 -58 -85 -204q-23 -110 -7 -139q6 -12 19 0q38 36 74 124.5t46 105.5l52 -4q-6 -13 -17 -114t0 -113q29 -12 75 57.5t61 137.5q-48 26 -62 67q-6 20 -1.5 34.5t16.5 18.5
q13 4 29.5 -4.5t24.5 -29.5q13 -33 7 -78q42 -20 75.5 -15t62.5 39v-21q-56 -55 -140 -17q-7 -28 -18 -56.5t-29 -61t-39 -53t-48.5 -32.5t-57.5 1q-20 8 -30.5 33t-7.5 49q-39 -57 -63 -75q-17 -13 -31 -16t-27.5 4.5t-26 21.5t-27.5 37zM310 313q-15 -7 -5 -36
q11 -31 50 -58q5 39 -6 67q-18 35 -39 27z" />
    <glyph glyph-name="x" unicode="x" horiz-adv-x="531" 
d="M30 -9q-8 22 118 171q11 13 16 19q-3 99 -6 119q-13 65 -60 26q-11 -8 -25 -23t-24 -26.5t-26.5 -32t-22.5 -27.5v21l29 35q39 48 64 66q31 23 69 25.5t65 -23.5q34 -42 42 -127q12 14 31.5 36t30.5 34.5t23.5 27t18.5 24t7 14.5l12 4q-1 -9 -5 -17t-14.5 -21.5
t-21 -26.5t-34.5 -40.5t-46 -54.5q0 -2 0.5 -49t4.5 -85.5t13 -43.5q15 -8 50 18t76 70t69.5 77.5t46.5 56.5v-21q-177 -215 -233 -215q-21 0 -31.5 1t-30 9t-31 23.5t-23 48t-16.5 78.5q-6 -7 -28 -32t-35 -41t-29.5 -36.5t-23.5 -33.5t-4 -17q-1 -1 -2.5 -2t-5 -3.5
t-6.5 -4.5z" />
    <glyph glyph-name="y" unicode="y" horiz-adv-x="489" 
d="M110 -320q23 77 62 243.5t62 238.5q-36 -64 -68 -101t-70 -43q-64 -11 -98.5 6t-38 56.5t10.5 88t44 105.5q47 87 6 96q-18 2 -36 -23q-14 -16 -20 -34t1 -33l-12 -6q-9 17 -2 41t24 42q20 24 41 33.5t37.5 5.5t30.5 -15.5t21 -30.5t9.5 -39.5t-4.5 -41.5
q-6 -18 -15 -45.5t-16.5 -48t-14.5 -44.5t-10.5 -41t-2.5 -32t7 -22q9 -10 36 -6q84 17 157 195q6 13 21.5 74t18.5 82l83 -2q-4 -44 -20.5 -127.5t-28.5 -125.5q-19 -69 -52 -214.5t-56 -221.5q123 35 278 -14q55 -17 177.5 -90.5t190.5 -85.5q27 -4 58 12t51 42
q12 16 15 43t-8 46.5t-34 14.5q-16 -3 -31.5 -40t-20.5 -66l-12 2q1 4 2.5 11.5t7 26.5t12 34t17.5 28.5t22 15.5q32 7 46.5 -16.5t11 -55.5t-17.5 -51q-20 -28 -56 -47t-65 -13q-77 16 -195.5 87t-176.5 89q-157 51 -276 12q-75 -263 -213 -355q-83 -56 -153 -29
q-54 21 -61 76q-1 4 -1 7q-3 39 13 81.5t51.5 86t103 80.5t157.5 58zM107 -334q-83 -19 -146.5 -54t-98 -76t-50.5 -81t-14 -77q2 -60 43 -78q51 -22 116 50q85 95 150 316z" />
    <glyph glyph-name="z" unicode="z" horiz-adv-x="416" 
d="M27 -766q-25 0 -48 14q-47 29 -59 88q-36 180 250 588q32 46 59 80q-44 116 -147 2l-4 -4l-83 5q4 47 26 103t48.5 111t34.5 80q4 11 -8 11q-8 -1 -17 -7q-20 -17 -79 -88v21q51 61 72 78q13 10 32.5 18.5t39 11.5t33.5 -7t13 -35q-1 -47 -16.5 -93.5t-47.5 -108.5
l-32 -63q24 26 50 38.5t56.5 3.5t53.5 -48q25 29 162 205v-21q-88 -109 -155 -198q35 -30 52.5 -101t16 -157.5t-23 -180t-57.5 -170.5t-94.5 -126.5t-127.5 -49.5zM234 -12q-32 -41 -54 -72q-43 -60 -82.5 -123.5t-85.5 -149t-68.5 -166.5t-11.5 -138q11 -52 54 -80
q102 -64 174 164q57 180 74 435q6 100 0 130z" />
    <glyph glyph-name="braceleft" unicode="{" horiz-adv-x="437" 
d="M245 -263l-5 -12q-41 15 -66.5 46.5t-34 70t-10 85t5.5 91.5q4 32 5.5 48.5t3.5 45t0 44t-5.5 38t-12 35.5t-20.5 26.5t-31 21.5t-43 12v17q24 4 43 12t31 22t20.5 26.5t12 35t5.5 38t0 44.5t-3.5 45.5t-5.5 48.5q-7 45 -5.5 91t10 84.5t34 70t66.5 46.5l5 -12
q-30 -11 -42.5 -32t-9.5 -50.5t11 -58t19.5 -69t14.5 -70.5q5 -41 6.5 -62t2.5 -57t-4.5 -56.5t-16 -44.5t-31 -38t-49.5 -22q29 -8 49.5 -22.5t31 -38.5t16 -45t4.5 -56.5t-2.5 -56.5t-6.5 -62q-3 -30 -14.5 -70.5t-19.5 -69t-11 -58t9.5 -50.5t42.5 -32z" />
    <glyph glyph-name="bar" unicode="|" horiz-adv-x="460" 
d="M200 -160h-13v768h13v-768z" />
    <glyph glyph-name="braceright" unicode="}" horiz-adv-x="367" 
d="M127 -275l-5 12q30 11 41 32t6.5 50.5t-14 58.5t-21.5 69t-15 70q-6 47 -8 74t-0.5 67t11 63.5t31.5 45.5t57 31q-35 9 -57 30.5t-31.5 45t-11 63.5t0.5 66.5t8 74.5q3 30 15 70t21.5 69t14 58.5t-6.5 50.5t-41 32l5 12q41 -15 66 -46.5t33.5 -70t10.5 -84.5t-5 -91
q-5 -42 -7 -65t-2.5 -57.5t5.5 -55t18 -42.5t34.5 -34.5t54.5 -17.5v-17q-32 -5 -54.5 -17.5t-34.5 -34.5t-18 -42t-5.5 -55t2.5 -58t7 -64q5 -64 3.5 -121t-28.5 -104.5t-80 -67.5z" />
    <glyph glyph-name="asciitilde" unicode="~" horiz-adv-x="412" 
d="M315 277q-44 -17 -93 18q-6 4 -20 13.5t-21.5 13.5t-19.5 7t-23 1q-32 -12 -63 -56l-11 5q36 54 74 64q7 3 19 3q47 0 88 -28q7 -4 21 -15t22.5 -14.5t17.5 -0.5q10 4 32 28l10 -7q-17 -27 -33 -32z" />
    <glyph glyph-name="exclamdown" unicode="&#xa1;" horiz-adv-x="469" 
d="M322 583q-11 -178 -63 -330q-3 -8 -13 -38.5t-13.5 -40.5t-13.5 -35.5t-17.5 -39.5t-19.5 -35.5t-26.5 -40t-31.5 -38.5q-35 81 32 276q23 66 35.5 98.5t47 96t83.5 127.5zM301 704q2 18 14 28.5t30 7.5q15 0 26 -13t8 -29q-2 -17 -14 -27t-28 -7q-16 0 -27 11.5t-9 28.5
z" />
    <glyph glyph-name="cent" unicode="&#xa2;" horiz-adv-x="276" 
d="M120 230q21 0 41.5 19.5t32.5 41.5l7 -12q-13 -25 -36.5 -44t-47.5 -19l-6 -20l-12 4l5 18q-15 4 -27.5 21t-12.5 38q0 57 29 100q9 13 27.5 22t34.5 9l11 38l12 -7l-10 -31q20 -4 32 -20.5t11 -30.5l-13 5q-1 13 -12 22.5t-21 10.5q-8 -27 -22.5 -83t-22.5 -82zM152 396
q-20 0 -35 -26q-27 -42 -27 -92q0 -42 18 -48q32 126 44 166z" />
    <glyph glyph-name="sterling" unicode="&#xa3;" horiz-adv-x="601" 
d="M182 216h29l21 58q-42 -6 -50 -6q-55 0 -118 18l5 12q54 -17 112 -17q24 0 56 8q28 83 81 135q19 17 52.5 32t53.5 10q51 -9 57 -27q9 -22 -4 -47q-19 -38 -76.5 -71t-103.5 -43l-23 -62h20v-13h-24q-7 -23 -29.5 -55.5t-37.5 -47.5q11 -7 43 -31q58 -44 75 -51
q32 -16 66 -16q32 0 71.5 13t69.5 37l9 -10q-32 -24 -74 -38.5t-75 -14.5q-35 0 -72 16q-30 14 -69 47q-25 20 -55 39q-23 -15 -59.5 -19t-57.5 11q-8 7 -6 24t9 22q8 5 17 6.5t15 1.5t18 -3.5t15.5 -5t16.5 -8t14 -6.5q7 6 12 19t11 35.5t10 34.5h-25v13zM377 414
q-38 -37 -77 -121q47 11 98.5 41.5t68.5 64.5q8 20 2 35q-5 14 -17 19q-14 4 -36 -8.5t-39 -30.5zM163 104l-46 20q-26 0 -31 -6t-4.5 -15.5t3.5 -11.5q19 -7 40 -2t38 15z" />
    <glyph glyph-name="currency" unicode="&#xa4;" horiz-adv-x="364" 
d="M300 245q0 -55 -41 -91l35 -44l-10 -9l-36 45q-31 -21 -66 -21t-66 21l-36 -45l-10 9l35 44q-41 33 -41 91q0 48 37 85l-31 39l10 9l30 -39q32 24 72 24t72 -24l16 21l14 18l10 -9l-30 -39q36 -38 36 -85zM125 245v-35t3 -27t8.5 -25t17 -13.5t28.5 -6.5q21 0 34 8t19 24
t8 32.5t2 42.5q0 25 -2 41t-8 32.5t-19 24.5t-34 8q-17 0 -28.5 -6.5t-17 -13.5t-8.5 -25t-3 -27v-34z" />
    <glyph glyph-name="yen" unicode="&#xa5;" horiz-adv-x="496" 
d="M366 263v-13h-101q-3 -16 -4 -36h105v-12h-105q-7 -91 -7 -181v-21h-12q0 47 -10 122.5t-10 79.5h-105v12h105l-4 36h-101v13h100q-16 128 -56 168h1q-18 17 -33.5 21t-47.5 4h-17v11q1 0 5 0.5t5 0.5h7q26 0 38 -0.5t30.5 -7t32.5 -20.5q46 -46 60 -177h12
q18 136 60 177q13 14 32 20.5t31 7t38 0.5q2 0 4.5 -0.5t3.5 -0.5h9v-11h-17q-23 0 -35.5 -1t-29 -6.5t-28.5 -17.5h1q-41 -41 -57 -168h100zM247 214h3q3 33 3 36h-10z" />
    <glyph glyph-name="brokenbar" unicode="&#xa6;" horiz-adv-x="142" 
d="M78 186v-173h-14v173h14zM78 254h-14v191h14v-191z" />
    <glyph glyph-name="section" unicode="&#xa7;" horiz-adv-x="263" 
d="M174 126l-3 7q-21 -28 -52 -23h-1l-12 2q-35 12 -40 54q-7 40 16 63l-12 21q-13 32 8 69q-7 12 -8 14q-14 42 12 78q28 36 61 33h1l12 -2q35 -12 41 -55l-3 -1h-6h-3q-3 17 -14 31t-29 15q-25 3 -43 -21q-23 -32 -11 -67l3 -6q23 26 52 23h1l12 -3q17 -6 28 -21t13 -33
q7 -39 -16 -62q10 -18 11 -21q13 -33 -6 -71l6 -12q16 -42 -12 -79q-23 -31 -54 -26h-1l-12 2q-17 6 -28 21t-13 34l12 1q3 -17 14 -31t28 -15q24 -3 37 14q25 32 11 67zM99 328l-1 -2q12 -16 24 -27q7 -6 14.5 -12.5t11.5 -10t7 -6.5q6 -5 18 -19q18 19 12 51
q-3 17 -14 31.5t-29 15.5q-25 2 -43 -21zM140 171q-7 6 -14.5 12.5t-11.5 10t-7 6.5l-17 19q-17 -19 -12 -51q3 -18 13.5 -31.5t28.5 -14.5q25 -3 43 20l2 2q-9 13 -25 27zM140 254q-7 6 -14.5 12.5t-11.5 10t-7 6.5q-1 1 -9.5 10t-12.5 15q-7 -19 3 -47q5 -11 10 -19l8 5
l5 -12q-3 0 -5 -3q8 -10 16 -16q7 -6 14.5 -12.5t11.5 -10t7 -6.5l23 -25q8 20 -4 48q-1 3 -2.5 6t-3.5 6.5t-3 5.5l-9 -5l-5 12l6 3z" />
    <glyph glyph-name="dieresis" unicode="&#xa8;" 
d="M-313 480q0 29 25 29q11 0 18.5 -8.5t7.5 -20.5t-7.5 -21t-18.5 -9t-18 9t-7 21zM-148 469q0 12 7.5 20.5t18.5 8.5t18.5 -8.5t7.5 -20.5q0 -13 -7.5 -21.5t-18.5 -8.5t-18.5 8.5t-7.5 21.5z" />
    <glyph glyph-name="copyright" unicode="&#xa9;" horiz-adv-x="532" 
d="M266 6q-83 0 -143 60q-59 59 -59 142q0 81 59 142q60 60 143 60q85 0 143 -60q59 -61 59 -142q0 -83 -59 -142q-58 -60 -143 -60zM266 397q-72 0 -100.5 -50.5t-28.5 -138.5t28.5 -138.5t100.5 -50.5q78 0 133.5 55.5t55.5 133.5t-55.5 133.5t-133.5 55.5zM327 162l13 -4
q-15 -53 -58 -47q-31 4 -51.5 36t-21.5 67q-2 35 20 63t59 28q33 0 52 -53l-12 -6q-17 46 -40 46q-22 0 -22.5 -80t15.5 -87q17 -3 29.5 8t16.5 29z" />
    <glyph glyph-name="ordfeminine" unicode="&#xaa;" horiz-adv-x="196" 
d="M48 373q-5 0 -7 2q-18 15 -2 56t36 48q38 14 43 -37v-8h-11v8q0 20 -13 29q-16 7 -30 -18t-18 -45q-3 -8 -1.5 -16.5t10.5 -2.5q20 15 30 57v7l12 -2q0 -8 -2 -10q-4 -30 -4 -36q0 -5 3 -15q12 0 70 68v-18q-58 -69 -73 -62q-11 5 -12 20q-5 -9 -17 -19q-8 -6 -14 -6z
" />
    <glyph glyph-name="guillemotleft" unicode="&#xab;" horiz-adv-x="523" 
d="M90 92q11 -5 132 -79v-13q-1 0 -24 13t-49.5 27.5t-52 28.5t-32.5 16v16q29 14 87 52.5t71 46.5v-13q-8 -6 -35.5 -26.5t-53 -39t-43.5 -29.5zM199 92q1 0 132 -79v-13l-73 40q-74 41 -85 45v16q29 14 87 52.5t71 46.5v-13q-7 -5 -58 -42.5t-74 -52.5z" />
    <glyph glyph-name="logicalnot" unicode="&#xac;" horiz-adv-x="542" 
d="M478 182v-160h-13v146h-401v14h414z" />
    <glyph glyph-name="registered" unicode="&#xae;" horiz-adv-x="532" 
d="M266 6q-83 0 -143 60q-59 59 -59 142q0 81 59 142q60 60 143 60q85 0 143 -60q59 -61 59 -142q0 -83 -59 -142q-58 -60 -143 -60zM266 397q-47 0 -79.5 -39t-40 -94.5t0 -111t40 -94.5t79.5 -39q78 0 133.5 55.5t55.5 133.5t-55.5 133.5t-133.5 55.5zM372 90l-46 -5
q-27 13 -27 73q0 27 -16 36t-49 12v-116h-16v236q65 18 115 -15q39 -26 30 -56q-12 -34 -84 -42q26 1 42.5 -5.5t25 -21t12 -27t7 -35t6.5 -34.5zM234 317v-95q1 0 12 0.5t13.5 1t12 2t12.5 3.5t9.5 5.5t9 8.5t4.5 13t2 17q-1 24 -23.5 36t-51.5 8z" />
    <glyph glyph-name="macron" unicode="&#xaf;" 
d="M-124 479l-1 -22l-153 15v23z" />
    <glyph glyph-name="degree" unicode="&#xb0;" horiz-adv-x="206" 
d="M66 509q3 13 17.5 22t30.5 9q28 0 28 -26q0 -14 -16 -25t-33 -11q-36 0 -27 31zM77 498q0 -9 15 -9q14 0 26 7.5t12 19.5q0 14 -17 14q-14 0 -25.5 -9.5t-10.5 -22.5z" />
    <glyph glyph-name="plusminus" unicode="&#xb1;" horiz-adv-x="378" 
d="M314 106v-12h-250v12h250zM183 386h12v-119h119v-13h-119v-118h-12v118h-119v13h119v119z" />
    <glyph glyph-name="twosuperior" unicode="&#xb2;" horiz-adv-x="197" 
d="M103 245q-19 16 -37 16q-22 0 -34 -26h-13q5 14 20 36.5t25 32.5q27 27 58.5 69.5t31.5 69.5q0 23 -34 23q-21 0 -34 -8q-25 -14 -27 -40q-1 -19 7 -24q14 -7 26 11.5t6 32.5l10 6q9 -21 -8 -45t-38 -15q-21 13 -21 30q0 14 11.5 28.5t25.5 23.5q21 12 44 12
q20 0 36.5 -12.5t19.5 -31.5q2 -44 -86 -130q-6 -6 -18.5 -17t-18.5 -17q14 4 25 4q21 0 36 -12l8 -8q11 -14 18 -13q10 2 20 13l8 -6q-12 -15 -24 -18q-9 -3 -23 3t-20 12z" />
    <glyph glyph-name="threesuperior" unicode="&#xb3;" horiz-adv-x="205" 
d="M87 234q-3 0 -9 0.5t-8 0.5q-23 4 -38.5 21.5t-11.5 45.5h14q-3 -24 9 -37.5t31 -16.5q8 -2 14 -2q23 0 39.5 16t21.5 40q10 50 -12 64q-7 6 -20 6q-12 0 -26 -9l-17 -14l-6 11q46 42 59 56q3 4 6 7t7 6.5t6 5.5q-18 4 -28 11l-8 7q-21 13 -32 10q-13 -4 -29 -28l-12 5
q18 29 41 36q4 2 10 2q22 0 45 -14l9 -7q14 -10 16 -8q6 2 18 16l10 -8q-11 -16 -20 -20q-11 -9 -28 -28t-21 -23q16 0 29 -10q15 -11 23.5 -33t4.5 -43q-6 -28 -32.5 -47t-54.5 -19z" />
    <glyph glyph-name="acute" unicode="&#xb4;" 
d="M-183 447q-1 4 32 51t39 53l3 -1h6h3q-3 -6 -15 -54t-13 -50q-3 0 -28.5 0.5t-26.5 0.5z" />
    <glyph glyph-name="mu" unicode="&#xb5;" horiz-adv-x="503" 
d="M349 334q14 17 35 12l69 -12q-14 5 -22.5 -12t-11.5 -47t-3.5 -60.5t-1 -58t-1.5 -34.5l-83 -1q-2 5 -4 19.5t-3 18.5q-31 -9 -86 -9q-40 0 -58 5q-5 -91 -47 -157l-82 7q22 37 26.5 164.5t-15.5 170.5l83 5q39 -87 36 -175q0 -6 50 -6q72 0 92 10q-11 118 27 160z" />
    <glyph glyph-name="paragraph" unicode="&#xb6;" horiz-adv-x="446" 
d="M376 427q12 -18 -2 -34q-15 -15 -28 -7q-16 5 -12 29q0 4 2 12t2 12q-20 7 -47 7h-8l-113 -446h-13l56 220q-19 -9 -42 -9h-3l-54 -211h-12l53 213q-17 1 -37 13q-58 34 -53 102q3 39 22.5 67t45.5 40t56.5 19.5t55 5.5t40.5 -1h7q34 -2 51 -8q6 18 19 27l8 -9
q-10 -9 -15 -23q15 -8 21 -19zM217 238l53 209q-20 2 -42 -1l-57 -222q24 0 46 14zM364 402q6 9 1 19q-4 7 -15 13q0 -1 -1.5 -8.5t-1.5 -11.5q-2 -15 3 -17q6 -3 14 5z" />
    <glyph glyph-name="periodcentered" unicode="&#xb7;" horiz-adv-x="70" 
d="M19 93q0 16 16 16t16 -16t-16 -16t-16 16z" />
    <glyph glyph-name="cedilla" unicode="&#xb8;" 
d="M-287 -179l6 12q36 -23 70 11q28 27 21 54q-6 23 -38 23l17 71l19 -2l-15 -49q63 -17 56 -60q-5 -36 -46 -58q-47 -25 -90 -2z" />
    <glyph glyph-name="onesuperior" unicode="&#xb9;" horiz-adv-x="113" 
d="M75 235h-25q0 14 9.5 96.5t15.5 122.5q-25 -34 -50 -46l-6 10q12 5 26.5 20t23.5 28l9 12l15 4q1 -9 -5 -86q-8 -74 -13 -161z" />
    <glyph glyph-name="ordmasculine" unicode="&#xba;" horiz-adv-x="150" 
d="M48 373q-5 0 -7 2q-18 15 -2 56t36 48q38 14 43 -37v-8h-11v8q0 20 -13 29q-16 7 -30 -18t-18 -45q-3 -8 -1.5 -16.5t10.5 -2.5q27 19 30 64l12 -2q-3 -47 -35 -72q-8 -6 -14 -6z" />
    <glyph glyph-name="guillemotright" unicode="&#xbb;" horiz-adv-x="427" 
d="M338 92q-24 15 -76 53.5t-57 41.5v13q13 -8 71 -46.5t87 -52.5v-16q-11 -4 -85 -45l-73 -40v13q129 77 133 79zM229 92q-23 14 -73 51t-60 44v13q13 -8 71 -46.5t87 -52.5v-16q-11 -4 -84 -45l-74 -40v13q129 77 133 79z" />
    <glyph glyph-name="onequarter" unicode="&#xbc;" horiz-adv-x="471" 
d="M378 -5l-25 -1q2 14 5 24q2 9 11 42.5t13 53.5q-18 6 -25 10q-3 1 -10.5 4t-12.5 4q-16 -30 -38 -23q-15 5 -15 17q0 7 6.5 14t14.5 9q9 2 20 -1q12 34 12 58q0 18 -12 32h14q14 -14 14 -48q0 -28 -8 -48q4 -1 13 -4.5t10 -4.5q15 -8 20 -9q12 58 13 73h13
q-5 -48 -10 -75q17 0 30 11l8 -8q-20 -13 -38 -13h-2q-7 -51 -15 -84zM375 459l-333 -464l-10 7l332 464zM107 235h-25q0 14 9.5 96.5t15.5 122.5q-25 -34 -50 -46l-6 10q12 5 26.5 20t23.5 28l9 12l15 4q1 -9 -5 -86q-8 -74 -13 -161zM296 125q8 -3 21 14h-12q-4 0 -7.5 -3
t-4 -6t2.5 -5z" />
    <glyph glyph-name="onehalf" unicode="&#xbd;" horiz-adv-x="462" 
d="M375 459l-333 -464l-10 7l332 464zM114 235h-26q0 14 9.5 97t16.5 122q-28 -35 -51 -46l-5 10q11 5 26 20t24 28l9 12l14 4q2 -14 -5 -86q-8 -96 -12 -161zM356 6q-17 16 -37 16q-22 0 -34 -26l-13 1q12 34 45 69q25 24 57 68.5t32 71.5q0 23 -33 23q-19 0 -35 -10h1
q-25 -14 -27 -40q-3 -17 6 -24q15 -6 26.5 12.5t5.5 32.5l11 6q9 -22 -8 -45.5t-38 -14.5q-21 11 -21 30q0 28 37 53q22 11 43 11t37.5 -12.5t18.5 -31.5q3 -44 -85 -130q-5 -6 -18.5 -17t-18.5 -18q9 4 25 4q23 0 36 -12l8 -8q11 -13 18 -13q9 2 20 14l8 -6
q-12 -14 -25 -19q-16 -7 -42 15z" />
    <glyph glyph-name="threequarters" unicode="&#xbe;" horiz-adv-x="504" 
d="M100 234q-3 0 -9.5 0.5t-8.5 0.5q-23 4 -38 21.5t-11 45.5h13q-2 -23 10 -37t30 -17q10 -2 15 -2q23 0 39.5 16t21.5 40q10 50 -12 64q-8 6 -20 6t-26 -9l-18 -14l-5 11q46 42 59 56l19 19q-18 4 -29 11l-8 7q-19 13 -31 10q-13 -4 -29 -28l-12 5q18 29 40 36q6 2 11 2
q22 0 45 -14l9 -7q13 -10 15 -8q4 1 19 16l9 -8q-10 -16 -19 -20q-11 -9 -28 -28t-21 -23q14 0 29 -10q15 -12 23.5 -33.5t4.5 -42.5q-7 -28 -33 -47t-54 -19zM410 -5l-24 -1q2 14 4 24q14 53 24 96l-25 10q-19 7 -22 8q-16 -30 -39 -23q-14 4 -14 17q0 7 6.5 14t14.5 9
q7 1 20 -1q12 34 12 58q0 19 -13 32h15q13 -14 13 -48q0 -31 -8 -48l24 -9q16 -8 20 -9q12 58 13 73h12l-9 -75q17 0 30 11l8 -8q-20 -13 -38 -13h-2l-15 -84zM413 459l-333 -464l-10 7l332 464zM329 125q8 -3 21 14h-12q-9 -1 -11 -9q-2 -3 2 -5z" />
    <glyph glyph-name="questiondown" unicode="&#xbf;" horiz-adv-x="596" 
d="M416 549q-26 -61 -49 -96t-38.5 -49t-56.5 -44.5t-75 -59.5q-133 -113 -83 -217q21 -39 59 -63.5t80.5 -32t86.5 1.5t79 32t56.5 64.5t19.5 93.5l-10 1q-4 -46 -21 -81.5t-40.5 -54t-43 -28t-37.5 -12.5q-119 -23 -136 58q-14 66 39 156q28 47 62 76q64 55 89 108.5
t19 146.5zM462 680q0 -18 -11.5 -29t-28.5 -11q-16 0 -28 11.5t-12 28.5q0 16 12.5 28t27.5 12q16 0 28 -12t12 -28z" />
    <glyph glyph-name="Agrave" unicode="&#xc0;" horiz-adv-x="1273" 
d="M774 325l-27 -71q-32 -83 -50 -127t-50 -109.5t-68.5 -114t-80.5 -86.5q-51 -46 -136 -88t-165 -51q-98 -9 -157 39q-47 38 -38 93q6 42 55.5 80t95.5 48q66 19 165.5 8t160.5 -51l-7 -12q-61 39 -157.5 50t-159.5 -8q-45 -11 -88.5 -46t-52.5 -73q-8 -44 36 -79
q57 -43 146 -35q57 6 108 34t93 76t75 97.5t64 118t50 116t43 111.5q11 31 17 46l37 94q-38 24 -68 38.5t-64.5 24t-68 7.5t-67.5 -17q7 -38 -20 -51q-31 -15 -42 5q-13 20 30 45l17 9q-12 37 -72 21q-46 -10 -84.5 -40t-37.5 -60h-14q-1 34 42 68.5t92 44.5q34 7 57 -0.5
t30 -28.5q35 15 69 17.5t69 -7.5t66 -25t71 -39q60 148 184 242t298 131l13 3q13 -25 -19.5 -228t-68.5 -365q60 -23 97.5 -9.5t80.5 67.5v-21q-82 -92 -181 -51q-6 -30 -16.5 -67.5t-18 -63t-13 -52t-4 -45.5t11.5 -32q15 -20 42 -20l-2 -13q-41 6 -67.5 33.5t-37.5 63.5
t-13.5 82t1 81.5t9.5 70.5q-100 48 -210 121zM987 218q69 286 175 536q-77 -18 -137 -56.5t-105 -97.5t-76 -118t-65 -144q143 -91 208 -120zM403 432l-13 -6q-31 -19 -25 -28q4 -8 25 2q17 8 13 32zM1199 867q-1 0 -26.5 -0.5t-28.5 -0.5q-1 2 -13 50t-15 54l12 1
q6 -6 39 -53t32 -51z" />
    <glyph glyph-name="Aacute" unicode="&#xc1;" horiz-adv-x="1273" 
d="M774 325l-27 -71q-32 -83 -50 -127t-50 -109.5t-68.5 -114t-80.5 -86.5q-51 -46 -136 -88t-165 -51q-98 -9 -157 39q-47 38 -38 93q6 42 55.5 80t95.5 48q66 19 165.5 8t160.5 -51l-7 -12q-61 39 -157.5 50t-159.5 -8q-45 -11 -88.5 -46t-52.5 -73q-8 -44 36 -79
q57 -43 146 -35q57 6 108 34t93 76t75 97.5t64 118t50 116t43 111.5q11 31 17 46l37 94q-38 24 -68 38.5t-64.5 24t-68 7.5t-67.5 -17q7 -38 -20 -51q-31 -15 -42 5q-13 20 30 45l17 9q-12 37 -72 21q-46 -10 -84.5 -40t-37.5 -60h-14q-1 34 42 68.5t92 44.5q34 7 57 -0.5
t30 -28.5q35 15 69 17.5t69 -7.5t66 -25t71 -39q60 148 184 242t298 131l13 3q13 -25 -19.5 -228t-68.5 -365q60 -23 97.5 -9.5t80.5 67.5v-21q-82 -92 -181 -51q-6 -30 -16.5 -67.5t-18 -63t-13 -52t-4 -45.5t11.5 -32q15 -20 42 -20l-2 -13q-41 6 -67.5 33.5t-37.5 63.5
t-13.5 82t1 81.5t9.5 70.5q-100 48 -210 121zM987 218q69 286 175 536q-77 -18 -137 -56.5t-105 -97.5t-76 -118t-65 -144q143 -91 208 -120zM403 432l-13 -6q-31 -19 -25 -28q4 -8 25 2q17 8 13 32zM1117 847q-1 4 32 51t39 53l3 -1h6h3q-3 -6 -15 -54t-13 -50
q-3 0 -28.5 0.5t-26.5 0.5z" />
    <glyph glyph-name="Acircumflex" unicode="&#xc2;" horiz-adv-x="1273" 
d="M774 325l-27 -71q-32 -83 -50 -127t-50 -109.5t-68.5 -114t-80.5 -86.5q-51 -46 -136 -88t-165 -51q-98 -9 -157 39q-47 38 -38 93q6 42 55.5 80t95.5 48q66 19 165.5 8t160.5 -51l-7 -12q-61 39 -157.5 50t-159.5 -8q-45 -11 -88.5 -46t-52.5 -73q-8 -44 36 -79
q57 -43 146 -35q57 6 108 34t93 76t75 97.5t64 118t50 116t43 111.5q11 31 17 46l37 94q-38 24 -68 38.5t-64.5 24t-68 7.5t-67.5 -17q7 -38 -20 -51q-31 -15 -42 5q-13 20 30 45l17 9q-12 37 -72 21q-46 -10 -84.5 -40t-37.5 -60h-14q-1 34 42 68.5t92 44.5q34 7 57 -0.5
t30 -28.5q35 15 69 17.5t69 -7.5t66 -25t71 -39q60 148 184 242t298 131l13 3q13 -25 -19.5 -228t-68.5 -365q60 -23 97.5 -9.5t80.5 67.5v-21q-82 -92 -181 -51q-6 -30 -16.5 -67.5t-18 -63t-13 -52t-4 -45.5t11.5 -32q15 -20 42 -20l-2 -13q-41 6 -67.5 33.5t-37.5 63.5
t-13.5 82t1 81.5t9.5 70.5q-100 48 -210 121zM987 218q69 286 175 536q-77 -18 -137 -56.5t-105 -97.5t-76 -118t-65 -144q143 -91 208 -120zM403 432l-13 -6q-31 -19 -25 -28q4 -8 25 2q17 8 13 32zM1213 856l-8 -17q-19 7 -36.5 36t-15.5 57q-10 -11 -32 -37.5t-35 -39.5
l-11 12q74 90 78 96l15 -8q3 -3 24 -49t21 -50z" />
    <glyph glyph-name="Atilde" unicode="&#xc3;" horiz-adv-x="1273" 
d="M774 325l-27 -71q-32 -83 -50 -127t-50 -109.5t-68.5 -114t-80.5 -86.5q-51 -46 -136 -88t-165 -51q-98 -9 -157 39q-47 38 -38 93q6 42 55.5 80t95.5 48q66 19 165.5 8t160.5 -51l-7 -12q-61 39 -157.5 50t-159.5 -8q-45 -11 -88.5 -46t-52.5 -73q-8 -44 36 -79
q57 -43 146 -35q57 6 108 34t93 76t75 97.5t64 118t50 116t43 111.5q11 31 17 46l37 94q-38 24 -68 38.5t-64.5 24t-68 7.5t-67.5 -17q7 -38 -20 -51q-31 -15 -42 5q-13 20 30 45l17 9q-12 37 -72 21q-46 -10 -84.5 -40t-37.5 -60h-14q-1 34 42 68.5t92 44.5q34 7 57 -0.5
t30 -28.5q35 15 69 17.5t69 -7.5t66 -25t71 -39q60 148 184 242t298 131l13 3q13 -25 -19.5 -228t-68.5 -365q60 -23 97.5 -9.5t80.5 67.5v-21q-82 -92 -181 -51q-6 -30 -16.5 -67.5t-18 -63t-13 -52t-4 -45.5t11.5 -32q15 -20 42 -20l-2 -13q-41 6 -67.5 33.5t-37.5 63.5
t-13.5 82t1 81.5t9.5 70.5q-100 48 -210 121zM987 218q69 286 175 536q-77 -18 -137 -56.5t-105 -97.5t-76 -118t-65 -144q143 -91 208 -120zM403 432l-13 -6q-31 -19 -25 -28q4 -8 25 2q17 8 13 32zM1180 863q-30 -8 -58 1t-44 25q-6 5 -20.5 19.5t-24.5 19t-25 1.5
q-31 -6 -66 -50l-16 8q37 49 84 56q20 7 53.5 0.5t52.5 -22.5q4 -3 15 -11.5t14.5 -11t13 -8.5t14 -6.5t13 -1.5t15 2.5t15 9t16.5 15.5l12 -14q-10 -11 -31.5 -21.5t-32.5 -10.5z" />
    <glyph glyph-name="Adieresis" unicode="&#xc4;" horiz-adv-x="1273" 
d="M774 325q110 -73 210 -121q-6 -35 -9.5 -70.5t-1 -81.5t13.5 -82t37.5 -63.5t67.5 -33.5l2 13q-27 0 -42 20q-10 13 -11.5 32t4 45.5t13 52t18 63t16.5 67.5q99 -41 181 51v21q-43 -54 -80.5 -67.5t-97.5 9.5q36 162 68.5 365t19.5 228l-13 -3q-174 -37 -298 -131
t-184 -242q-40 24 -71 39t-66 25t-69 7.5t-69 -17.5q-7 21 -30 28.5t-57 0.5q-49 -10 -92 -44.5t-42 -68.5h14q-1 30 37.5 60t84.5 40q60 16 72 -21l-17 -9q-43 -25 -30 -45q11 -20 42 -5q27 13 20 51q34 15 67.5 17t68 -7.5t64.5 -24t68 -38.5l-37 -94q-72 -190 -94 -238
q-137 -306 -314 -353q-20 -6 -42 -8q-89 -8 -146 35q-44 35 -36 79q9 38 52.5 73t88.5 46q63 19 159.5 8t157.5 -50l7 12q-61 40 -160.5 51t-165.5 -8q-46 -10 -95.5 -48t-55.5 -80q-9 -55 38 -93q59 -48 157 -39q80 9 165 51t136 88q44 38 80.5 86.5t68.5 114t50 109.5
t50 127zM987 218q-65 29 -208 120q34 85 65 144t76 118t105 97.5t137 56.5q-106 -250 -175 -536zM403 432q4 -24 -13 -32q-21 -10 -25 -2q-6 9 25 28zM1007 880q0 29 25 29q11 0 18.5 -8.5t7.5 -20.5t-7.5 -21t-18.5 -9t-18 9t-7 21zM1172 869q0 12 7.5 20.5t18.5 8.5
t18.5 -8.5t7.5 -20.5q0 -13 -7.5 -21.5t-18.5 -8.5t-18.5 8.5t-7.5 21.5z" />
    <glyph glyph-name="Aring" unicode="&#xc5;" horiz-adv-x="1273" 
d="M774 325l-27 -71q-32 -83 -50 -127t-50 -109.5t-68.5 -114t-80.5 -86.5q-51 -46 -136 -88t-165 -51q-98 -9 -157 39q-47 38 -38 93q6 42 55.5 80t95.5 48q66 19 165.5 8t160.5 -51l-7 -12q-61 39 -157.5 50t-159.5 -8q-45 -11 -88.5 -46t-52.5 -73q-8 -44 36 -79
q57 -43 146 -35q57 6 108 34t93 76t75 97.5t64 118t50 116t43 111.5q11 31 17 46l37 94q-38 24 -68 38.5t-64.5 24t-68 7.5t-67.5 -17q7 -38 -20 -51q-31 -15 -42 5q-13 20 30 45l17 9q-12 37 -72 21q-46 -10 -84.5 -40t-37.5 -60h-14q-1 34 42 68.5t92 44.5q34 7 57 -0.5
t30 -28.5q35 15 69 17.5t69 -7.5t66 -25t71 -39q60 148 184 242t298 131l13 3q13 -25 -19.5 -228t-68.5 -365q60 -23 97.5 -9.5t80.5 67.5v-21q-82 -92 -181 -51q-6 -30 -16.5 -67.5t-18 -63t-13 -52t-4 -45.5t11.5 -32q15 -20 42 -20l-2 -13q-41 6 -67.5 33.5t-37.5 63.5
t-13.5 82t1 81.5t9.5 70.5q-100 48 -210 121zM987 218q69 286 175 536q-77 -18 -137 -56.5t-105 -97.5t-76 -118t-65 -144q143 -91 208 -120zM403 432l-13 -6q-31 -19 -25 -28q4 -8 25 2q17 8 13 32zM1094 919q17 29 48 35t54 -15.5t16 -61.5q-7 -43 -49 -54q-41 -10 -67 16
q-29 30 -2 80zM1112 899q-16 -34 13 -48q26 -14 48 4q14 11 15 32q2 23 -13.5 33.5t-35 3.5t-27.5 -25z" />
    <glyph glyph-name="AE" unicode="&#xc6;" horiz-adv-x="1636" 
d="M1036 79q-22 50 -22 104q-43 -203 -1 -258q13 -19 41 -19l-1 -14q-57 1 -91.5 46.5t-42 110t-4 124.5t16.5 100h-2q1 0 -26.5 -3.5t-73.5 -9t-84 -9.5q-31 -82 -49.5 -126t-50.5 -109.5t-68 -113.5t-79 -86q-53 -46 -137.5 -88t-163.5 -50q-97 -10 -157 39q-48 38 -39 93
q6 41 56 79.5t96 48.5q66 19 165 7.5t160 -51.5l-6 -11q-62 39 -159 49.5t-159 -7.5q-45 -12 -88.5 -47t-52.5 -72q-7 -46 36 -80q57 -43 146 -35q55 5 102.5 27.5t85 60.5t67.5 78.5t57.5 97.5t46 100.5t42.5 103t39 91.5q-32 -3 -76 -3.5t-107.5 4t-117.5 15.5t-99 35.5
t-58 60.5q-17 45 60 99l10 -9q-71 -49 -57 -87q12 -31 54.5 -53.5t95 -33t113.5 -15t107.5 -3.5t79.5 4q72 188 209.5 327t320.5 179l12 1l-4 -11l-18 -55l-11 -34q49 54 124 75q94 27 159 -15q20 23 46 40l7 -12q-25 -14 -42 -37q26 -17 37.5 -54t-2.5 -71
q-11 -22 -36.5 -24t-40.5 17q-34 42 24 130q-60 39 -148 14q-51 -14 -79.5 -79.5t-25.5 -132t32 -88.5q15 7 55 16q10 5 65.5 3.5t72.5 -20.5q12 -13 7 -30q-14 -52 -87 -40q-59 11 -116 55q-29 -17 -49.5 -68.5t-24.5 -114t6 -122.5t44.5 -100t87.5 -40h3q51 1 101.5 23.5
t99.5 65.5t84 81t82 95v-21q-86 -101 -128 -140q-123 -113 -239 -117q-29 0 -43 2q-62 7 -114.5 37t-75.5 80zM752 266l183 19q46 184 228 469q-69 -17 -126 -52.5t-95.5 -76t-75.5 -106t-59.5 -117.5t-54.5 -136zM1038 290l6 10q42 80 147 128q-68 59 -81 117
q-38 -122 -72 -255zM1216 425q57 -40 104 -49q61 -11 72 30q3 11 -3 18q-13 15 -63.5 16.5t-62.5 -3.5q-25 -5 -47 -12zM1435 712q-47 -80 -22 -114q10 -13 28.5 -12t25.5 16q12 32 1.5 63.5t-33.5 46.5z" />
    <glyph glyph-name="Ccedilla" unicode="&#xc7;" horiz-adv-x="644" 
d="M522 546q-35 -40 -14 -50q9 -4 19.5 12t18.5 34q5 14 7 32q-20 -15 -31 -28zM259 -7q106 -6 189.5 50t195.5 195v-21q-106 -128 -186 -183t-182 -55l1 -48q64 -17 59 -64q-4 -39 -47 -66q-51 -32 -98 -6l8 16q36 -26 72 11q30 30 24 61q-5 27 -40 28l2 69
q-99 4 -170 78.5t-83 167.5q-10 82 13 174.5t75 175.5q53 85 144 139.5t186 34.5q63 -12 103.5 -53t41.5 -98q29 17 76 36l9 -9q-62 -28 -85 -42q-2 -25 -10 -47q-9 -26 -24 -43t-31 -9q-13 6 -13 20t7.5 27t18.5 25q15 17 39 33q1 55 -37.5 95.5t-100.5 52.5
q-97 21 -183 -109q-81 -121 -108 -294q-28 -182 29 -277q37 -61 105 -65z" />
    <glyph glyph-name="Egrave" unicode="&#xc8;" horiz-adv-x="554" 
d="M348 37q88 52 206 201v-21q-114 -139 -197 -191q-111 -66 -229 -36q-65 17 -96.5 60t-30.5 102q1 83 55 164.5t130 110.5q-44 22 -79 65q-24 36 -18.5 86.5t33.5 95.5q32 51 84.5 75t103 19t93 -36t57.5 -82q42 23 78 36l9 -9q-66 -30 -85 -42q4 -21 -4 -48
q-8 -24 -26 -41.5t-35 -9.5q-13 6 -13 20.5t7.5 27.5t18.5 25q13 14 38 32q-9 33 -29 59q-59 75 -134 37q-60 -30 -92 -110q-39 -98 1 -177q3 -8 8 -15q34 16 67 21.5t61 -5.5q15 -9 17.5 -27.5t-16.5 -25.5q-42 -15 -130 23q-35 -22 -61 -99t-28 -161q-2 -57 19 -95
t55.5 -52t77.5 -8t84 31zM218 428q79 -30 109 -18q10 4 7.5 14.5t-11.5 15.5q-29 16 -105 -12zM418 598q-8 -8 -13.5 -17.5t-8 -19.5t6.5 -13q10 -4 23.5 11t19.5 32q7 26 4 36q-20 -15 -32 -29zM329 847q-1 0 -26.5 -0.5t-28.5 -0.5q-1 2 -13 50t-15 54l12 1q6 -6 39 -53
t32 -51z" />
    <glyph glyph-name="Eacute" unicode="&#xc9;" horiz-adv-x="554" 
d="M348 37q88 52 206 201v-21q-114 -139 -197 -191q-111 -66 -229 -36q-65 17 -96.5 60t-30.5 102q1 83 55 164.5t130 110.5q-44 22 -79 65q-24 36 -18.5 86.5t33.5 95.5q32 51 84.5 75t103 19t93 -36t57.5 -82q42 23 78 36l9 -9q-66 -30 -85 -42q4 -21 -4 -48
q-8 -24 -26 -41.5t-35 -9.5q-13 6 -13 20.5t7.5 27.5t18.5 25q13 14 38 32q-9 33 -29 59q-59 75 -134 37q-60 -30 -92 -110q-39 -98 1 -177q3 -8 8 -15q34 16 67 21.5t61 -5.5q15 -9 17.5 -27.5t-16.5 -25.5q-42 -15 -130 23q-35 -22 -61 -99t-28 -161q-2 -57 19 -95
t55.5 -52t77.5 -8t84 31zM218 428q79 -30 109 -18q10 4 7.5 14.5t-11.5 15.5q-29 16 -105 -12zM418 598q-8 -8 -13.5 -17.5t-8 -19.5t6.5 -13q10 -4 23.5 11t19.5 32q7 26 4 36q-20 -15 -32 -29zM287 847q-1 4 32 51t39 53l3 -1h6h3q-3 -6 -15 -54t-13 -50q-3 0 -28.5 0.5
t-26.5 0.5z" />
    <glyph glyph-name="Ecircumflex" unicode="&#xca;" horiz-adv-x="554" 
d="M348 37q88 52 206 201v-21q-114 -139 -197 -191q-111 -66 -229 -36q-65 17 -96.5 60t-30.5 102q1 83 55 164.5t130 110.5q-44 22 -79 65q-24 36 -18.5 86.5t33.5 95.5q32 51 84.5 75t103 19t93 -36t57.5 -82q42 23 78 36l9 -9q-66 -30 -85 -42q4 -21 -4 -48
q-8 -24 -26 -41.5t-35 -9.5q-13 6 -13 20.5t7.5 27.5t18.5 25q13 14 38 32q-9 33 -29 59q-59 75 -134 37q-60 -30 -92 -110q-39 -98 1 -177q3 -8 8 -15q34 16 67 21.5t61 -5.5q15 -9 17.5 -27.5t-16.5 -25.5q-42 -15 -130 23q-35 -22 -61 -99t-28 -161q-2 -57 19 -95
t55.5 -52t77.5 -8t84 31zM218 428q79 -30 109 -18q10 4 7.5 14.5t-11.5 15.5q-29 16 -105 -12zM418 598q-8 -8 -13.5 -17.5t-8 -19.5t6.5 -13q10 -4 23.5 11t19.5 32q7 26 4 36q-20 -15 -32 -29zM393 846l-8 -17q-19 7 -36.5 36t-15.5 57q-10 -11 -32 -37.5t-35 -39.5
l-11 12q74 90 78 96l15 -8q3 -3 24 -49t21 -50z" />
    <glyph glyph-name="Edieresis" unicode="&#xcb;" horiz-adv-x="554" 
d="M348 37q-41 -25 -84 -31t-77.5 8t-55.5 52t-19 95q2 84 28 161t61 99q88 -38 130 -23q19 7 16.5 25.5t-17.5 27.5q-28 11 -61 5.5t-67 -21.5q-48 76 -14 178q28 83 88 119q73 45 133 -21q5 -5 10 -11q20 -26 29 -59q-25 -18 -38 -32q-11 -12 -18.5 -25t-7.5 -27.5
t13 -20.5q17 -8 35 9.5t26 41.5q8 27 4 48q19 12 85 42l-9 9q-36 -13 -78 -36q-15 51 -57.5 82t-93 36t-103 -19t-84.5 -75q-28 -45 -33.5 -95.5t18.5 -86.5q35 -43 79 -65q-76 -29 -130 -110.5t-55 -164.5q-1 -59 30.5 -102t96.5 -60q118 -30 229 36q83 52 197 191v21
q-118 -149 -206 -201zM218 428q76 28 105 12q9 -5 11.5 -15.5t-7.5 -14.5q-30 -12 -109 18zM418 598q12 14 32 29q3 -10 -4 -36q-6 -17 -19.5 -32t-23.5 -11q-9 3 -6.5 13t8 19.5t13.5 17.5zM187 880q0 29 25 29q11 0 18.5 -8.5t7.5 -20.5t-7.5 -21t-18.5 -9t-18 9t-7 21z
M352 869q0 12 7.5 20.5t18.5 8.5t18.5 -8.5t7.5 -20.5q0 -13 -7.5 -21.5t-18.5 -8.5t-18.5 8.5t-7.5 21.5z" />
    <glyph glyph-name="Igrave" unicode="&#xcc;" horiz-adv-x="628" 
d="M16 26q-14 18 -15.5 43.5t21.5 68.5l12 -7q-39 -58 -7 -97q24 -32 70 -41t85 8q41 17 73 46t52 60.5t37.5 77t26.5 80.5t22 86.5t22 80.5q36 117 102 248q-66 -20 -179 -40q-12 -2 -46 -7.5t-50 -9t-47.5 -10.5t-48 -14.5t-40.5 -20t-36.5 -28t-24.5 -36t-15.5 -47.5
t-0.5 -59q6 -59 54.5 -102t101.5 -22l5 -13q-63 -21 -115.5 25t-58.5 112q-3 30 1 56t11 46t22 37t28 28.5t36.5 22t39.5 16.5t45 13t44.5 10t47 8.5t44.5 7.5q130 24 188 43q27 49 96 85t90 9q22 -29 -10 -56t-88 -48q-18 -34 -30.5 -75.5t-25.5 -95.5t-23 -86
q-4 -14 -19 -63.5t-20.5 -67.5t-21.5 -61.5t-27 -64t-30.5 -54t-39 -53t-47 -40t-58.5 -34.5q-32 -14 -82.5 -16.5t-99.5 11t-71 40.5zM619 703q42 18 68.5 38.5t13.5 37.5q-23 30 -74 -62l-3 -6q-4 -6 -5 -8zM409 777q-1 0 -26.5 -0.5t-28.5 -0.5q-1 2 -13 50t-15 54l12 1
q6 -6 39 -53t32 -51z" />
    <glyph glyph-name="Iacute" unicode="&#xcd;" horiz-adv-x="628" 
d="M16 26q-14 18 -15.5 43.5t21.5 68.5l12 -7q-39 -58 -7 -97q24 -32 70 -41t85 8q41 17 73 46t52 60.5t37.5 77t26.5 80.5t22 86.5t22 80.5q36 117 102 248q-66 -20 -179 -40q-12 -2 -46 -7.5t-50 -9t-47.5 -10.5t-48 -14.5t-40.5 -20t-36.5 -28t-24.5 -36t-15.5 -47.5
t-0.5 -59q6 -59 54.5 -102t101.5 -22l5 -13q-63 -21 -115.5 25t-58.5 112q-3 30 1 56t11 46t22 37t28 28.5t36.5 22t39.5 16.5t45 13t44.5 10t47 8.5t44.5 7.5q130 24 188 43q27 49 96 85t90 9q22 -29 -10 -56t-88 -48q-18 -34 -30.5 -75.5t-25.5 -95.5t-23 -86
q-4 -14 -19 -63.5t-20.5 -67.5t-21.5 -61.5t-27 -64t-30.5 -54t-39 -53t-47 -40t-58.5 -34.5q-32 -14 -82.5 -16.5t-99.5 11t-71 40.5zM619 703q42 18 68.5 38.5t13.5 37.5q-23 30 -74 -62l-3 -6q-4 -6 -5 -8zM327 787q-1 4 32 51t39 53l3 -1h6h3q-3 -6 -15 -54t-13 -50
q-3 0 -28.5 0.5t-26.5 0.5z" />
    <glyph glyph-name="Icircumflex" unicode="&#xce;" horiz-adv-x="628" 
d="M16 26q-14 18 -15.5 43.5t21.5 68.5l12 -7q-39 -58 -7 -97q24 -32 70 -41t85 8q41 17 73 46t52 60.5t37.5 77t26.5 80.5t22 86.5t22 80.5q36 117 102 248q-66 -20 -179 -40q-12 -2 -46 -7.5t-50 -9t-47.5 -10.5t-48 -14.5t-40.5 -20t-36.5 -28t-24.5 -36t-15.5 -47.5
t-0.5 -59q6 -59 54.5 -102t101.5 -22l5 -13q-63 -21 -115.5 25t-58.5 112q-3 30 1 56t11 46t22 37t28 28.5t36.5 22t39.5 16.5t45 13t44.5 10t47 8.5t44.5 7.5q130 24 188 43q27 49 96 85t90 9q22 -29 -10 -56t-88 -48q-18 -34 -30.5 -75.5t-25.5 -95.5t-23 -86
q-4 -14 -19 -63.5t-20.5 -67.5t-21.5 -61.5t-27 -64t-30.5 -54t-39 -53t-47 -40t-58.5 -34.5q-32 -14 -82.5 -16.5t-99.5 11t-71 40.5zM619 703q42 18 68.5 38.5t13.5 37.5q-23 30 -74 -62l-3 -6q-4 -6 -5 -8zM433 796l-8 -17q-19 7 -36.5 36t-15.5 57q-10 -11 -32 -37.5
t-35 -39.5l-11 12q74 90 78 96l15 -8q3 -3 24 -49t21 -50z" />
    <glyph glyph-name="Idieresis" unicode="&#xcf;" horiz-adv-x="628" 
d="M16 26q22 -27 71 -40.5t99.5 -11t82.5 16.5q31 14 58.5 34.5t47 40t39 53t30.5 54t27 64t21.5 61.5t20.5 67.5t19 63.5q10 32 23 86t25.5 95.5t30.5 75.5q56 21 88 48t10 56q-21 27 -90 -9t-96 -85q-58 -19 -188 -43q-13 -2 -44.5 -7.5t-47 -8.5t-44.5 -10t-45 -13
t-39.5 -16.5t-36.5 -22t-28 -28.5t-22 -37t-11 -46t-1 -56q6 -66 58.5 -112t115.5 -25l-5 13q-53 -21 -101.5 22t-54.5 102q-3 32 0.5 59t15.5 47.5t24.5 36t36.5 28t40.5 20t48 14.5t47.5 10.5t50 9t46 7.5q113 20 179 40q-66 -131 -102 -248q-9 -29 -22 -80.5t-22 -86.5
t-26.5 -80.5t-37.5 -77t-52 -60.5t-73 -46q-39 -17 -85 -8t-70 41q-32 39 7 97l-12 7q-23 -43 -21.5 -68.5t15.5 -43.5zM619 703q36 63 52 77q18 14 30 -1q13 -17 -13.5 -37.5t-68.5 -38.5zM387 880q0 29 25 29q11 0 18.5 -8.5t7.5 -20.5t-7.5 -21t-18.5 -9t-18 9t-7 21z
M552 869q0 12 7.5 20.5t18.5 8.5t18.5 -8.5t7.5 -20.5q0 -13 -7.5 -21.5t-18.5 -8.5t-18.5 8.5t-7.5 21.5z" />
    <glyph glyph-name="Eth" unicode="&#xd0;" horiz-adv-x="889" 
d="M452 306l1 -11q-66 -29 -119 -37q-47 -139 -144.5 -243.5t-189.5 -112.5l4 10q36 3 68 29.5t59 77t48 104.5t45 130q-50 -2 -89 15t-60.5 45.5t-35.5 65t-13.5 73.5t5.5 71q22 105 123 167q80 51 183 63q39 8 77 6q38 53 91 81t95 30l3 -11q-17 -3 -48.5 -37.5
t-48.5 -63.5q92 -9 162.5 -65.5t104 -145.5t22.5 -190q-11 -108 -75.5 -203.5t-165.5 -135.5q-137 -56 -266 10l10 9q79 -38 146 -20.5t117.5 74t82 127.5t40.5 140q13 112 5 196t-55.5 135.5t-133.5 57.5q-19 -35 -41.5 -97t-34 -98.5t-40.5 -132.5h64v-12h-67
q-14 -47 -44 -139q57 10 115 38zM406 747q-40 0 -70 -5q-102 -16 -178.5 -74.5t-95.5 -150.5q-24 -114 23.5 -182.5t142.5 -69.5l43 142h-64v12h67q74 241 132 328z" />
    <glyph glyph-name="N_tilde" unicode="&#xd1;" horiz-adv-x="806" 
d="M223 368q27 86 47 141.5t58.5 128.5t83.5 122q-8 -42 9 -194q14 -127 35 -257q4 -32 30 -149t35 -130q3 29 11.5 78t25.5 131t43.5 162.5t59.5 158t81 134.5t101 75q46 20 101.5 13t87.5 -48q9 -11 13.5 -26t0.5 -38.5t-20 -47.5l-12 7q40 57 8 97q-64 80 -153 -18
q-52 -57 -100 -154t-79 -187t-71 -201.5t-70 -175.5h-23q-28 16 -83 317q-24 143 -36 259q-12 113 -9 159q-16 -169 -67 -366q-31 -122 -97.5 -241t-151.5 -183q-40 -30 -82 -33l4 10q26 7 52 37t44.5 65.5t40 91.5t32.5 93t28 95t22 74zM725 849q-30 -8 -58 1t-44 25
q-6 5 -20.5 19.5t-24.5 19t-25 1.5q-31 -6 -66 -50l-16 8q37 49 84 56q20 7 53.5 0.5t52.5 -22.5q4 -3 15 -11.5t14.5 -11t13 -8.5t14 -6.5t13 -1.5t15 2.5t15 9t16.5 15.5l12 -14q-10 -11 -31.5 -21.5t-32.5 -10.5z" />
    <glyph glyph-name="Ograve" unicode="&#xd2;" horiz-adv-x="660" 
d="M308 566l-5 12q16 49 53.5 78t62.5 34q50 8 84.5 -5t52.5 -43.5t25.5 -65.5t8.5 -81q4 -139 -60 -263q-41 -80 -97 -135q-51 -53 -112 -83q-99 -49 -172 -12q-66 32 -102.5 89.5t-43 122t4.5 136t33.5 131.5t51.5 108q58 99 152 144.5t207 24.5q0 -1 -0.5 -2l-2 -4
t-1.5 -4l-1 -2q-41 7 -84 -8q-42 -17 -80.5 -58t-67 -94.5t-47.5 -98.5t-33 -91q-42 -145 -47 -213q-9 -133 69 -171q67 -32 159 14q66 36 108 80q57 59 94 131q62 124 59 258q-2 46 -8 77t-21.5 59.5t-47 40t-79.5 5.5q-24 -3 -56.5 -29t-56.5 -82zM419 847
q-1 0 -26.5 -0.5t-28.5 -0.5q-1 2 -13 50t-15 54l12 1q6 -6 39 -53t32 -51z" />
    <glyph glyph-name="Oacute" unicode="&#xd3;" horiz-adv-x="660" 
d="M308 566l-5 12q16 49 53.5 78t62.5 34q50 8 84.5 -5t52.5 -43.5t25.5 -65.5t8.5 -81q4 -139 -60 -263q-41 -80 -97 -135q-51 -53 -112 -83q-99 -49 -172 -12q-66 32 -102.5 89.5t-43 122t4.5 136t33.5 131.5t51.5 108q58 99 152 144.5t207 24.5q0 -1 -0.5 -2l-2 -4
t-1.5 -4l-1 -2q-41 7 -84 -8q-42 -17 -80.5 -58t-67 -94.5t-47.5 -98.5t-33 -91q-42 -145 -47 -213q-9 -133 69 -171q67 -32 159 14q66 36 108 80q57 59 94 131q62 124 59 258q-2 46 -8 77t-21.5 59.5t-47 40t-79.5 5.5q-24 -3 -56.5 -29t-56.5 -82zM347 867q-1 4 32 51
t39 53l3 -1h6h3q-3 -6 -15 -54t-13 -50q-3 0 -28.5 0.5t-26.5 0.5z" />
    <glyph glyph-name="Ocircumflex" unicode="&#xd4;" horiz-adv-x="660" 
d="M308 566l-5 12q16 49 53.5 78t62.5 34q50 8 84.5 -5t52.5 -43.5t25.5 -65.5t8.5 -81q4 -139 -60 -263q-41 -80 -97 -135q-51 -53 -112 -83q-99 -49 -172 -12q-66 32 -102.5 89.5t-43 122t4.5 136t33.5 131.5t51.5 108q58 99 152 144.5t207 24.5q0 -1 -0.5 -2l-2 -4
t-1.5 -4l-1 -2q-41 7 -84 -8q-42 -17 -80.5 -58t-67 -94.5t-47.5 -98.5t-33 -91q-42 -145 -47 -213q-9 -133 69 -171q67 -32 159 14q66 36 108 80q57 59 94 131q62 124 59 258q-2 46 -8 77t-21.5 59.5t-47 40t-79.5 5.5q-24 -3 -56.5 -29t-56.5 -82zM453 846l-8 -17
q-19 7 -36.5 36t-15.5 57q-10 -11 -32 -37.5t-35 -39.5l-11 12q74 90 78 96l15 -8q3 -3 24 -49t21 -50z" />
    <glyph glyph-name="Otilde" unicode="&#xd5;" horiz-adv-x="660" 
d="M308 566l-5 12q16 49 53.5 78t62.5 34q50 8 84.5 -5t52.5 -43.5t25.5 -65.5t8.5 -81q4 -139 -60 -263q-41 -80 -97 -135q-51 -53 -112 -83q-99 -49 -172 -12q-66 32 -102.5 89.5t-43 122t4.5 136t33.5 131.5t51.5 108q58 99 152 144.5t207 24.5q0 -1 -0.5 -2l-2 -4
t-1.5 -4l-1 -2q-41 7 -84 -8q-42 -17 -80.5 -58t-67 -94.5t-47.5 -98.5t-33 -91q-42 -145 -47 -213q-9 -133 69 -171q67 -32 159 14q66 36 108 80q57 59 94 131q62 124 59 258q-2 46 -8 77t-21.5 59.5t-47 40t-79.5 5.5q-24 -3 -56.5 -29t-56.5 -82zM470 853q-30 -8 -58 1
t-44 25q-6 5 -20.5 19.5t-24.5 19t-25 1.5q-31 -6 -66 -50l-16 8q37 49 84 56q20 7 53.5 0.5t52.5 -22.5q4 -3 15 -11.5t14.5 -11t13 -8.5t14 -6.5t13 -1.5t15 2.5t15 9t16.5 15.5l12 -14q-10 -11 -31.5 -21.5t-32.5 -10.5z" />
    <glyph glyph-name="Odieresis" unicode="&#xd6;" horiz-adv-x="660" 
d="M303 578l5 -12q24 56 56.5 82t56.5 29q48 6 79.5 -5.5t47 -40t21.5 -59.5t8 -77q3 -134 -59 -258q-37 -72 -94 -131q-42 -44 -108 -80q-92 -46 -159 -14q-41 20 -58 65t-11 103t16.5 105t25.5 96q4 10 5 15q14 46 33 91t47.5 98.5t67 94.5t80.5 58q43 15 84 8l1 3
q2 3 3 6l1 3q-113 21 -207 -24.5t-152 -144.5q-29 -48 -51.5 -108t-33.5 -131.5t-4.5 -136t43 -122t102.5 -89.5q73 -37 172 12q61 30 112 83q56 55 97 135q64 124 60 263q-1 46 -8.5 81t-25.5 65.5t-52.5 43.5t-84.5 5q-25 -5 -62.5 -34t-53.5 -78zM267 890q0 29 25 29
q11 0 18.5 -8.5t7.5 -20.5t-7.5 -21t-18.5 -9t-18 9t-7 21zM432 879q0 12 7.5 20.5t18.5 8.5t18.5 -8.5t7.5 -20.5q0 -13 -7.5 -21.5t-18.5 -8.5t-18.5 8.5t-7.5 21.5z" />
    <glyph glyph-name="multiply" unicode="&#xd7;" horiz-adv-x="326" 
d="M262 139l-11 -9l-89 110l-88 -110l-10 9l90 111l-90 113l10 8l88 -110l89 110l11 -8l-90 -113z" />
    <glyph glyph-name="Oslash" unicode="&#xd8;" horiz-adv-x="689" 
d="M308 566l-5 12q16 49 53.5 78t62.5 34q50 8 84.5 -5t52.5 -43.5t25.5 -65.5t8.5 -81q4 -139 -60 -263q-41 -80 -97 -135q-51 -53 -112 -83q-99 -49 -172 -12q-66 32 -102.5 89.5t-43 122t4.5 136t33.5 131.5t51.5 108q58 99 152 144.5t207 24.5q0 -1 -0.5 -2l-2 -4
t-1.5 -4l-1 -2q-41 7 -84 -8q-42 -17 -80.5 -58t-67 -94.5t-47.5 -98.5t-33 -91q-42 -145 -47 -213q-9 -133 69 -171q0 -1 2 -1l316 666q-24 3 -54 0q-24 -3 -56.5 -29t-56.5 -82zM316 26q66 36 108 80q57 59 94 131q62 124 59 258q-3 76 -21 121.5t-68 57.5l-315 -669
q62 -19 143 21z" />
    <glyph glyph-name="U_grave" unicode="&#xd9;" horiz-adv-x="690" 
d="M51 802q-12 -4 -19 -13q-25 -30 -18 -45q6 -13 22 3q5 6 10 14q12 19 5 41zM22 796q7 8 24 18q-10 17 -28 20l6 8q7 0 17.5 -8t15.5 -16q8 4 25 4q26 0 48 -9q59 -25 92.5 -67t41 -92.5t0.5 -108.5t-27 -117t-43 -117t-45.5 -109t-37 -91t-14.5 -67t19 -33q63 -21 135 26
q60 41 118 124q43 63 93 180l39 83q7 15 50.5 118.5t67.5 151.5l83 -5q-117 -348 -176 -509q-27 -76 -40 -138.5t-12.5 -103.5t10.5 -71t26 -45.5t36 -23t38.5 -7.5t35.5 6l6 -9q-21 -8 -56 -5.5t-77.5 20.5t-69.5 62.5t-32.5 121t33.5 194.5q8 22 18.5 57l13.5 45
q-33 -67 -77 -131q-60 -85 -120 -125q-75 -52 -148 -28q-80 29 -75 163q1 41 15 92t23.5 75.5t39.5 97.5q3 7 14.5 34t17.5 43t17 46t15.5 51t10 49t3 48.5t-8.5 41.5t-20.5 36t-36.5 25q-19 8 -44 8q-10 0 -20 -3q13 -25 -6 -56q-25 -33 -45 -22q-19 10 -7 39q5 15 18 29z
M458 799q-1 0 -26.5 -0.5t-28.5 -0.5q-1 2 -13 50t-15 54l12 1q6 -6 39 -53t32 -51z" />
    <glyph glyph-name="U_acute" unicode="&#xda;" horiz-adv-x="690" 
d="M51 802q-12 -4 -19 -13q-25 -30 -18 -45q6 -13 22 3q5 6 10 14q12 19 5 41zM22 796q7 8 24 18q-10 17 -28 20l6 8q7 0 17.5 -8t15.5 -16q8 4 25 4q26 0 48 -9q59 -25 92.5 -67t41 -92.5t0.5 -108.5t-27 -117t-43 -117t-45.5 -109t-37 -91t-14.5 -67t19 -33q63 -21 135 26
q60 41 118 124q43 63 93 180l39 83q7 15 50.5 118.5t67.5 151.5l83 -5q-117 -348 -176 -509q-27 -76 -40 -138.5t-12.5 -103.5t10.5 -71t26 -45.5t36 -23t38.5 -7.5t35.5 6l6 -9q-21 -8 -56 -5.5t-77.5 20.5t-69.5 62.5t-32.5 121t33.5 194.5q8 22 18.5 57l13.5 45
q-33 -67 -77 -131q-60 -85 -120 -125q-75 -52 -148 -28q-80 29 -75 163q1 41 15 92t23.5 75.5t39.5 97.5q3 7 14.5 34t17.5 43t17 46t15.5 51t10 49t3 48.5t-8.5 41.5t-20.5 36t-36.5 25q-19 8 -44 8q-10 0 -20 -3q13 -25 -6 -56q-25 -33 -45 -22q-19 10 -7 39q5 15 18 29z
M379 721q-1 4 32 51t39 53l3 -1h6h3q-3 -6 -15 -54t-13 -50q-3 0 -28.5 0.5t-26.5 0.5z" />
    <glyph glyph-name="U_circumflex" unicode="&#xdb;" horiz-adv-x="690" 
d="M51 802q-12 -4 -19 -13q-25 -30 -18 -45q6 -13 22 3q5 6 10 14q12 19 5 41zM22 796q7 8 24 18q-10 17 -28 20l6 8q7 0 17.5 -8t15.5 -16q8 4 25 4q26 0 48 -9q59 -25 92.5 -67t41 -92.5t0.5 -108.5t-27 -117t-43 -117t-45.5 -109t-37 -91t-14.5 -67t19 -33q63 -21 135 26
q60 41 118 124q43 63 93 180l39 83q7 15 50.5 118.5t67.5 151.5l83 -5q-117 -348 -176 -509q-27 -76 -40 -138.5t-12.5 -103.5t10.5 -71t26 -45.5t36 -23t38.5 -7.5t35.5 6l6 -9q-21 -8 -56 -5.5t-77.5 20.5t-69.5 62.5t-32.5 121t33.5 194.5q8 22 18.5 57l13.5 45
q-33 -67 -77 -131q-60 -85 -120 -125q-75 -52 -148 -28q-80 29 -75 163q1 41 15 92t23.5 75.5t39.5 97.5q3 7 14.5 34t17.5 43t17 46t15.5 51t10 49t3 48.5t-8.5 41.5t-20.5 36t-36.5 25q-19 8 -44 8q-10 0 -20 -3q13 -25 -6 -56q-25 -33 -45 -22q-19 10 -7 39q5 15 18 29z
M507 764l-8 -17q-19 7 -36.5 36t-15.5 57q-10 -11 -32 -37.5t-35 -39.5l-11 12q74 90 78 96l15 -8q3 -3 24 -49t21 -50z" />
    <glyph glyph-name="U_dieresis" unicode="&#xdc;" horiz-adv-x="690" 
d="M51 802q7 -22 -5 -41q-16 -27 -28 -21q-13 6 2 33q5 8 12 16q7 9 19 13zM22 796q-30 -33 -20 -58q8 -21 31 -9q12 6 23 21q19 31 6 56q10 3 20 3q25 0 44 -8q22 -10 36.5 -25t20.5 -36t8.5 -41.5t-3 -48.5t-10 -49t-15.5 -51t-17 -46t-17.5 -43t-14.5 -34
q-1 -3 -11 -27.5t-12 -29t-10.5 -26t-10.5 -28t-8.5 -25t-8.5 -27t-6 -24.5t-5.5 -27t-3.5 -24.5t-2 -26.5q-5 -134 75 -163q73 -24 148 28q60 40 120 125q44 64 77 131l-13.5 -45t-18.5 -57q-26 -81 -32 -147t5.5 -107.5t33.5 -72.5t50 -45.5t57 -21t51.5 -5.5t36.5 6l-6 9
q-17 -6 -35.5 -6t-38.5 7.5t-36 23t-26 45.5t-10.5 71t12.5 103.5t40 138.5q59 161 176 509l-83 5q-24 -48 -67.5 -151.5t-50.5 -118.5l-39 -83q-50 -117 -93 -180q-58 -83 -118 -124q-72 -47 -135 -26q-19 6 -19 33t14.5 67t37 91t45.5 109t43 117t27 117t-0.5 108.5
t-41 92.5t-92.5 67q-22 9 -48 9q-17 0 -25 -4q-5 8 -15.5 16t-17.5 8l-6 -8q18 -3 28 -20q-17 -10 -24 -18zM358 837q0 29 25 29q11 0 18.5 -8.5t7.5 -20.5t-7.5 -21t-18.5 -9t-18 9t-7 21zM523 826q0 12 7.5 20.5t18.5 8.5t18.5 -8.5t7.5 -20.5q0 -13 -7.5 -21.5
t-18.5 -8.5t-18.5 8.5t-7.5 21.5z" />
    <glyph glyph-name="Y_acute" unicode="&#xdd;" horiz-adv-x="662" 
d="M198 -293q18 44 47 89q18 27 48 64q16 21 54 63q11 13 27.5 29.5l22.5 22.5q1 9 1.5 20.5t0.5 22.5v22.5v22t-0.5 20.5t-0.5 18t-0.5 13.5t-0.5 8.5v3q-10 -16 -46 -51q-29 -29 -60 -49q-37 -24 -76 -29t-69 11q-51 28 -81.5 63t-41 70t-5 77t19.5 78.5t40.5 81.5
t49.5 78t54 75q36 49 52 73t34 57.5t16.5 53t-18.5 31.5q-39 27 -136 -52q12 -55 -1 -118t-51 -88q-23 -16 -49.5 -6.5t-27.5 35.5q-2 32 31 85t82 97q-13 36 -48 83l8 7q37 -47 51 -82q100 83 150 48q25 -17 32.5 -47.5t3 -60t-22 -72t-30 -67.5t-33.5 -62q-7 -12 -10 -18
q-5 -10 -27.5 -50t-28.5 -51.5t-21.5 -44.5t-20 -52.5t-10 -48.5t-5.5 -58q0 -77 49 -103q58 -30 135 18q25 16 47 38.5t37.5 42.5t33.5 51.5t27.5 50.5t27.5 57t26 55l45 96q1 2 16.5 41t30.5 76.5t17 40.5l12 -5q-57 -154 -87 -286t-25 -262q60 64 168 204v-21
q-130 -162 -168 -203q10 -33 8 -84.5t-9 -109t-28.5 -114.5t-49 -101.5t-71.5 -70t-96 -20.5q-31 4 -48 26.5t-19 53.5t2.5 60.5t14.5 52.5zM397 -44q-7 -8 -19 -20.5t-20 -21.5q-22 -22 -54 -61q-30 -37 -49 -65q-34 -56 -45 -85q-8 -20 -12.5 -46.5t-4 -54.5t14 -49
t38.5 -25q32 -5 59 13t43.5 51t26.5 64.5t15 64.5q9 28 8 127.5t-1 107.5zM118 684q-45 -42 -75.5 -89.5t-28.5 -77.5q1 -20 22.5 -24.5t33.5 5.5q35 26 45.5 81.5t2.5 104.5zM440 691q-1 4 32 51t39 53l3 -1h6h3q-3 -6 -15 -54t-13 -50q-3 0 -28.5 0.5t-26.5 0.5z" />
    <glyph glyph-name="Thorn" unicode="&#xde;" horiz-adv-x="593" 
d="M0 -98l4 10q40 23 67 90.5t44.5 157t35 183t49 187t74.5 150.5q97 125 228 97q54 -11 99 -53q51 -51 58.5 -120t-18.5 -127t-72.5 -100t-95.5 -46q-52 -4 -103 13.5t-62 51.5l13 1q18 -39 75 -50q65 -12 120 86q50 92 54 199q4 105 -48 123q-6 2 -12 3q-37 4 -76 -18.5
t-66 -60.5q-40 -72 -66 -162t-37 -162t-36 -161.5t-64 -161.5q-73 -123 -165 -130z" />
    <glyph glyph-name="germandbls" unicode="&#xdf;" horiz-adv-x="364" 
d="M158 246q38 -22 56.5 -68t4.5 -92t-59 -64q-36 -14 -76 -18l-51 -3l-2 13q36 0 52 2q34 2 72 18q39 17 51 56.5t-3.5 80.5t-50.5 64q-17 12 -39 14l1 13q26 0 35 4q34 16 51 53t14 77q-2 41 -38 59q-13 7 -24.5 -3t-20 -34.5t-16 -51t-13 -62.5t-9 -59.5t-6.5 -51.5
t-3 -29q-10 -153 -168 -211q-21 -9 -38 2q-14 12 -15 34h13q2 -16 10 -23h7q21 6 37 22.5t24.5 35t14.5 47.5t8.5 47t4.5 47q10 92 21 141q27 111 75 149q19 14 51 17.5t52 -5.5q43 -19 48 -69q2 -44 -17.5 -86t-57.5 -58q-6 0 -6 -2q0 -1 10 -6z" />
    <glyph glyph-name="agrave" unicode="&#xe0;" horiz-adv-x="446" 
d="M254 39q35 25 89.5 81t102.5 118v-21q-48 -59 -99 -111t-86 -78q-18 -13 -32.5 -13.5t-20.5 5.5t-9 14q-13 33 -8 102q-36 -87 -81 -122q-18 -14 -61.5 -19.5t-66.5 6.5q-19 11 -29 40.5t-6 65.5q11 87 53.5 146.5t96.5 82.5q42 20 91.5 21t82.5 -19q36 -23 36 -133v-15
h-13v15q0 101 -31 122q-28 22 -89 -3q-87 -37 -121 -220q-15 -78 6 -91q15 -10 42 11q35 27 62.5 82t39.5 112l5 23l38 -3q9 0 10.5 -17t-2 -43.5t-8 -53.5t-8 -51.5t-2.5 -32.5q4 -14 18 -1zM229 447q-1 0 -26.5 -0.5t-28.5 -0.5q-1 2 -13 50t-15 54l12 1q6 -6 39 -53
t32 -51z" />
    <glyph glyph-name="aacute" unicode="&#xe1;" horiz-adv-x="446" 
d="M254 39q35 25 89.5 81t102.5 118v-21q-48 -59 -99 -111t-86 -78q-18 -13 -32.5 -13.5t-20.5 5.5t-9 14q-13 33 -8 102q-36 -87 -81 -122q-18 -14 -61.5 -19.5t-66.5 6.5q-19 11 -29 40.5t-6 65.5q11 87 53.5 146.5t96.5 82.5q42 20 91.5 21t82.5 -19q36 -23 36 -133v-15
h-13v15q0 101 -31 122q-28 22 -89 -3q-87 -37 -121 -220q-15 -78 6 -91q15 -10 42 11q35 27 62.5 82t39.5 112l5 23l38 -3q9 0 10.5 -17t-2 -43.5t-8 -53.5t-8 -51.5t-2.5 -32.5q4 -14 18 -1zM117 447q-1 4 32 51t39 53l3 -1h6h3q-3 -6 -15 -54t-13 -50q-3 0 -28.5 0.5
t-26.5 0.5z" />
    <glyph glyph-name="acircumflex" unicode="&#xe2;" horiz-adv-x="446" 
d="M254 39q35 25 89.5 81t102.5 118v-21q-48 -59 -99 -111t-86 -78q-18 -13 -32.5 -13.5t-20.5 5.5t-9 14q-13 33 -8 102q-36 -87 -81 -122q-18 -14 -61.5 -19.5t-66.5 6.5q-19 11 -29 40.5t-6 65.5q11 87 53.5 146.5t96.5 82.5q42 20 91.5 21t82.5 -19q36 -23 36 -133v-15
h-13v15q0 101 -31 122q-28 22 -89 -3q-87 -37 -121 -220q-15 -78 6 -91q15 -10 42 11q35 27 62.5 82t39.5 112l5 23l38 -3q9 0 10.5 -17t-2 -43.5t-8 -53.5t-8 -51.5t-2.5 -32.5q4 -14 18 -1zM243 436l-8 -17q-19 7 -36.5 36t-15.5 57q-10 -11 -32 -37.5t-35 -39.5l-11 12
q74 90 78 96l15 -8q3 -3 24 -49t21 -50z" />
    <glyph glyph-name="atilde" unicode="&#xe3;" horiz-adv-x="446" 
d="M254 39q35 25 89.5 81t102.5 118v-21q-48 -59 -99 -111t-86 -78q-18 -13 -32.5 -13.5t-20.5 5.5t-9 14q-13 33 -8 102q-36 -87 -81 -122q-18 -14 -61.5 -19.5t-66.5 6.5q-19 11 -29 40.5t-6 65.5q11 87 53.5 146.5t96.5 82.5q42 20 91.5 21t82.5 -19q36 -23 36 -133v-15
h-13v15q0 101 -31 122q-28 22 -89 -3q-87 -37 -121 -220q-15 -78 6 -91q15 -10 42 11q35 27 62.5 82t39.5 112l5 23l38 -3q9 0 10.5 -17t-2 -43.5t-8 -53.5t-8 -51.5t-2.5 -32.5q4 -14 18 -1zM270 443q-30 -8 -58 1t-44 25q-6 5 -20.5 19.5t-24.5 19t-25 1.5q-31 -6 -66 -50
l-16 8q37 49 84 56q20 7 53.5 0.5t52.5 -22.5q4 -3 15 -11.5t14.5 -11t13 -8.5t14 -6.5t13 -1.5t15 2.5t15 9t16.5 15.5l12 -14q-10 -11 -31.5 -21.5t-32.5 -10.5z" />
    <glyph glyph-name="adiaeresis" unicode="&#xe4;" horiz-adv-x="446" 
d="M254 39q-14 -13 -18 1q-1 8 2.5 32.5t8 51.5t8 53.5t2 43.5t-10.5 17l-38 3l-5 -23q-12 -57 -39.5 -112t-62.5 -82q-27 -21 -42 -11q-21 13 -6 91q34 183 121 220q61 25 89 3q31 -21 31 -122v-15h13v15q0 110 -36 133q-33 20 -82.5 19t-91.5 -21q-54 -23 -96.5 -82.5
t-53.5 -146.5q-4 -36 6 -65.5t29 -40.5q23 -12 66.5 -6.5t61.5 19.5q45 35 81 122q-5 -69 8 -102q3 -8 9 -14t20.5 -5.5t32.5 13.5q35 26 86 78t99 111v21q-48 -62 -102.5 -118t-89.5 -81zM87 480q0 29 25 29q11 0 18.5 -8.5t7.5 -20.5t-7.5 -21t-18.5 -9t-18 9t-7 21z
M252 469q0 12 7.5 20.5t18.5 8.5t18.5 -8.5t7.5 -20.5q0 -13 -7.5 -21.5t-18.5 -8.5t-18.5 8.5t-7.5 21.5z" />
    <glyph glyph-name="aring" unicode="&#xe5;" horiz-adv-x="446" 
d="M254 39q35 25 89.5 81t102.5 118v-21q-48 -59 -99 -111t-86 -78q-18 -13 -32.5 -13.5t-20.5 5.5t-9 14q-13 33 -8 102q-36 -87 -81 -122q-18 -14 -61.5 -19.5t-66.5 6.5q-19 11 -29 40.5t-6 65.5q11 87 53.5 146.5t96.5 82.5q42 20 91.5 21t82.5 -19q36 -23 36 -133v-15
h-13v15q0 101 -31 122q-28 22 -89 -3q-87 -37 -121 -220q-15 -78 6 -91q15 -10 42 11q35 27 62.5 82t39.5 112l5 23l38 -3q9 0 10.5 -17t-2 -43.5t-8 -53.5t-8 -51.5t-2.5 -32.5q4 -14 18 -1zM144 519q17 29 48 35t54 -15.5t16 -61.5q-7 -43 -49 -54q-41 -10 -67 16
q-29 30 -2 80zM162 499q-16 -34 13 -48q26 -14 48 4q13 12 15 32q2 23 -13.5 33.5t-35 3.5t-27.5 -25z" />
    <glyph glyph-name="ae" unicode="&#xe6;" horiz-adv-x="666" 
d="M347 106q-1 -58 18 -80.5t50 -12t61 31t60 49.5q88 86 130 144v-21q-13 -17 -33.5 -39.5t-47 -51t-40.5 -44.5q-43 -48 -113 -77.5t-137.5 -24t-95.5 53.5q-13 23 -8 102q-36 -87 -81 -122q-18 -14 -61.5 -19.5t-66.5 6.5q-19 11 -29 40.5t-6 65.5q11 87 53.5 146.5
t96.5 82.5q42 20 91.5 21t82.5 -19q28 -19 34 -82q67 82 135 106q32 11 51 -13q23 -31 -8 -82q-19 -31 -57 -74q-43 -51 -79 -87zM263 327q-28 22 -89 -3q-87 -37 -121 -220q-15 -78 6 -91q15 -10 42 11q35 27 62.5 82t39.5 112l5 23l38 -3q15 0 8 -62q16 34 39 64
q-4 68 -30 87zM444 350q-28 -10 -57 -66q-29 -54 -39 -150q82 73 124 141q10 16 13 35t-5 31q-11 16 -36 9z" />
    <glyph glyph-name="ccedilla" unicode="&#xe7;" horiz-adv-x="373" 
d="M1 -175l6 12q36 -23 70 11q28 27 21 54q-6 23 -38 23l16 67q-69 4 -93 79q-26 78 10 167q38 96 123 125q47 16 103 7q20 -3 35 -15.5t18 -26.5l-13 -2q-7 24 -38 31q-18 5 -39 -3q-53 -20 -86 -117.5t-27 -173.5q3 -45 31.5 -52t62.5 16q29 15 91 77t119 134v-21
q-58 -71 -117.5 -129.5t-89.5 -73.5q-35 -18 -71 -21l-14 -48q63 -17 56 -60q-5 -36 -46 -58q-47 -25 -90 -2z" />
    <glyph glyph-name="egrave" unicode="&#xe8;" horiz-adv-x="371" 
d="M-56 121q3 61 66 140.5t125 100.5q19 5 36.5 0.5t24.5 -13.5q23 -31 -8 -82q-43 -72 -135 -151q-2 -51 10 -77t32 -28t47 10.5t51 31t48 41.5q88 86 130 144v-21q-13 -17 -33.5 -39.5t-47 -51t-40.5 -44.5q-56 -64 -130.5 -84.5t-127 12.5t-48.5 111zM149 350
q-28 -10 -57 -66q-29 -54 -39 -150q82 73 124 141q10 16 13 35t-5 31q-11 16 -36 9zM143 447q-1 0 -26.5 -0.5t-28.5 -0.5q-1 2 -13 50t-15 54l12 1q6 -6 39 -53t32 -51z" />
    <glyph glyph-name="eacute" unicode="&#xe9;" horiz-adv-x="370" 
d="M-57 121q3 61 66 140.5t125 100.5q19 5 36.5 0.5t24.5 -13.5q23 -31 -8 -82q-43 -72 -135 -151q-2 -51 10 -77t32 -28t47 10.5t51 31t48 41.5q88 86 130 144v-21q-13 -17 -33.5 -39.5t-47 -51t-40.5 -44.5q-56 -64 -130.5 -84.5t-127 12.5t-48.5 111zM148 350
q-28 -10 -57 -66q-29 -54 -39 -150q82 73 124 141q10 16 13 35t-5 31q-11 16 -36 9zM120 447q-1 4 32 51t39 53l3 -1h6h3q-3 -6 -15 -54t-13 -50q-3 0 -28.5 0.5t-26.5 0.5z" />
    <glyph glyph-name="ecircumflex" unicode="&#xea;" horiz-adv-x="370" 
d="M-57 121q3 61 66 140.5t125 100.5q19 5 36.5 0.5t24.5 -13.5q23 -31 -8 -82q-43 -72 -135 -151q-2 -51 10 -77t32 -28t47 10.5t51 31t48 41.5q88 86 130 144v-21q-13 -17 -33.5 -39.5t-47 -51t-40.5 -44.5q-56 -64 -130.5 -84.5t-127 12.5t-48.5 111zM148 350
q-28 -10 -57 -66q-29 -54 -39 -150q82 73 124 141q10 16 13 35t-5 31q-11 16 -36 9zM206 456l-8 -17q-19 7 -36.5 36t-15.5 57q-10 -11 -32 -37.5t-35 -39.5l-11 12q74 90 78 96l15 -8q3 -3 24 -49t21 -50z" />
    <glyph glyph-name="ediaeresis" unicode="&#xeb;" horiz-adv-x="370" 
d="M-57 121q-4 -78 48.5 -111t127 -12.5t130.5 84.5q14 16 40.5 44.5t47 51t33.5 39.5v21q-42 -58 -130 -144q-24 -23 -48 -41.5t-51 -31t-47 -10.5t-32 28t-10 77q92 79 135 151q31 51 8 82q-7 9 -24.5 13.5t-36.5 -0.5q-62 -21 -125 -100.5t-66 -140.5zM148 350
q25 7 36 -9q8 -12 5 -31t-13 -35q-42 -68 -124 -141q10 96 39 150q29 56 57 66zM30 480q0 29 25 29q11 0 18.5 -8.5t7.5 -20.5t-7.5 -21t-18.5 -9t-18 9t-7 21zM195 469q0 12 7.5 20.5t18.5 8.5t18.5 -8.5t7.5 -20.5q0 -13 -7.5 -21.5t-18.5 -8.5t-18.5 8.5t-7.5 21.5z" />
    <glyph glyph-name="igrave" unicode="&#xec;" horiz-adv-x="327" 
d="M75 8q27 1 84.5 52t98.5 97t69 81v-21q-184 -222 -252 -222q-48 17 -76.5 55t-31.5 83t9 89t44.5 78.5t75.5 46.5l16 -1q-8 -22 -21.5 -69.5t-29 -112t-13.5 -111t27 -45.5zM129 447q-1 0 -26.5 -0.5t-28.5 -0.5q-1 2 -13 50t-15 54l12 1q6 -6 39 -53t32 -51z" />
    <glyph glyph-name="iacute" unicode="&#xed;" horiz-adv-x="327" 
d="M75 8q27 1 84.5 52t98.5 97t69 81v-21q-184 -222 -252 -222q-48 17 -76.5 55t-31.5 83t9 89t44.5 78.5t75.5 46.5l16 -1q-8 -22 -21.5 -69.5t-29 -112t-13.5 -111t27 -45.5zM117 447q-1 4 32 51t39 53l3 -1h6h3q-3 -6 -15 -54t-13 -50q-3 0 -28.5 0.5t-26.5 0.5z" />
    <glyph glyph-name="icircumflex" unicode="&#xee;" horiz-adv-x="327" 
d="M75 8q27 1 84.5 52t98.5 97t69 81v-21q-184 -222 -252 -222q-48 17 -76.5 55t-31.5 83t9 89t44.5 78.5t75.5 46.5l16 -1q-8 -22 -21.5 -69.5t-29 -112t-13.5 -111t27 -45.5zM193 436l-8 -17q-19 7 -36.5 36t-15.5 57q-10 -11 -32 -37.5t-35 -39.5l-11 12q74 90 78 96
l15 -8q3 -3 24 -49t21 -50z" />
    <glyph glyph-name="idiaeresis" unicode="&#xef;" horiz-adv-x="327" 
d="M75 8q27 1 84.5 52t98.5 97t69 81v-21q-184 -222 -252 -222q-48 17 -76.5 55t-31.5 83t9 89t44.5 78.5t75.5 46.5l16 -1q-8 -22 -21.5 -69.5t-29 -112t-13.5 -111t27 -45.5zM7 480q0 29 25 29q11 0 18.5 -8.5t7.5 -20.5t-7.5 -21t-18.5 -9t-18 9t-7 21zM172 469
q0 12 7.5 20.5t18.5 8.5t18.5 -8.5t7.5 -20.5q0 -13 -7.5 -21.5t-18.5 -8.5t-18.5 8.5t-7.5 21.5z" />
    <glyph glyph-name="eth" unicode="&#xf0;" horiz-adv-x="525" 
d="M368 68q77 66 157 170v-21q-68 -85 -150 -159q-38 -35 -68.5 -48t-47.5 -4.5t-20 33.5q-3 33 12 133l-8 -18q-44 -98 -112 -143q-49 -27 -91 -14.5t-69.5 51t-23.5 79.5q3 97 90 163q72 53 143 48q70 -5 81 -65q1 -4 1 -7l3 -30l2 5v1q23 89 48 165h-94v12h99
q33 99 70 165l23 -6q47 -28 12 -159h70v-12h-73q-15 -53 -83 -234q-48 -126 -33 -138q13 -10 62 33zM107 14q50 27 83 76t62 117q0 67 -17.5 97t-69.5 24q-46 -11 -83 -112q-35 -97 -26 -166q8 -59 51 -36z" />
    <glyph glyph-name="ntilde" unicode="&#xf1;" horiz-adv-x="536" 
d="M312 22q21 0 88.5 65.5t135.5 150.5v-21q-64 -79 -125.5 -139t-88.5 -68q-20 -5 -66 2t-52 22q-7 17 -7.5 40t3 44.5t11 48.5t14.5 47.5t16.5 46.5t13.5 41q5 16 6.5 21.5t2 15t-5 13t-15.5 4.5q-27 1 -56.5 -27.5t-58.5 -82.5t-48 -96t-42 -100q-16 -35 -20 -50l-82 5
q7 59 37 181t49 162q3 0 9 -2t18.5 -12t18.5 -30.5t9.5 -56.5t-10.5 -91q15 32 20.5 43t22.5 44t29 48.5t30 37t35.5 31t35.5 9.5q35 0 69 -18.5t36 -43.5q4 -46 -11.5 -96t-32 -93.5t-14.5 -73.5q2 -22 25 -22zM330 443q-30 -8 -58 1t-44 25q-6 5 -20.5 19.5t-24.5 19
t-25 1.5q-31 -6 -66 -50l-16 8q37 49 84 56q20 7 53.5 0.5t52.5 -22.5q4 -3 15 -11.5t14.5 -11t13 -8.5t14 -6.5t13 -1.5t15 2.5t15 9t16.5 15.5l12 -14q-10 -11 -31.5 -21.5t-32.5 -10.5z" />
    <glyph glyph-name="ograve" unicode="&#xf2;" horiz-adv-x="448" 
d="M208 364q33 -3 51 -32l-11 -7q-17 25 -44 26q-55 3 -96 -86q-41 -87 -36 -175q5 -84 54 -85q19 0 43 13q54 31 87 108.5t8 171.5q-1 9 5.5 9t10.5 -6q6 -8 19 -28.5t22.5 -35t24.5 -28t29.5 -16.5t33.5 7.5t39 37.5v-21q-15 -18 -30.5 -27t-28 -11t-26 4.5t-22.5 13.5
t-20 20.5t-16 21.5t-13 21t-9 14q14 -92 -20.5 -163t-89.5 -101q-95 -54 -154 9q-48 51 -43 142q5 101 73 159q62 52 159 44zM220 437q-1 0 -26.5 -0.5t-28.5 -0.5q-1 2 -13 50t-15 54l12 1q6 -6 39 -53t32 -51z" />
    <glyph glyph-name="oacute" unicode="&#xf3;" horiz-adv-x="448" 
d="M208 364q33 -3 51 -32l-11 -7q-17 25 -44 26q-55 3 -96 -86q-41 -87 -36 -175q5 -84 54 -85q19 0 43 13q54 31 87 108.5t8 171.5q-1 9 5.5 9t10.5 -6q6 -8 19 -28.5t22.5 -35t24.5 -28t29.5 -16.5t33.5 7.5t39 37.5v-21q-15 -18 -30.5 -27t-28 -11t-26 4.5t-22.5 13.5
t-20 20.5t-16 21.5t-13 21t-9 14q14 -92 -20.5 -163t-89.5 -101q-95 -54 -154 9q-48 51 -43 142q5 101 73 159q62 52 159 44zM148 437q-1 4 32 51t39 53l3 -1h6h3q-3 -6 -15 -54t-13 -50q-3 0 -28.5 0.5t-26.5 0.5z" />
    <glyph glyph-name="ocircumflex" unicode="&#xf4;" horiz-adv-x="447" 
d="M207 364q33 -3 51 -32l-11 -7q-17 25 -44 26q-55 3 -96 -86q-41 -87 -36 -175q5 -84 54 -85q19 0 43 13q54 31 87 108.5t8 171.5q-1 9 5.5 9t10.5 -6q6 -8 19 -28.5t22.5 -35t24.5 -28t29.5 -16.5t33.5 7.5t39 37.5v-21q-15 -18 -30.5 -27t-28 -11t-26 4.5t-22.5 13.5
t-20 20.5t-16 21.5t-13 21t-9 14q14 -92 -20.5 -163t-89.5 -101q-95 -54 -154 9q-48 51 -43 142q5 101 73 159q62 52 159 44zM243 446l-8 -17q-19 7 -36.5 36t-15.5 57q-10 -11 -32 -37.5t-35 -39.5l-11 12q74 90 78 96l15 -8q3 -3 24 -49t21 -50z" />
    <glyph glyph-name="otilde" unicode="&#xf5;" horiz-adv-x="450" 
d="M210 364q33 -3 51 -32l-11 -7q-17 25 -44 26q-55 3 -96 -86q-41 -87 -36 -175q5 -84 54 -85q19 0 43 13q54 31 87 108.5t8 171.5q-1 9 5.5 9t10.5 -6q6 -8 19 -28.5t22.5 -35t24.5 -28t29.5 -16.5t33.5 7.5t39 37.5v-21q-15 -18 -30.5 -27t-28 -11t-26 4.5t-22.5 13.5
t-20 20.5t-16 21.5t-13 21t-9 14q14 -92 -20.5 -163t-89.5 -101q-95 -54 -154 9q-48 51 -43 142q5 101 73 159q62 52 159 44zM293 443q-30 -8 -58 1t-44 25q-6 5 -20.5 19.5t-24.5 19t-25 1.5q-31 -6 -66 -50l-16 8q37 49 84 56q20 7 53.5 0.5t52.5 -22.5q4 -3 15 -11.5
t14.5 -11t13 -8.5t14 -6.5t13 -1.5t15 2.5t15 9t16.5 15.5l12 -14q-10 -11 -31.5 -21.5t-32.5 -10.5z" />
    <glyph glyph-name="odiaeresis" unicode="&#xf6;" horiz-adv-x="450" 
d="M210 364q-133 11 -196 -87q-48 -75 -33 -168q13 -84 70 -112q53 -27 124 13q55 30 89.5 101t20.5 163q1 -1 9 -14t13 -21t16 -21.5t20 -20.5t22.5 -13.5t26 -4.5t28 11t30.5 27v21q-20 -27 -39 -37.5t-33.5 -7.5t-29.5 16.5t-24.5 28t-22.5 35t-19 28.5q-4 6 -10.5 6
t-5.5 -9q25 -94 -8 -171.5t-87 -108.5q-69 -38 -90 33q-20 67 11 168q32 102 84 126q15 7 30 6q27 -1 44 -26l11 7q-18 29 -51 32zM70 480q0 29 25 29q11 0 18.5 -8.5t7.5 -20.5t-7.5 -21t-18.5 -9t-18 9t-7 21zM235 469q0 12 7.5 20.5t18.5 8.5t18.5 -8.5t7.5 -20.5
q0 -13 -7.5 -21.5t-18.5 -8.5t-18.5 8.5t-7.5 21.5z" />
    <glyph glyph-name="divide" unicode="&#xf7;" horiz-adv-x="378" 
d="M163 354q13 23 39 16t20 -37q-4 -26 -31 -28q-25 -2 -33 18q-5 13 5 31zM173 344q-9 -19 8 -25.5t26 8.5q3 5 3 11q2 18 -14.5 19.5t-22.5 -13.5zM163 181q13 24 39 16.5t20 -37.5q-4 -26 -31 -28q-25 -2 -33 18q-5 13 5 31zM173 171q-9 -19 8 -25.5t26 8.5q3 5 3 11
q2 18 -14.5 19.5t-22.5 -13.5zM314 252v-12h-250v12h250z" />
    <glyph glyph-name="oslash" unicode="&#xf8;" horiz-adv-x="448" 
d="M208 364q33 -3 51 -32l-11 -7l-5 6l-138 -320q25 -15 64 7q54 31 87 108.5t8 171.5q-1 9 5.5 9t10.5 -6q6 -8 19 -28.5t22.5 -35t24.5 -28t29.5 -16.5t33.5 7.5t39 37.5v-21q-15 -18 -30.5 -27t-28 -11t-26 4.5t-22.5 13.5t-20 20.5t-16 21.5t-13 21t-9 14
q14 -92 -20.5 -163t-89.5 -101q-95 -54 -154 9q-48 51 -43 142q5 101 73 159q62 52 159 44zM204 351q-36 2 -68 -38.5t-46.5 -95.5t-17.5 -110.5t19 -82.5l140 319q-9 6 -27 8z" />
    <glyph glyph-name="ugrave" unicode="&#xf9;" horiz-adv-x="511" 
d="M224 175q-7 -12 -29 -51t-31 -52t-26 -35.5t-32.5 -30.5t-33.5 -8q-34 0 -60.5 9.5t-46.5 31t-20 57.5t20 90q6 14 15.5 33t15 31t12 28t6.5 23t-3 17q-13 16 16 21q37 7 59 -9q4 -2 6 -5q25 -39 -19 -144q-10 -23 -18 -49.5t-12.5 -54t2 -46.5t24.5 -20q24 -1 47 20
q8 7 16 17t16.5 23t15.5 24t15.5 29t14 29.5t14.5 32.5t13.5 31t14 33t12.5 31l21 49l81 -4q-17 -83 -41 -155q-53 -156 -19 -155q21 0 82 62q78 80 139 160v-21q-56 -73 -131 -148q-46 -47 -82.5 -63.5t-56 -5.5t-28.5 37t-6 63t17 75zM229 447q-1 0 -26.5 -0.5t-28.5 -0.5
q-1 2 -13 50t-15 54l12 1q6 -6 39 -53t32 -51z" />
    <glyph glyph-name="uacute" unicode="&#xfa;" horiz-adv-x="511" 
d="M224 175q-7 -12 -29 -51t-31 -52t-26 -35.5t-32.5 -30.5t-33.5 -8q-34 0 -60.5 9.5t-46.5 31t-20 57.5t20 90q6 14 15.5 33t15 31t12 28t6.5 23t-3 17q-13 16 16 21q37 7 59 -9q4 -2 6 -5q25 -39 -19 -144q-10 -23 -18 -49.5t-12.5 -54t2 -46.5t24.5 -20q24 -1 47 20
q8 7 16 17t16.5 23t15.5 24t15.5 29t14 29.5t14.5 32.5t13.5 31t14 33t12.5 31l21 49l81 -4q-17 -83 -41 -155q-53 -156 -19 -155q21 0 82 62q78 80 139 160v-21q-56 -73 -131 -148q-46 -47 -82.5 -63.5t-56 -5.5t-28.5 37t-6 63t17 75zM147 447q-1 4 32 51t39 53l3 -1h6h3
q-3 -6 -15 -54t-13 -50q-3 0 -28.5 0.5t-26.5 0.5z" />
    <glyph glyph-name="ucircumflex" unicode="&#xfb;" horiz-adv-x="511" 
d="M224 175q-7 -12 -29 -51t-31 -52t-26 -35.5t-32.5 -30.5t-33.5 -8q-34 0 -60.5 9.5t-46.5 31t-20 57.5t20 90q6 14 15.5 33t15 31t12 28t6.5 23t-3 17q-13 16 16 21q37 7 59 -9q4 -2 6 -5q25 -39 -19 -144q-10 -23 -18 -49.5t-12.5 -54t2 -46.5t24.5 -20q24 -1 47 20
q8 7 16 17t16.5 23t15.5 24t15.5 29t14 29.5t14.5 32.5t13.5 31t14 33t12.5 31l21 49l81 -4q-17 -83 -41 -155q-53 -156 -19 -155q21 0 82 62q78 80 139 160v-21q-56 -73 -131 -148q-46 -47 -82.5 -63.5t-56 -5.5t-28.5 37t-6 63t17 75zM253 436l-8 -17q-19 7 -36.5 36
t-15.5 57q-10 -11 -32 -37.5t-35 -39.5l-11 12q74 90 78 96l15 -8q3 -3 24 -49t21 -50z" />
    <glyph glyph-name="udiaeresis" unicode="&#xfc;" horiz-adv-x="511" 
d="M224 175q-14 -38 -17 -75t6 -63t28.5 -37t56 5.5t82.5 63.5q75 75 131 148v21q-61 -80 -139 -160q-96 -98 -96 -39q0 35 33 132q24 72 41 155l-81 4q-14 -32 -21 -49q-3 -8 -12.5 -31t-14 -33t-13.5 -31t-14.5 -32.5t-14 -29.5t-15.5 -29t-15.5 -24t-16.5 -23t-16 -17
q-23 -21 -47 -20q-18 1 -24.5 20t-2 46.5t12.5 54t18 49.5q44 105 19 144q-14 17 -55 15q-31 -1 -30 -15q1 -3 4 -7q6 -10 1 -28t-23 -54t-24 -50q-20 -54 -20 -90t20 -57.5t46.5 -31t60.5 -9.5q18 0 33.5 8t32.5 30.5t26 35.5t31 52t29 51zM87 480q0 29 25 29
q11 0 18.5 -8.5t7.5 -20.5t-7.5 -21t-18.5 -9t-18 9t-7 21zM252 469q0 12 7.5 20.5t18.5 8.5t18.5 -8.5t7.5 -20.5q0 -13 -7.5 -21.5t-18.5 -8.5t-18.5 8.5t-7.5 21.5z" />
    <glyph glyph-name="yacute" unicode="&#xfd;" horiz-adv-x="490" 
d="M111 -320q23 77 62 243.5t62 238.5q-36 -64 -68 -101t-70 -43q-64 -11 -98.5 6t-38 56.5t10.5 88t44 105.5q47 87 6 96q-18 2 -36 -23q-14 -16 -20 -34t1 -33l-12 -6q-9 17 -2 41t24 42q20 24 41 33.5t37.5 5.5t30.5 -15.5t21 -30.5t9.5 -39.5t-4.5 -41.5
q-6 -18 -15 -45.5t-16.5 -48t-14.5 -44.5t-10.5 -41t-2.5 -32t7 -22q9 -10 36 -6q84 17 157 195q6 13 21.5 74t18.5 82l83 -2q-4 -44 -20.5 -127.5t-28.5 -125.5q-19 -69 -52 -214.5t-56 -221.5q123 35 278 -14q55 -17 177.5 -90.5t190.5 -85.5q27 -4 58 12t51 42
q12 16 15 43t-8 46.5t-34 14.5q-16 -3 -31.5 -40t-20.5 -66l-12 2q1 4 2.5 11.5t7 26.5t12 34t17.5 28.5t22 15.5q32 7 46.5 -16.5t11 -55.5t-17.5 -51q-20 -28 -56 -47t-65 -13q-77 16 -195.5 87t-176.5 89q-157 51 -276 12q-75 -263 -213 -355q-83 -56 -153 -29
q-54 21 -61 76q-1 4 -1 7q-3 39 13 81.5t51.5 86t103 80.5t157.5 58zM108 -334q-83 -19 -146.5 -54t-98 -76t-50.5 -81t-14 -77q2 -60 43 -78q51 -22 116 50q85 95 150 316zM157 487q-1 4 32 51t39 53l3 -1h6h3q-3 -6 -15 -54t-13 -50q-3 0 -28.5 0.5t-26.5 0.5z" />
    <glyph glyph-name="thorn" unicode="&#xfe;" horiz-adv-x="446" 
d="M83 34q-13 22 -10.5 54.5t25.5 53.5l8 -11q-18 -17 -20 -45t10 -47q7 -12 25.5 -22t45.5 -3q30 7 57 120q28 117 16 172q-6 26 -22 20q-64 -25 -138 -123q-19 -92 -35 -176q-18 -106 -27.5 -161t-27.5 -126.5t-37 -108.5q-33 -63 -82 -68t-94 46l10 9q16 -19 27 -21.5
t17.5 5t16.5 27.5q3 5 4 8q28 54 51 182.5t51 269.5t66 221q-52 -56 -86 -48q-24 8 -18 56l14 -3q-8 -35 7 -40q16 -4 47.5 20.5t42.5 48.5l83 -6l-24 -104q40 47 87 78.5t84 31.5q63 2 67 -89q2 -41 -2 -73q-17 -139 -127 -173q-82 -28 -112 25z" />
    <glyph glyph-name="ydiaeresis" unicode="&#xff;" horiz-adv-x="490" 
d="M111 -320q-90 -21 -157.5 -58t-103 -80.5t-51.5 -86t-13 -81.5q4 -57 57 -81q68 -30 151 22q134 85 212 332l8 28q119 39 276 -12q58 -18 176.5 -89t195.5 -87q29 -6 65 13t56 47q14 19 17.5 51t-11 55.5t-46.5 16.5q-18 -4 -33.5 -33t-21.5 -56l-6 -27l12 -2
q5 29 20.5 66t31.5 40q23 5 34 -14.5t8 -46.5t-15 -43q-20 -26 -51 -42t-58 -12q-68 12 -190.5 85.5t-177.5 90.5q-155 49 -278 14q23 76 56 221.5t52 214.5q12 42 28.5 125.5t20.5 127.5l-83 2q-3 -21 -18.5 -82t-21.5 -74q-73 -178 -157 -195q-27 -4 -36 6q-6 7 -7 22
t2.5 32t10.5 41t14.5 44.5t16.5 48t15 45.5q7 21 4.5 41.5t-9.5 39.5t-21 30.5t-30.5 15.5t-37.5 -5.5t-41 -33.5q-17 -18 -24 -42t2 -41l12 6q-7 15 -1 33t20 34q18 25 36 23q41 -9 -6 -96q-30 -57 -44 -105.5t-10.5 -88t38 -56.5t98.5 -6q38 6 70 43t68 101
q-23 -72 -62 -238.5t-62 -243.5zM108 -334q-80 -272 -186 -348q-58 -42 -97 -7q-24 23 -26 67q-2 37 14 77t50.5 81t98 76t146.5 54zM107 510q0 29 25 29q11 0 18.5 -8.5t7.5 -20.5t-7.5 -21t-18.5 -9t-18 9t-7 21zM272 499q0 12 7.5 20.5t18.5 8.5t18.5 -8.5t7.5 -20.5
q0 -13 -7.5 -21.5t-18.5 -8.5t-18.5 8.5t-7.5 21.5z" />
    <glyph glyph-name="Amacron" unicode="&#x100;" horiz-adv-x="1273" 
d="M774 325l-27 -71q-32 -83 -50 -127t-50 -109.5t-68.5 -114t-80.5 -86.5q-51 -46 -136 -88t-165 -51q-98 -9 -157 39q-47 38 -38 93q6 42 55.5 80t95.5 48q66 19 165.5 8t160.5 -51l-7 -12q-61 39 -157.5 50t-159.5 -8q-45 -11 -88.5 -46t-52.5 -73q-8 -44 36 -79
q57 -43 146 -35q57 6 108 34t93 76t75 97.5t64 118t50 116t43 111.5q11 31 17 46l37 94q-38 24 -68 38.5t-64.5 24t-68 7.5t-67.5 -17q7 -38 -20 -51q-31 -15 -42 5q-13 20 30 45l17 9q-12 37 -72 21q-46 -10 -84.5 -40t-37.5 -60h-14q-1 34 42 68.5t92 44.5q34 7 57 -0.5
t30 -28.5q35 15 69 17.5t69 -7.5t66 -25t71 -39q60 148 184 242t298 131l13 3q13 -25 -19.5 -228t-68.5 -365q60 -23 97.5 -9.5t80.5 67.5v-21q-82 -92 -181 -51q-6 -30 -16.5 -67.5t-18 -63t-13 -52t-4 -45.5t11.5 -32q15 -20 42 -20l-2 -13q-41 6 -67.5 33.5t-37.5 63.5
t-13.5 82t1 81.5t9.5 70.5q-100 48 -210 121zM987 218q69 286 175 536q-77 -18 -137 -56.5t-105 -97.5t-76 -118t-65 -144q143 -91 208 -120zM403 432l-13 -6q-31 -19 -25 -28q4 -8 25 2q17 8 13 32zM1176 879l-1 -22l-153 15v23z" />
    <glyph glyph-name="a.macron" unicode="&#x101;" horiz-adv-x="446" 
d="M254 39q35 25 89.5 81t102.5 118v-21q-48 -59 -99 -111t-86 -78q-18 -13 -32.5 -13.5t-20.5 5.5t-9 14q-13 33 -8 102q-36 -87 -81 -122q-18 -14 -61.5 -19.5t-66.5 6.5q-19 11 -29 40.5t-6 65.5q11 87 53.5 146.5t96.5 82.5q42 20 91.5 21t82.5 -19q36 -23 36 -133v-15
h-13v15q0 101 -31 122q-28 22 -89 -3q-87 -37 -121 -220q-15 -78 6 -91q15 -10 42 11q35 27 62.5 82t39.5 112l5 23l38 -3q9 0 10.5 -17t-2 -43.5t-8 -53.5t-8 -51.5t-2.5 -32.5q4 -14 18 -1zM276 479l-1 -22l-153 15v23z" />
    <glyph glyph-name="Abreve" unicode="&#x102;" horiz-adv-x="1273" 
d="M774 325l-27 -71q-32 -83 -50 -127t-50 -109.5t-68.5 -114t-80.5 -86.5q-51 -46 -136 -88t-165 -51q-98 -9 -157 39q-47 38 -38 93q6 42 55.5 80t95.5 48q66 19 165.5 8t160.5 -51l-7 -12q-61 39 -157.5 50t-159.5 -8q-45 -11 -88.5 -46t-52.5 -73q-8 -44 36 -79
q57 -43 146 -35q57 6 108 34t93 76t75 97.5t64 118t50 116t43 111.5q11 31 17 46l37 94q-38 24 -68 38.5t-64.5 24t-68 7.5t-67.5 -17q7 -38 -20 -51q-31 -15 -42 5q-13 20 30 45l17 9q-12 37 -72 21q-46 -10 -84.5 -40t-37.5 -60h-14q-1 34 42 68.5t92 44.5q34 7 57 -0.5
t30 -28.5q35 15 69 17.5t69 -7.5t66 -25t71 -39q60 148 184 242t298 131l13 3q13 -25 -19.5 -228t-68.5 -365q60 -23 97.5 -9.5t80.5 67.5v-21q-82 -92 -181 -51q-6 -30 -16.5 -67.5t-18 -63t-13 -52t-4 -45.5t11.5 -32q15 -20 42 -20l-2 -13q-41 6 -67.5 33.5t-37.5 63.5
t-13.5 82t1 81.5t9.5 70.5q-100 48 -210 121zM987 218q69 286 175 536q-77 -18 -137 -56.5t-105 -97.5t-76 -118t-65 -144q143 -91 208 -120zM403 432l-13 -6q-31 -19 -25 -28q4 -8 25 2q17 8 13 32zM1067 940l22 14q46 -47 61 -54q31 -14 63 40l20 -14q-26 -50 -66 -62.5
t-69.5 11t-30.5 65.5z" />
    <glyph glyph-name="a.breve" unicode="&#x103;" horiz-adv-x="446" 
d="M254 39q35 25 89.5 81t102.5 118v-21q-48 -59 -99 -111t-86 -78q-18 -13 -32.5 -13.5t-20.5 5.5t-9 14q-13 33 -8 102q-36 -87 -81 -122q-18 -14 -61.5 -19.5t-66.5 6.5q-19 11 -29 40.5t-6 65.5q11 87 53.5 146.5t96.5 82.5q42 20 91.5 21t82.5 -19q36 -23 36 -133v-15
h-13v15q0 101 -31 122q-28 22 -89 -3q-87 -37 -121 -220q-15 -78 6 -91q15 -10 42 11q35 27 62.5 82t39.5 112l5 23l38 -3q9 0 10.5 -17t-2 -43.5t-8 -53.5t-8 -51.5t-2.5 -32.5q4 -14 18 -1zM117 520l22 14q46 -47 61 -54q31 -14 63 40l20 -14q-26 -50 -66 -62.5t-69.5 11
t-30.5 65.5z" />
    <glyph glyph-name="Aogonek" unicode="&#x104;" horiz-adv-x="1273" 
d="M987 218q69 286 175 536q-77 -18 -137 -56.5t-105 -97.5t-76 -118t-65 -144q143 -91 208 -120zM403 432l-13 -6q-31 -19 -25 -28q4 -8 25 2q17 8 13 32zM774 325l-27 -71q-32 -83 -50 -127t-50 -109.5t-68.5 -114t-80.5 -86.5q-51 -46 -136 -88t-165 -51q-98 -9 -157 39
q-47 38 -38 93q6 42 55.5 80t95.5 48q64 18 160 8.5t158 -46.5q23 36 44 75.5t42.5 90.5t31.5 75t33 85t24 65l37 94q-38 24 -68 38.5t-64.5 24t-68 7.5t-67.5 -17q7 -38 -20 -51q-31 -15 -42 5q-13 20 30 45l17 9q-12 37 -72 21q-46 -10 -84.5 -40t-37.5 -60h-14
q-1 34 42 68.5t92 44.5q34 7 57 -0.5t30 -28.5q35 15 69 17.5t69 -7.5t66 -25t71 -39q60 148 184 242t298 131l13 3q13 -25 -19.5 -228t-68.5 -365q60 -23 97.5 -9.5t80.5 67.5v-21q-82 -92 -181 -51q-6 -30 -16.5 -67.5t-18 -63t-13 -52t-4 -45.5t11.5 -32q15 -20 42 -20
l-2 -13q-19 -3 -17 -38q3 -36 22 -42q9 -3 19 4l7 -11q-34 -24 -60.5 -9.5t-24.5 45t29 56.5l2 1q-34 11 -55.5 40.5t-30.5 64t-10.5 77.5t2 76.5t9.5 66.5q-100 48 -210 121zM155 -75q-45 -11 -88.5 -46t-52.5 -73q-8 -44 36 -79q57 -43 146 -35q148 14 268 196
q-62 36 -155 45.5t-154 -8.5z" />
    <glyph glyph-name="a.ogonek" unicode="&#x105;" horiz-adv-x="446" 
d="M203 1q1 9 11 15q-11 5 -15 18q-13 33 -8 102q-36 -87 -81 -122q-18 -14 -61.5 -19.5t-66.5 6.5q-19 11 -29 40.5t-6 65.5q11 87 53.5 146.5t96.5 82.5q42 20 91.5 21t82.5 -19q36 -23 36 -133v-15h-13v15q0 101 -31 122q-28 22 -89 -3q-87 -37 -121 -220q-15 -78 6 -91
q15 -10 42 11q35 27 62.5 82t39.5 112l5 23l38 -3q9 0 10.5 -17t-2 -43.5t-8 -53.5t-8 -51.5t-2.5 -32.5q4 -14 18 -1q35 25 89.5 81t102.5 118v-21q-48 -59 -99 -111t-86 -78q-17 -12 -29 -14q-7 -4 -10 -15q-6 -30 5.5 -47.5t40.5 -1.5l1 -4q-36 -20 -55.5 -1.5
t-10.5 56.5z" />
    <glyph glyph-name="Cacute" unicode="&#x106;" horiz-adv-x="644" 
d="M259 -7q106 -6 189.5 50t195.5 195v-21q-109 -133 -192.5 -187.5t-194.5 -49.5q-99 4 -170 78.5t-83 167.5q-10 82 13 174.5t75 175.5q53 85 144 139.5t186 34.5q63 -12 103.5 -53t41.5 -98q29 17 76 36l9 -9q-62 -28 -85 -42q-2 -25 -10 -47q-9 -26 -24 -43t-31 -9
q-13 6 -13 20t7.5 27t18.5 25q15 17 39 33q1 55 -37.5 95.5t-100.5 52.5q-92 19 -180 -104q-85 -118 -116 -285q-35 -183 23 -282q40 -66 116 -74zM522 546q-35 -40 -14 -50q9 -4 19.5 12t18.5 34q5 14 7 32q-20 -15 -31 -28zM327 847q-1 4 32 51t39 53l3 -1h6h3
q-3 -6 -15 -54t-13 -50q-3 0 -28.5 0.5t-26.5 0.5z" />
    <glyph glyph-name="c.acute" unicode="&#x107;" horiz-adv-x="364" 
d="M154 27q29 15 91 77t119 134v-21q-58 -71 -117.5 -129.5t-89.5 -73.5q-107 -53 -161 15q-43 55 -29 148q16 102 87 157q65 51 156 36q20 -3 35 -15.5t18 -26.5l-13 -2q-7 24 -38 31q-18 5 -39 -3q-53 -20 -86 -117.5t-27 -173.5q3 -45 31.5 -52t62.5 16zM117 447
q-1 4 32 51t39 53l3 -1h6h3q-3 -6 -15 -54t-13 -50q-3 0 -28.5 0.5t-26.5 0.5z" />
    <glyph glyph-name="Ccircumflex" unicode="&#x108;" horiz-adv-x="644" 
d="M259 -7q106 -6 189.5 50t195.5 195v-21q-109 -133 -192.5 -187.5t-194.5 -49.5q-99 4 -170 78.5t-83 167.5q-10 82 13 174.5t75 175.5q53 85 144 139.5t186 34.5q63 -12 103.5 -53t41.5 -98q29 17 76 36l9 -9q-62 -28 -85 -42q-2 -25 -10 -47q-9 -26 -24 -43t-31 -9
q-13 6 -13 20t7.5 27t18.5 25q15 17 39 33q1 55 -37.5 95.5t-100.5 52.5q-92 19 -180 -104q-85 -118 -116 -285q-35 -183 23 -282q40 -66 116 -74zM522 546q-35 -40 -14 -50q9 -4 19.5 12t18.5 34q5 14 7 32q-20 -15 -31 -28zM443 836l-8 -17q-19 7 -36.5 36t-15.5 57
q-10 -11 -32 -37.5t-35 -39.5l-11 12q74 90 78 96l15 -8q3 -3 24 -49t21 -50z" />
    <glyph glyph-name="c.circumflex" unicode="&#x109;" horiz-adv-x="367" 
d="M157 27q29 15 91 77t119 134v-21q-58 -71 -117.5 -129.5t-89.5 -73.5q-107 -53 -161 15q-43 55 -29 148q16 102 87 157q65 51 156 36q20 -3 35 -15.5t18 -26.5l-13 -2q-7 24 -38 31q-18 5 -39 -3q-53 -20 -86 -117.5t-27 -173.5q3 -45 31.5 -52t62.5 16zM236 446l-8 -17
q-19 7 -36.5 36t-15.5 57q-10 -11 -32 -37.5t-35 -39.5l-11 12q74 90 78 96l15 -8q3 -3 24 -49t21 -50z" />
    <glyph glyph-name="C.dot" unicode="&#x10a;" horiz-adv-x="644" 
d="M259 -7q-114 12 -143 148q-28 132 29 308q54 165 143 244q65 58 128 45q62 -12 100.5 -52.5t37.5 -95.5q-24 -16 -39 -33q-11 -12 -18.5 -25t-7.5 -27t13 -20q16 -8 31 9t24 43q8 22 10 47q23 14 85 42l-9 9q-47 -19 -76 -36q-1 57 -41.5 98t-103.5 53q-95 20 -186 -34.5
t-144 -139.5q-52 -83 -75 -175.5t-13 -174.5q12 -93 83 -167.5t170 -78.5q111 -5 194.5 49.5t192.5 187.5v21q-112 -139 -195.5 -195t-189.5 -50zM522 546q11 13 31 28q-2 -18 -7 -32q-8 -18 -18.5 -34t-19.5 -12q-21 10 14 50zM332 879q0 12 7.5 20.5t18.5 8.5t18.5 -8.5
t7.5 -20.5q0 -13 -7.5 -21.5t-18.5 -8.5t-18.5 8.5t-7.5 21.5z" />
    <glyph glyph-name="c.dot" unicode="&#x10b;" horiz-adv-x="367" 
d="M157 27q-34 -23 -62.5 -16t-31.5 52q-6 76 27 173.5t86 117.5q21 8 39 3q31 -7 38 -31l13 2q-3 14 -18 26.5t-35 15.5q-122 20 -194 -74q-56 -74 -52 -169q4 -90 60 -122q52 -31 133 9q30 15 89.5 73.5t117.5 129.5v21q-57 -72 -119 -134t-91 -77zM135 479q0 12 7.5 20.5
t18.5 8.5t18.5 -8.5t7.5 -20.5q0 -13 -7.5 -21.5t-18.5 -8.5t-18.5 8.5t-7.5 21.5z" />
    <glyph glyph-name="C.caron" unicode="&#x10c;" horiz-adv-x="644" 
d="M259 -7q106 -6 189.5 50t195.5 195v-21q-109 -133 -192.5 -187.5t-194.5 -49.5q-99 4 -170 78.5t-83 167.5q-10 82 13 174.5t75 175.5q53 85 144 139.5t186 34.5q63 -12 103.5 -53t41.5 -98q29 17 76 36l9 -9q-62 -28 -85 -42q-2 -25 -10 -47q-9 -26 -24 -43t-31 -9
q-13 6 -13 20t7.5 27t18.5 25q15 17 39 33q1 55 -37.5 95.5t-100.5 52.5q-92 19 -180 -104q-85 -118 -116 -285q-35 -183 23 -282q40 -66 116 -74zM522 546q-35 -40 -14 -50q9 -4 19.5 12t18.5 34q5 14 7 32q-20 -15 -31 -28zM305 946l8 17q19 -7 36.5 -36t15.5 -57
q10 11 32 37.5t35 39.5l11 -12q-74 -90 -78 -96l-15 8q-3 3 -24 49t-21 50z" />
    <glyph glyph-name="c.caron" unicode="&#x10d;" horiz-adv-x="367" 
d="M157 27q29 15 91 77t119 134v-21q-58 -71 -117.5 -129.5t-89.5 -73.5q-107 -53 -161 15q-43 55 -29 148q16 102 87 157q65 51 156 36q20 -3 35 -15.5t18 -26.5l-13 -2q-7 24 -38 31q-18 5 -39 -3q-53 -20 -86 -117.5t-27 -173.5q3 -45 31.5 -52t62.5 16zM108 546l8 17
q19 -7 36.5 -36t15.5 -57q10 11 32 37.5t35 39.5l11 -12q-74 -90 -78 -96l-15 8q-3 3 -24 49t-21 50z" />
    <glyph glyph-name="D_caron" unicode="&#x10e;" horiz-adv-x="889" 
d="M452 306l1 -11q-66 -29 -119 -37q-47 -139 -144.5 -243.5t-189.5 -112.5l4 10q36 3 68 29.5t59 77t48 104.5t45 130q-50 -2 -89 15t-60.5 45.5t-35.5 65t-13.5 73.5t5.5 71q22 105 123 167q80 51 183 63q39 8 77 6q38 53 91 81t95 30l3 -11q-17 -3 -48.5 -37.5
t-48.5 -63.5q92 -9 162.5 -65.5t104 -145.5t22.5 -190q-11 -108 -75.5 -203.5t-165.5 -135.5q-137 -56 -266 10l10 9q79 -38 146 -20.5t117.5 74t82 127.5t40.5 140q13 112 5 196t-55.5 135.5t-133.5 57.5q-25 -47 -51 -122t-59 -186t-53 -171q57 10 115 38zM406 747
q-40 0 -70 -5q-102 -16 -178.5 -74.5t-95.5 -150.5q-24 -114 23.5 -182.5t142.5 -69.5q8 27 31 103.5t35 114t32 95t39.5 98t40.5 71.5zM528 1040l8 17q19 -7 36.5 -36t15.5 -57q10 11 32 37.5t35 39.5l11 -12q-74 -90 -78 -96l-15 8q-3 3 -24 49t-21 50z" />
    <glyph glyph-name="d.caron" unicode="&#x10f;" horiz-adv-x="501" 
d="M366 584l23 -6q59 -35 -16 -250q-13 -39 -43 -115q-55 -144 -51 -169q3 -30 65 24q77 66 157 170v-21q-68 -85 -150 -159q-31 -29 -56 -45t-44 -20t-31 7.5t-15 38.5q-2 17 0 40q-32 -45 -68 -68q-49 -27 -91 -14.5t-69.5 51t-23.5 79.5q1 51 28 95.5t67 70.5t82 38.5
t78 3.5t51 -39q3 11 14.5 48t16.5 51.5t15.5 46t18 50.5t19 44.5t23.5 47.5zM113 14q54 28 95 93q2 17 5 34t8.5 36.5t8.5 30.5t11.5 34.5t10.5 31.5q-14 61 -81 54q-46 -11 -83 -112q-35 -97 -26 -166q8 -59 51 -36zM517 447q-1 4 32 51t39 53l3 -1h6h3q-3 -6 -15 -54
t-13 -50q-3 0 -28.5 0.5t-26.5 0.5z" />
    <glyph glyph-name="E.macron" unicode="&#x112;" horiz-adv-x="554" 
d="M348 37q88 52 206 201v-21q-114 -139 -197 -191q-111 -66 -229 -36q-65 17 -96.5 60t-30.5 102q1 83 55 164.5t130 110.5q-44 22 -79 65q-24 36 -18.5 86.5t33.5 95.5q32 51 84.5 75t103 19t93 -36t57.5 -82q42 23 78 36l9 -9q-66 -30 -85 -42q4 -21 -4 -48
q-8 -24 -26 -41.5t-35 -9.5q-13 6 -13 20.5t7.5 27.5t18.5 25q13 14 38 32q-9 33 -29 59q-59 75 -134 37q-60 -30 -92 -110q-39 -98 1 -177q3 -8 8 -15q34 16 67 21.5t61 -5.5q15 -9 17.5 -27.5t-16.5 -25.5q-42 -15 -130 23q-35 -22 -61 -99t-28 -161q-2 -57 19 -95
t55.5 -52t77.5 -8t84 31zM218 428q79 -30 109 -18q10 4 7.5 14.5t-11.5 15.5q-29 16 -105 -12zM418 598q-8 -8 -13.5 -17.5t-8 -19.5t6.5 -13q10 -4 23.5 11t19.5 32q7 26 4 36q-20 -15 -32 -29zM376 879l-1 -22l-153 15v23z" />
    <glyph glyph-name="e.macron" unicode="&#x113;" horiz-adv-x="370" 
d="M-57 121q3 61 66 140.5t125 100.5q19 5 36.5 0.5t24.5 -13.5q23 -31 -8 -82q-43 -72 -135 -151q-2 -51 10 -77t32 -28t47 10.5t51 31t48 41.5q88 86 130 144v-21q-13 -17 -33.5 -39.5t-47 -51t-40.5 -44.5q-56 -64 -130.5 -84.5t-127 12.5t-48.5 111zM148 350
q-28 -10 -57 -66q-29 -54 -39 -150q82 73 124 141q10 16 13 35t-5 31q-11 16 -36 9zM219 479l-1 -22l-153 15v23z" />
    <glyph glyph-name="E.breve" unicode="&#x114;" horiz-adv-x="554" 
d="M348 37q88 52 206 201v-21q-114 -139 -197 -191q-111 -66 -229 -36q-65 17 -96.5 60t-30.5 102q1 83 55 164.5t130 110.5q-44 22 -79 65q-24 36 -18.5 86.5t33.5 95.5q32 51 84.5 75t103 19t93 -36t57.5 -82q42 23 78 36l9 -9q-66 -30 -85 -42q4 -21 -4 -48
q-8 -24 -26 -41.5t-35 -9.5q-13 6 -13 20.5t7.5 27.5t18.5 25q13 14 38 32q-9 33 -29 59q-59 75 -134 37q-60 -30 -92 -110q-39 -98 1 -177q3 -8 8 -15q34 16 67 21.5t61 -5.5q15 -9 17.5 -27.5t-16.5 -25.5q-42 -15 -130 23q-35 -22 -61 -99t-28 -161q-2 -57 19 -95
t55.5 -52t77.5 -8t84 31zM218 428q79 -30 109 -18q10 4 7.5 14.5t-11.5 15.5q-29 16 -105 -12zM418 598q-8 -8 -13.5 -17.5t-8 -19.5t6.5 -13q10 -4 23.5 11t19.5 32q7 26 4 36q-20 -15 -32 -29zM217 920l22 14q46 -47 61 -54q31 -14 63 40l20 -14q-26 -50 -66 -62.5
t-69.5 11t-30.5 65.5z" />
    <glyph glyph-name="e.breve" unicode="&#x115;" horiz-adv-x="370" 
d="M-57 121q3 61 66 140.5t125 100.5q19 5 36.5 0.5t24.5 -13.5q23 -31 -8 -82q-43 -72 -135 -151q-2 -51 10 -77t32 -28t47 10.5t51 31t48 41.5q88 86 130 144v-21q-13 -17 -33.5 -39.5t-47 -51t-40.5 -44.5q-56 -64 -130.5 -84.5t-127 12.5t-48.5 111zM148 350
q-28 -10 -57 -66q-29 -54 -39 -150q82 73 124 141q10 16 13 35t-5 31q-11 16 -36 9zM40 520l22 14q46 -47 61 -54q31 -14 63 40l20 -14q-26 -50 -66 -62.5t-69.5 11t-30.5 65.5z" />
    <glyph glyph-name="E.dot" unicode="&#x116;" horiz-adv-x="554" 
d="M348 37q-41 -25 -84 -31t-77.5 8t-55.5 52t-19 95q2 84 28 161t61 99q88 -38 130 -23q19 7 16.5 25.5t-17.5 27.5q-28 11 -61 5.5t-67 -21.5q-48 76 -14 178q28 83 88 119q73 45 133 -21q5 -5 10 -11q20 -26 29 -59q-25 -18 -38 -32q-11 -12 -18.5 -25t-7.5 -27.5
t13 -20.5q17 -8 35 9.5t26 41.5q8 27 4 48q19 12 85 42l-9 9q-36 -13 -78 -36q-15 51 -57.5 82t-93 36t-103 -19t-84.5 -75q-28 -45 -33.5 -95.5t18.5 -86.5q35 -43 79 -65q-76 -29 -130 -110.5t-55 -164.5q-1 -59 30.5 -102t96.5 -60q118 -30 229 36q83 52 197 191v21
q-118 -149 -206 -201zM218 428q76 28 105 12q9 -5 11.5 -15.5t-7.5 -14.5q-30 -12 -109 18zM418 598q12 14 32 29q3 -10 -4 -36q-6 -17 -19.5 -32t-23.5 -11q-9 3 -6.5 13t8 19.5t13.5 17.5zM282 889q0 12 7.5 20.5t18.5 8.5t18.5 -8.5t7.5 -20.5q0 -13 -7.5 -21.5
t-18.5 -8.5t-18.5 8.5t-7.5 21.5z" />
    <glyph glyph-name="e.dot" unicode="&#x117;" horiz-adv-x="370" 
d="M-57 121q-4 -78 48.5 -111t127 -12.5t130.5 84.5q14 16 40.5 44.5t47 51t33.5 39.5v21q-42 -58 -130 -144q-24 -23 -48 -41.5t-51 -31t-47 -10.5t-32 28t-10 77q92 79 135 151q31 51 8 82q-7 9 -24.5 13.5t-36.5 -0.5q-62 -21 -125 -100.5t-66 -140.5zM148 350
q25 7 36 -9q8 -12 5 -31t-13 -35q-42 -68 -124 -141q10 96 39 150q29 56 57 66zM115 479q0 12 7.5 20.5t18.5 8.5t18.5 -8.5t7.5 -20.5q0 -13 -7.5 -21.5t-18.5 -8.5t-18.5 8.5t-7.5 21.5z" />
    <glyph glyph-name="E.ogonek" unicode="&#x118;" horiz-adv-x="554" 
d="M218 428q79 -30 109 -18q10 4 7.5 14.5t-11.5 15.5q-29 16 -105 -12zM418 598q-8 -8 -13.5 -17.5t-8 -19.5t6.5 -13q10 -4 23.5 11t19.5 32q7 26 4 36q-20 -15 -32 -29zM348 37q88 52 206 201v-21q-114 -139 -197 -191q-56 -33 -114 -42v-3q-8 -13 -2.5 -61.5t41.5 -21.5
l8 -10q-32 -18 -49 -16.5t-24 15t-7 32.5t2 35.5t4 24.5q1 2 1 3q-42 -3 -89 8q-65 17 -96.5 60t-30.5 102q1 83 55 164.5t130 110.5q-44 22 -79 65q-24 36 -18.5 86.5t33.5 95.5q32 51 84.5 75t103 19t93 -36t57.5 -82q42 23 78 36l9 -9q-66 -30 -85 -42q4 -21 -4 -48
q-8 -24 -26 -41.5t-35 -9.5q-13 6 -13 20.5t7.5 27.5t18.5 25q13 14 38 32q-9 33 -29 59q-57 73 -136 26q-62 -36 -97 -117q-40 -91 -6 -149q8 -14 22 -25q34 16 67 21.5t61 -5.5q15 -9 17.5 -27.5t-16.5 -25.5q-42 -15 -130 23q-35 -22 -61 -99t-28 -161q-2 -57 19 -95
t55.5 -52t77.5 -8t84 31z" />
    <glyph glyph-name="e.ogonek" unicode="&#x119;" horiz-adv-x="370" 
d="M40 -28q3 12 11 20q-50 4 -80.5 37t-27.5 92q3 61 66 140.5t125 100.5q19 5 36.5 0.5t24.5 -13.5q23 -31 -8 -82q-43 -72 -135 -151q-2 -51 10 -77t32 -28t47 10.5t51 31t48 41.5q88 86 130 144v-21q-13 -17 -33.5 -39.5t-47 -51t-40.5 -44.5q-71 -80 -167 -90
q-10 -6 -13 -23q-10 -44 8 -71t63 -3l1 -6q-54 -31 -85 -2t-16 85zM148 350q-28 -10 -57 -66q-29 -54 -39 -150q82 73 124 141q10 16 13 35t-5 31q-11 16 -36 9z" />
    <glyph glyph-name="Ecaron" unicode="&#x11a;" horiz-adv-x="554" 
d="M348 37q88 52 206 201v-21q-114 -139 -197 -191q-111 -66 -229 -36q-65 17 -96.5 60t-30.5 102q1 83 55 164.5t130 110.5q-44 22 -79 65q-24 36 -18.5 86.5t33.5 95.5q32 51 84.5 75t103 19t93 -36t57.5 -82q42 23 78 36l9 -9q-66 -30 -85 -42q4 -21 -4 -48
q-8 -24 -26 -41.5t-35 -9.5q-13 6 -13 20.5t7.5 27.5t18.5 25q13 14 38 32q-9 33 -29 59q-59 75 -134 37q-60 -30 -92 -110q-39 -98 1 -177q3 -8 8 -15q34 16 67 21.5t61 -5.5q15 -9 17.5 -27.5t-16.5 -25.5q-42 -15 -130 23q-35 -22 -61 -99t-28 -161q-2 -57 19 -95
t55.5 -52t77.5 -8t84 31zM218 428q79 -30 109 -18q10 4 7.5 14.5t-11.5 15.5q-29 16 -105 -12zM418 598q-8 -8 -13.5 -17.5t-8 -19.5t6.5 -13q10 -4 23.5 11t19.5 32q7 26 4 36q-20 -15 -32 -29zM265 946l8 17q19 -7 36.5 -36t15.5 -57q10 11 32 37.5t35 39.5l11 -12
q-74 -90 -78 -96l-15 8q-3 3 -24 49t-21 50z" />
    <glyph glyph-name="e.caron" unicode="&#x11b;" horiz-adv-x="370" 
d="M-57 121q3 61 66 140.5t125 100.5q19 5 36.5 0.5t24.5 -13.5q23 -31 -8 -82q-43 -72 -135 -151q-2 -51 10 -77t32 -28t47 10.5t51 31t48 41.5q88 86 130 144v-21q-13 -17 -33.5 -39.5t-47 -51t-40.5 -44.5q-56 -64 -130.5 -84.5t-127 12.5t-48.5 111zM148 350
q-28 -10 -57 -66q-29 -54 -39 -150q82 73 124 141q10 16 13 35t-5 31q-11 16 -36 9zM68 546l8 17q19 -7 36.5 -36t15.5 -57q10 11 32 37.5t35 39.5l11 -12q-74 -90 -78 -96l-15 8q-3 3 -24 49t-21 50z" />
    <glyph glyph-name="Gcircumflex" unicode="&#x11c;" horiz-adv-x="714" 
d="M460 117l57 193l73 -4q-7 -120 -28 -195q-33 -120 -87 -238t-120 -191q109 -37 243 -136l-10 -8q-121 94 -243 134q-105 -103 -248 -83q-33 4 -57.5 32.5t-5.5 57.5q19 28 114.5 35.5t129.5 -4.5q42 42 78 115t49.5 114.5t43.5 139.5q-108 -112 -225 -97q-94 13 -151 80
t-68.5 156.5t11 187t74.5 172.5q60 87 147 139.5t177 33.5q83 -17 123 -77.5t16 -135.5q-9 -26 -25.5 -43.5t-33.5 -9.5l7 12q9 -5 21 12t17 33q20 71 -19 127t-112 71q-44 8 -90.5 -29.5t-108.5 -133.5q-50 -77 -83 -171t-41 -182t29 -152.5t119 -76.5q117 -9 224 113z
M43 -330q-11 -18 10.5 -42t50.5 -24q31 0 81 32t82 64q-35 10 -122.5 1.5t-101.5 -31.5zM443 836l-8 -17q-19 7 -36.5 36t-15.5 57q-10 -11 -32 -37.5t-35 -39.5l-11 12q74 90 78 96l15 -8q3 -3 24 -49t21 -50z" />
    <glyph glyph-name="g.circumflex" unicode="&#x11d;" horiz-adv-x="418" 
d="M134 -165q42 251 47 317q-8 -21 -9 -22q-34 -74 -79 -110q-20 -15 -52.5 -22t-63 4.5t-35.5 45.5q-7 40 14.5 106.5t65 127t108.5 86t146 -15.5q18 -9 27 -36t10 -47.5t1 -54.5v-16h-13v16q0 111 -33 127q-31 15 -62.5 6t-56 -34.5t-47.5 -61t-37.5 -74.5t-25.5 -73
t-11 -57.5t6 -28.5q20 -12 51 12q35 29 65 87t38 113v18l68 -1q9 -38 -3 -185t-27 -236q-14 -75 -37.5 -146t-59 -138.5t-88 -107t-112.5 -37.5q-82 3 -117 78l10 11q30 -72 108 -76q36 -2 70 37.5t59.5 105t44 137t30.5 145.5zM243 466l-8 -17q-19 7 -36.5 36t-15.5 57
q-10 -11 -32 -37.5t-35 -39.5l-11 12q74 90 78 96l15 -8q3 -3 24 -49t21 -50z" />
    <glyph glyph-name="G.breve" unicode="&#x11e;" horiz-adv-x="714" 
d="M460 117l57 193l73 -4q-7 -120 -28 -195q-33 -120 -87 -238t-120 -191q109 -37 243 -136l-10 -8q-121 94 -243 134q-105 -103 -248 -83q-33 4 -57.5 32.5t-5.5 57.5q19 28 114.5 35.5t129.5 -4.5q42 42 78 115t49.5 114.5t43.5 139.5q-108 -112 -225 -97q-94 13 -151 80
t-68.5 156.5t11 187t74.5 172.5q60 87 147 139.5t177 33.5q83 -17 123 -77.5t16 -135.5q-9 -26 -25.5 -43.5t-33.5 -9.5l7 12q9 -5 21 12t17 33q20 71 -19 127t-112 71q-44 8 -90.5 -29.5t-108.5 -133.5q-50 -77 -83 -171t-41 -182t29 -152.5t119 -76.5q117 -9 224 113z
M43 -330q-11 -18 10.5 -42t50.5 -24q31 0 81 32t82 64q-35 10 -122.5 1.5t-101.5 -31.5zM307 930l22 14q46 -47 61 -54q31 -14 63 40l20 -14q-26 -50 -66 -62.5t-69.5 11t-30.5 65.5z" />
    <glyph glyph-name="g.breve" unicode="&#x11f;" horiz-adv-x="418" 
d="M134 -165q42 251 47 317q-8 -21 -9 -22q-34 -74 -79 -110q-20 -15 -52.5 -22t-63 4.5t-35.5 45.5q-7 40 14.5 106.5t65 127t108.5 86t146 -15.5q18 -9 27 -36t10 -47.5t1 -54.5v-16h-13v16q0 111 -33 127q-31 15 -62.5 6t-56 -34.5t-47.5 -61t-37.5 -74.5t-25.5 -73
t-11 -57.5t6 -28.5q20 -12 51 12q35 29 65 87t38 113v18l68 -1q9 -38 -3 -185t-27 -236q-14 -75 -37.5 -146t-59 -138.5t-88 -107t-112.5 -37.5q-82 3 -117 78l10 11q30 -72 108 -76q36 -2 70 37.5t59.5 105t44 137t30.5 145.5zM77 530l22 14q46 -47 61 -54q31 -14 63 40
l20 -14q-26 -50 -66 -62.5t-69.5 11t-30.5 65.5z" />
    <glyph glyph-name="G.dot" unicode="&#x120;" horiz-adv-x="714" 
d="M517 310l-57 -193l-3 -9q-107 -122 -224 -113q-82 12 -119 76.5t-29 152.5t41 182t83 171q62 96 108.5 133.5t90.5 29.5q73 -15 112 -71t19 -127q-5 -16 -17 -33t-21 -12l-7 -12q17 -8 33.5 9.5t25.5 43.5q24 75 -16 135.5t-123 77.5q-90 19 -177 -33.5t-147 -139.5
q-52 -75 -74.5 -172.5t-11 -187t68.5 -156.5t151 -80q117 -15 225 97q-30 -98 -43.5 -139.5t-49.5 -114.5t-78 -115q-34 12 -129.5 4.5t-114.5 -35.5q-19 -29 5.5 -57.5t57.5 -32.5q143 -20 248 83q122 -40 243 -134l10 8q-134 99 -243 136q66 73 120 191t87 238
q21 75 28 195zM43 -330q14 23 101.5 31.5t122.5 -1.5q-32 -32 -82 -64t-81 -32q-29 0 -50.5 24t-10.5 42zM362 879q0 12 7.5 20.5t18.5 8.5t18.5 -8.5t7.5 -20.5q0 -13 -7.5 -21.5t-18.5 -8.5t-18.5 8.5t-7.5 21.5z" />
    <glyph glyph-name="g.dot" unicode="&#x121;" horiz-adv-x="418" 
d="M134 -165q-12 -74 -30.5 -145.5t-44 -137t-59.5 -105t-70 -37.5q-78 4 -108 76l-10 -11q35 -75 117 -78q60 -2 112.5 37.5t88 107t59 138.5t37.5 146q15 89 27 236t3 185l-68 1v-18q-8 -55 -38 -113t-65 -87q-31 -24 -51 -12q-7 4 -5.5 28t10.5 58t25 73t37.5 74t48 61.5
t56.5 34.5t62 -6q33 -16 33 -127v-16h13v16q0 34 -1 54.5t-10 47.5t-27 36q-81 41 -146 15.5t-108.5 -86t-65 -127t-14.5 -106.5q5 -34 35.5 -45.5t63 -4.5t52.5 22q45 36 79 110q1 1 9 22q-5 -66 -47 -317zM132 479q0 12 7.5 20.5t18.5 8.5t18.5 -8.5t7.5 -20.5
q0 -13 -7.5 -21.5t-18.5 -8.5t-18.5 8.5t-7.5 21.5z" />
    <glyph glyph-name="G.cedilla" unicode="&#x122;" horiz-adv-x="714" 
d="M460 117l57 193l73 -4q-7 -120 -28 -195q-33 -120 -87 -238t-120 -191q109 -37 243 -136l-10 -8q-121 94 -243 134q-105 -103 -248 -83q-33 4 -57.5 32.5t-5.5 57.5q19 28 114.5 35.5t129.5 -4.5q42 42 78 115t49.5 114.5t43.5 139.5q-108 -112 -225 -97q-94 13 -151 80
t-68.5 156.5t11 187t74.5 172.5q60 87 147 139.5t177 33.5q83 -17 123 -77.5t16 -135.5q-9 -26 -25.5 -43.5t-33.5 -9.5l7 12q9 -5 21 12t17 33q20 71 -19 127t-112 71q-44 8 -90.5 -29.5t-108.5 -133.5q-50 -77 -83 -171t-41 -182t29 -152.5t119 -76.5q117 -9 224 113z
M43 -330q-11 -18 10.5 -42t50.5 -24q31 0 81 32t82 64q-35 10 -122.5 1.5t-101.5 -31.5zM143 -199l6 12q36 -23 70 11q28 27 21 54q-6 23 -38 23l17 71l19 -2l-15 -49q63 -17 56 -60q-5 -36 -46 -58q-47 -25 -90 -2z" />
    <glyph glyph-name="g.cedilla" unicode="&#x123;" horiz-adv-x="418" 
d="M134 -165q42 251 47 317q-8 -21 -9 -22q-34 -74 -79 -110q-20 -15 -52.5 -22t-63 4.5t-35.5 45.5q-7 40 14.5 106.5t65 127t108.5 86t146 -15.5q18 -9 27 -36t10 -47.5t1 -54.5v-16h-13v16q0 111 -33 127q-31 15 -62.5 6t-56 -34.5t-47.5 -61t-37.5 -74.5t-25.5 -73
t-11 -57.5t6 -28.5q20 -12 51 12q35 29 65 87t38 113v18l68 -1q9 -38 -3 -185t-27 -236q-14 -75 -37.5 -146t-59 -138.5t-88 -107t-112.5 -37.5q-82 3 -117 78l10 11q30 -72 108 -76q36 -2 70 37.5t59.5 105t44 137t30.5 145.5zM242 594l-6 -12q-36 23 -70 -11
q-28 -27 -21 -54q6 -23 38 -23l-17 -71l-19 2l15 49q-63 17 -56 60q5 36 46 58q47 25 90 2z" />
    <glyph glyph-name="H_circumflex" unicode="&#x124;" horiz-adv-x="936" 
d="M371 390q-75 17 -108 42l4 14q37 -28 107 -44q29 108 79 198q41 71 82 98l-36 4q-6 1 -132 21.5t-185 16.5q-130 -11 -164 -152q-16 -56 15 -113t88 -56v-13q-67 1 -100 62t-15 125q39 149 174 159q45 3 103 -3.5t126.5 -18.5t102.5 -16q12 -2 36 -4q7 7 25.5 15.5
t42 16.5t42.5 14t39 12t21 6q35 12 51 -15q15 -25 -6 -46q-11 -11 -31 -15q-35 -6 -99 -2q-37 -25 -72 -93q-31 -65 -75 -228q139 -22 242 4q32 108 96 226t129 141q23 12 63 6.5t60 -28.5q38 -56 -36 -168q-80 -123 -202 -177q-17 -56 -31.5 -115.5t-30 -148.5t-6.5 -152.5
t46 -79.5q-45 8 -74.5 39.5t-40 78t-13 95t5 104t14 91.5t15.5 70q0 2 1 4q-102 -24 -241 -3q-25 -95 -38 -139t-37 -107.5t-48 -96.5q-72 -110 -159 -117l4 10q25 31 45 69t38 94t27.5 91t28.5 114t27 110zM1030 565q14 22 21.5 35t17 35.5t9 42t-11.5 36.5q-18 28 -43 19
q-92 -38 -180 -338q117 59 187 170zM645 709q58 -4 86 2q30 7 29 31q-1 19 -19 22q-10 2 -21 -4q-42 -21 -75 -51zM840 879l-8 -17q-19 7 -36.5 36t-15.5 57q-10 -11 -32 -37.5t-35 -39.5l-11 12q74 90 78 96l15 -8q3 -3 24 -49t21 -50z" />
    <glyph glyph-name="h_circumflex" unicode="&#x125;" horiz-adv-x="562" 
d="M162 618l52 -4q-51 -145 -140 -440v-1q-3 -8 -9 -27l15 23q27 45 82.5 88t101.5 63q44 20 68.5 7t24.5 -46.5t-13 -74.5q-2 -7 -10.5 -29.5t-13.5 -36.5t-11.5 -36.5t-8 -37t0 -29t10 -22t23.5 -7.5q11 0 28 11.5t37 31t40.5 41t42 47t36.5 44t29 36.5t15 19v-21l-16 -21
q-17 -21 -36.5 -44.5t-44.5 -51.5t-50.5 -52.5t-45.5 -37.5q-18 -12 -40 -18t-47 -5.5t-46.5 20.5t-31.5 59q-9 35 49 151q40 80 37 91q-3 9 -21 0q-54 -25 -124.5 -100t-93.5 -114l-33 -94l-82 3q22 104 41.5 183t50 180t65 167t69.5 85zM347 662l-8 -17q-19 7 -36.5 36
t-15.5 57q-10 -11 -32 -37.5t-35 -39.5l-11 12q74 90 78 96l15 -8q3 -3 24 -49t21 -50z" />
    <glyph glyph-name="H_stroke" unicode="&#x126;" horiz-adv-x="989" 
d="M645 709q58 -4 86 2q30 7 29 31q-1 19 -19 22q-10 2 -21 -4q-42 -21 -75 -51zM371 390q-75 17 -108 42l4 14q37 -28 107 -44q10 42 24 78q-74 17 -105 42l4 14q35 -28 105 -44q22 56 51 108q41 71 82 98l-36 4q-6 1 -132 21.5t-185 16.5q-130 -11 -164 -152
q-16 -56 15 -113t88 -56v-13q-67 1 -100 62t-15 125q39 149 174 159q45 3 103 -3.5t126.5 -18.5t102.5 -16q12 -2 36 -4q7 7 25.5 15.5t42 16.5t42.5 14t39 12t21 6q35 12 51 -15q15 -25 -6 -46q-11 -11 -31 -15q-35 -6 -99 -2q-37 -25 -72 -93q-24 -50 -50 -137
q144 -24 248 2q99 245 194 278q23 12 63 6.5t60 -28.5q38 -56 -36 -168q-80 -123 -202 -177q-17 -56 -31.5 -115.5t-30 -148.5t-6.5 -152.5t46 -79.5q-45 8 -74.5 39.5t-40 78t-13 95t5 104t14 91.5t15.5 70q0 2 1 4q-102 -24 -241 -3q-25 -95 -38 -139t-37 -107.5
t-48 -96.5q-72 -110 -159 -117l4 10q25 31 45 69t38 94t27.5 91t28.5 114t27 110zM1030 565q14 22 21.5 35t17 35.5t9 42t-11.5 36.5q-18 28 -43 19q-92 -38 -180 -338q117 59 187 170zM507 453l-21 -78q139 -22 242 4q9 32 26 75q-104 -23 -247 -1z" />
    <glyph glyph-name="h_stroke" unicode="&#x127;" horiz-adv-x="562" 
d="M162 618l52 -4q-31 -86 -68 -205l95 19v-12l-99 -19l-68 -223v-1q-3 -8 -9 -27l15 23q27 45 82.5 88t101.5 63q44 20 68.5 7t24.5 -46.5t-13 -74.5q-2 -7 -10.5 -29.5t-13.5 -36.5t-11.5 -36.5t-8 -37t0 -29t10 -22t23.5 -7.5q11 0 28 11.5t37 31t40.5 41t42 47t36.5 44
t29 36.5t15 19v-21l-16 -21q-17 -21 -36.5 -44.5t-44.5 -51.5t-50.5 -52.5t-45.5 -37.5q-18 -12 -40 -18t-47 -5.5t-46.5 20.5t-31.5 59q-9 35 49 151q40 80 37 91q-3 9 -21 0q-54 -25 -124.5 -100t-93.5 -114l-33 -94l-82 3q55 249 94 372l-121 -23v12l125 24
q65 196 128 230z" />
    <glyph glyph-name="I.tilde" unicode="&#x128;" horiz-adv-x="628" 
d="M16 26q-14 18 -15.5 43.5t21.5 68.5l12 -7q-39 -58 -7 -97q24 -32 70 -41t85 8q41 17 73 46t52 60.5t37.5 77t26.5 80.5t22 86.5t22 80.5q36 117 102 248q-66 -20 -179 -40q-12 -2 -46 -7.5t-50 -9t-47.5 -10.5t-48 -14.5t-40.5 -20t-36.5 -28t-24.5 -36t-15.5 -47.5
t-0.5 -59q6 -59 54.5 -102t101.5 -22l5 -13q-63 -21 -115.5 25t-58.5 112q-3 30 1 56t11 46t22 37t28 28.5t36.5 22t39.5 16.5t45 13t44.5 10t47 8.5t44.5 7.5q130 24 188 43q27 49 96 85t90 9q22 -29 -10 -56t-88 -48q-18 -34 -30.5 -75.5t-25.5 -95.5t-23 -86
q-4 -14 -19 -63.5t-20.5 -67.5t-21.5 -61.5t-27 -64t-30.5 -54t-39 -53t-47 -40t-58.5 -34.5q-32 -14 -82.5 -16.5t-99.5 11t-71 40.5zM619 703q42 18 68.5 38.5t13.5 37.5q-23 30 -74 -62l-3 -6q-4 -6 -5 -8zM440 823q-30 -8 -58 1t-44 25q-6 5 -20.5 19.5t-24.5 19
t-25 1.5q-31 -6 -66 -50l-16 8q37 49 84 56q20 7 53.5 0.5t52.5 -22.5q4 -3 15 -11.5t14.5 -11t13 -8.5t14 -6.5t13 -1.5t15 2.5t15 9t16.5 15.5l12 -14q-10 -11 -31.5 -21.5t-32.5 -10.5z" />
    <glyph glyph-name="i.tilde" unicode="&#x129;" horiz-adv-x="327" 
d="M75 8q27 1 84.5 52t98.5 97t69 81v-21q-184 -222 -252 -222q-48 17 -76.5 55t-31.5 83t9 89t44.5 78.5t75.5 46.5l16 -1q-8 -22 -21.5 -69.5t-29 -112t-13.5 -111t27 -45.5zM210 443q-30 -8 -58 1t-44 25q-6 5 -20.5 19.5t-24.5 19t-25 1.5q-31 -6 -66 -50l-16 8
q37 49 84 56q20 7 53.5 0.5t52.5 -22.5q4 -3 15 -11.5t14.5 -11t13 -8.5t14 -6.5t13 -1.5t15 2.5t15 9t16.5 15.5l12 -14q-10 -11 -31.5 -21.5t-32.5 -10.5z" />
    <glyph glyph-name="I.macron" unicode="&#x12a;" horiz-adv-x="628" 
d="M16 26q-14 18 -15.5 43.5t21.5 68.5l12 -7q-39 -58 -7 -97q24 -32 70 -41t85 8q41 17 73 46t52 60.5t37.5 77t26.5 80.5t22 86.5t22 80.5q36 117 102 248q-66 -20 -179 -40q-12 -2 -46 -7.5t-50 -9t-47.5 -10.5t-48 -14.5t-40.5 -20t-36.5 -28t-24.5 -36t-15.5 -47.5
t-0.5 -59q6 -59 54.5 -102t101.5 -22l5 -13q-63 -21 -115.5 25t-58.5 112q-3 30 1 56t11 46t22 37t28 28.5t36.5 22t39.5 16.5t45 13t44.5 10t47 8.5t44.5 7.5q130 24 188 43q27 49 96 85t90 9q22 -29 -10 -56t-88 -48q-18 -34 -30.5 -75.5t-25.5 -95.5t-23 -86
q-4 -14 -19 -63.5t-20.5 -67.5t-21.5 -61.5t-27 -64t-30.5 -54t-39 -53t-47 -40t-58.5 -34.5q-32 -14 -82.5 -16.5t-99.5 11t-71 40.5zM619 703q42 18 68.5 38.5t13.5 37.5q-23 30 -74 -62l-3 -6q-4 -6 -5 -8zM466 849l-1 -22l-153 15v23z" />
    <glyph glyph-name="i.macron" unicode="&#x12b;" horiz-adv-x="327" 
d="M75 8q27 1 84.5 52t98.5 97t69 81v-21q-184 -222 -252 -222q-48 17 -76.5 55t-31.5 83t9 89t44.5 78.5t75.5 46.5l16 -1q-8 -22 -21.5 -69.5t-29 -112t-13.5 -111t27 -45.5zM176 479l-1 -22l-153 15v23z" />
    <glyph glyph-name="I.breve" unicode="&#x12c;" horiz-adv-x="628" 
d="M16 26q-14 18 -15.5 43.5t21.5 68.5l12 -7q-39 -58 -7 -97q24 -32 70 -41t85 8q41 17 73 46t52 60.5t37.5 77t26.5 80.5t22 86.5t22 80.5q36 117 102 248q-66 -20 -179 -40q-12 -2 -46 -7.5t-50 -9t-47.5 -10.5t-48 -14.5t-40.5 -20t-36.5 -28t-24.5 -36t-15.5 -47.5
t-0.5 -59q6 -59 54.5 -102t101.5 -22l5 -13q-63 -21 -115.5 25t-58.5 112q-3 30 1 56t11 46t22 37t28 28.5t36.5 22t39.5 16.5t45 13t44.5 10t47 8.5t44.5 7.5q130 24 188 43q27 49 96 85t90 9q22 -29 -10 -56t-88 -48q-18 -34 -30.5 -75.5t-25.5 -95.5t-23 -86
q-4 -14 -19 -63.5t-20.5 -67.5t-21.5 -61.5t-27 -64t-30.5 -54t-39 -53t-47 -40t-58.5 -34.5q-32 -14 -82.5 -16.5t-99.5 11t-71 40.5zM619 703q42 18 68.5 38.5t13.5 37.5q-23 30 -74 -62l-3 -6q-4 -6 -5 -8zM277 920l22 14q46 -47 61 -54q31 -14 63 40l20 -14
q-26 -50 -66 -62.5t-69.5 11t-30.5 65.5z" />
    <glyph glyph-name="i.breve" unicode="&#x12d;" horiz-adv-x="327" 
d="M37 446l10 6q14 -15 18.5 -19t13.5 -8t15.5 1.5t15.5 19.5l9 -8q-13 -25 -33 -31t-34.5 5.5t-14.5 33.5zM75 8q27 1 84.5 52t98.5 97t69 81v-21q-184 -222 -252 -222q-48 17 -76.5 55t-31.5 83t9 89t44.5 78.5t75.5 46.5l16 -1q-8 -22 -21.5 -69.5t-29 -112t-13.5 -111
t27 -45.5z" />
    <glyph glyph-name="I.ogonek" unicode="&#x12e;" horiz-adv-x="622" 
d="M135 -41q1 9 8 17q-93 7 -127 50q-14 18 -15.5 43.5t21.5 68.5l12 -7q-39 -58 -7 -97q24 -32 70 -41t85 8q41 17 73 46t52 60.5t37.5 77t26.5 80.5t22 86.5t22 80.5q36 117 102 248q-66 -20 -179 -40q-12 -2 -46 -7.5t-50 -9t-47.5 -10.5t-48 -14.5t-40.5 -20t-36.5 -28
t-24.5 -36t-15.5 -47.5t-0.5 -59q6 -59 54.5 -102t101.5 -22l5 -13q-63 -21 -115.5 25t-58.5 112q-3 30 1 56t11 46t22 37t28 28.5t36.5 22t39.5 16.5t45 13t44.5 10t47 8.5t44.5 7.5q130 24 188 43q27 49 96 85t90 9q22 -29 -10 -56t-88 -48q-18 -34 -30.5 -75.5
t-25.5 -95.5t-23 -86q-4 -14 -19 -63.5t-20.5 -67.5t-21.5 -61.5t-27 -64t-30.5 -54t-39 -53t-47 -40t-58.5 -34.5q-38 -16 -97 -16q-6 -7 -8 -19q-10 -44 8 -71t63 -3l1 -6q-54 -31 -85 -2t-16 85zM619 703q42 18 68.5 38.5t13.5 37.5q-23 30 -74 -62l-3 -6q-4 -6 -5 -8z
" />
    <glyph glyph-name="i.ogonek" unicode="&#x12f;" horiz-adv-x="327" 
d="M26 -28q-15 -56 16 -85t85 2l-1 6q-45 -24 -63 3t-8 71q6 25 23 26q35 3 101.5 63.5t147.5 158.5v21q-28 -35 -69 -81t-98.5 -97t-84.5 -52q-25 -1 -27 45.5t13.5 111t29 112t21.5 69.5l-16 1q-66 -19 -105 -98t-25.5 -157t79.5 -94q-16 -11 -19 -26zM128 404
q-15 5 -10 26q8 19 20 16q6 -3 9.5 -11t0.5 -16q-7 -16 -20 -15z" />
    <glyph glyph-name="I.dot" unicode="&#x130;" horiz-adv-x="628" 
d="M16 26q22 -27 71 -40.5t99.5 -11t82.5 16.5q31 14 58.5 34.5t47 40t39 53t30.5 54t27 64t21.5 61.5t20.5 67.5t19 63.5q10 32 23 86t25.5 95.5t30.5 75.5q56 21 88 48t10 56q-21 27 -90 -9t-96 -85q-58 -19 -188 -43q-13 -2 -44.5 -7.5t-47 -8.5t-44.5 -10t-45 -13
t-39.5 -16.5t-36.5 -22t-28 -28.5t-22 -37t-11 -46t-1 -56q6 -66 58.5 -112t115.5 -25l-5 13q-53 -21 -101.5 22t-54.5 102q-3 32 0.5 59t15.5 47.5t24.5 36t36.5 28t40.5 20t48 14.5t47.5 10.5t50 9t46 7.5q113 20 179 40q-66 -131 -102 -248q-9 -29 -22 -80.5t-22 -86.5
t-26.5 -80.5t-37.5 -77t-52 -60.5t-73 -46q-39 -17 -85 -8t-70 41q-32 39 7 97l-12 7q-23 -43 -21.5 -68.5t15.5 -43.5zM619 703q36 63 52 77q18 14 30 -1q13 -17 -13.5 -37.5t-68.5 -38.5zM312 799q0 12 7.5 20.5t18.5 8.5t18.5 -8.5t7.5 -20.5q0 -13 -7.5 -21.5
t-18.5 -8.5t-18.5 8.5t-7.5 21.5z" />
    <glyph glyph-name="dotlessi" unicode="&#x131;" horiz-adv-x="335" 
d="M83 8q27 1 84.5 52t98.5 97t69 81v-21q-184 -222 -252 -222q-48 17 -76.5 55t-31.5 83t9 89t44.5 78.5t75.5 46.5l16 -1q-8 -22 -21.5 -69.5t-29 -112t-13.5 -111t27 -45.5z" />
    <glyph glyph-name="Jcircumflex" unicode="&#x134;" horiz-adv-x="714" 
d="M1 -148q0 57 19 114.5t49.5 100t69.5 72t80 31t81 -23.5q34 -23 16 -68q-12 -31 -44 -55t-59 -21l1 12q22 -2 50.5 20t39.5 49q14 34 -12 53q-44 34 -93 17.5t-90 -60t-68 -109.5t-27 -131q-1 -65 41 -115t102 -53q55 -3 105 38q33 27 61.5 74t47 93t35.5 111t25 105.5
t19 100t13 71.5q40 191 95 340q-35 -25 -135 -86.5t-149 -105.5q27 -59 11 -111q-10 -31 -30 -44.5t-37.5 -2t-21.5 44.5q-7 59 62 116q-14 23 -41 61l9 8q18 -19 41 -60q54 47 156.5 109.5t141.5 91.5q2 7 35.5 47t77.5 80.5t66 39.5q9 0 12 -8q8 -32 -27 -75.5t-75 -74.5
q-20 -52 -33 -115t-24 -141t-19 -117q-38 -189 -57 -256q-97 -327 -306 -347q-27 -2 -55 0q-66 5 -113 58.5t-46 121.5zM263 418q-61 -59 -54 -104q3 -27 16 -34t27 5t21 35q15 45 -10 98zM743 793q-33 -1 -83 -123q36 32 60 62q11 15 17.5 29.5t6.5 21t-1 10.5zM543 836
l-8 -17q-19 7 -36.5 36t-15.5 57q-10 -11 -32 -37.5t-35 -39.5l-11 12q74 90 78 96l15 -8q3 -3 24 -49t21 -50z" />
    <glyph glyph-name="j.circumflex" unicode="&#x135;" horiz-adv-x="180" 
d="M118 410l-6 -10q-14 5 -26.5 23t-11.5 36q-1 -2 -6.5 -7.5t-7.5 -8.5q-8 -9 -32 -33l-8 8l30 32q5 6 14.5 16.5t10.5 11.5l11 -4q2 -2 17 -31.5t15 -32.5zM1028 -324q60 -37 68 -102.5t-47 -95.5q-45 -20 -98 -31t-100 -14.5t-108.5 2t-106 12t-112 21.5t-105.5 25.5
t-107.5 29.5t-99.5 27q-252 69 -314 82q-74 -138 -177.5 -196t-248.5 -42q-57 6 -109.5 29.5t-77.5 65.5q-35 47 -24 89q12 57 100 94q55 20 110 28t119.5 2t103 -12.5t114.5 -22.5q31 65 59.5 164.5t47.5 181.5t54 175.5t80 156.5l15 -5q-3 -17 -10.5 -103t-18.5 -142
q-61 -296 -132 -451q117 -24 310 -75q34 -9 111.5 -31.5t123.5 -34.5t120 -29t128.5 -22.5t118 -7t120 10t105.5 34.5q53 29 42 87t-61 90q-52 35 -137 46t-126 -8l-5 12q43 20 130.5 9t144.5 -49zM-543 -593q60 -9 115 8.5t97.5 55.5t75 83t57.5 100q-163 33 -233 36
q-111 4 -204 -33q-85 -31 -91 -82q-10 -33 22 -79q22 -35 67 -57.5t94 -31.5z" />
    <glyph glyph-name="K_cedilla" unicode="&#x136;" horiz-adv-x="1002" 
d="M334 19q-35 -44 -105.5 -78.5t-122.5 -38.5l4 10q38 2 70.5 33t65.5 89q35 55 57 120.5t42 148t36 129.5q46 140 113 248q-67 -20 -180 -40q-12 -2 -40.5 -7t-44 -7.5t-42.5 -8.5t-42 -12t-37.5 -16t-35 -21t-27 -27t-21 -35t-10 -44t-0.5 -54q6 -59 55 -102t102 -22
l4 -13q-63 -21 -115 25t-58 112q-6 67 12.5 112t69 70t84 34t106.5 22q8 2 13 2.5t12 2t13 2.5q130 24 189 43q26 49 95 85t90 9q22 -29 -10 -56t-88 -48q-19 -31 -34.5 -67.5t-23.5 -61t-20.5 -69.5t-18.5 -66q-11 -34 -30.5 -103t-32 -109.5t-37.5 -95t-57 -95.5zM741 618
q30 54 113.5 105t147.5 54h1q9 20 31.5 35.5t42.5 17.5l2 -10q-34 -3 -63 -43q42 -1 48 -20q3 -11 -3.5 -21.5t-16.5 -14.5q-20 -9 -33 7q-15 19 -11 38q-21 -1 -41.5 -12.5t-33.5 -22.5t-31.5 -38t-25 -38t-25.5 -45q-56 -96 -125.5 -141t-179.5 -55q34 -29 71 -101.5
t46 -134.5q3 -19 5 -52t4.5 -51t10 -38t24 -27.5t42.5 -4.5q44 6 111 69q96 96 150 164v-21q-68 -84 -143 -155q-75 -64 -117 -70q-61 -5 -103.5 16.5t-62.5 57.5t-31.5 87t-13 96.5t-5 93.5t-10.5 71h-3l4 13q34 2 64 15t51 29t42.5 43.5t35 49t31.5 54.5zM596 703
q42 18 68.5 38.5t13.5 37.5q-4 5 -9 7t-10 0t-10 -5.5t-10.5 -10.5t-10 -13t-10 -15t-8.5 -14.5t-8 -13.5t-6 -11zM1012 766q-5 -15 8 -31q6 -9 18 -4q6 2 10.5 9.5t3.5 12.5q-3 13 -40 13zM391 -209l6 12q36 -23 70 11q28 27 21 54q-6 23 -38 23l17 71l19 -2l-15 -49
q63 -17 56 -60q-5 -36 -46 -58q-47 -25 -90 -2z" />
    <glyph glyph-name="k.cedilla" unicode="&#x137;" horiz-adv-x="470" 
d="M30 -2l-73 2q17 260 120 494q-53 2 -136.5 37t-164 68.5t-127.5 33.5q-19 0 -34 -6l-19 -7l-10 10q1 0 9.5 3.5t9.5 4.5q23 7 41 7q52 2 133.5 -32.5t164.5 -70t138 -35.5q4 10 10 22t13 26.5t11 22.5q28 61 73 120t100.5 108t122.5 71t130 4q43 -13 64.5 -59.5
t11.5 -91.5q-15 -80 -85.5 -134t-202.5 -87q-71 -18 -149 -15q-96 -216 -151 -496zM186 506q88 2 138 15q252 62 282 210q7 37 -10.5 81t-57.5 56q-43 13 -93.5 -15.5t-94.5 -80t-78 -104t-55 -97.5q-29 -59 -31 -65zM204 -2q-17 1 -30.5 7.5t-23.5 21t-17 27t-14 36.5
t-10 37.5t-9 42.5t-8 40l10 6q36 -19 83.5 6t77 66t23.5 68l14 -4q5 -31 -36.5 -82.5t-94.5 -68.5q-1 -1 -14.5 -2.5t-14.5 -0.5q25 -17 44.5 -46t30.5 -52t23.5 -40.5t30 -17t43.5 23.5q19 16 77 79t81 93v-21q-20 -27 -73.5 -84.5t-74.5 -76.5q-37 -32 -62.5 -45.5
t-55.5 -12.5zM20 -179l6 12q36 -23 70 11q28 27 21 54q-6 23 -38 23l17 71l19 -2l-15 -49q63 -17 56 -60q-5 -36 -46 -58q-47 -25 -90 -2z" />
    <glyph glyph-name="L_acute" unicode="&#x139;" horiz-adv-x="901" 
d="M222 771l8 -12q-33 -56 -4.5 -98.5t102 -64t156.5 -12.5q40 91 111 136t155 37q22 0 33 -35q14 -40 -12.5 -76t-87.5 -59q-44 -15 -89 -18q-22 -54 -65.5 -197t-80.5 -217q36 -11 78.5 -43.5t73.5 -62t72 -49.5t80 -13q35 7 62 47l10 -9q-31 -46 -70 -51q-37 -4 -72 8
t-63.5 34.5t-54.5 46.5t-58.5 47t-63.5 33q-36 -67 -86.5 -108t-99 -53t-97 -10t-81.5 13t-52 25q-26 26 -26 59q0 49 47.5 81.5t98.5 45.5q86 19 192 -28q29 67 72 203.5t68 198.5q-78 -9 -154.5 15t-109.5 71.5t8 114.5zM202 189q-19 0 -53 -6q-48 -10 -91.5 -39.5
t-43.5 -74.5q0 -32 21 -50q35 -32 97 -27q126 13 201 163q-73 34 -131 34zM750 745q-41 7 -112 -94q-4 -6 -38 -69q49 7 80 18q53 20 78 52.5t14 65.5q-9 24 -22 27zM678 831q-1 4 32 51t39 53l3 -1h6h3q-3 -6 -15 -54t-13 -50q-3 0 -28.5 0.5t-26.5 0.5z" />
    <glyph glyph-name="l.acute" unicode="&#x13a;" horiz-adv-x="354" 
d="M190 507q-2 -5 -27 -82.5t-58 -163.5q74 74 119.5 144.5t51.5 152.5q4 46 -13 61q-8 4 -14 4t-13.5 -10t-12.5 -19.5t-11 -25t-10 -26t-7.5 -22t-4.5 -13.5zM273 629q16 -13 16 -74q-3 -48 -22.5 -96t-52.5 -91.5t-55 -68.5t-53 -56l-10 -10q-12 -35 -21.5 -73.5
t-9.5 -83.5t22 -58q8 -5 17 -5.5t17.5 1t19 7.5t17.5 10.5t17.5 13.5t15 13.5t14 13.5t10.5 10q60 58 139 156v-21q-96 -110 -132 -145q-26 -24 -41 -37t-42.5 -27t-50.5 -13q-94 6 -100 140q-7 128 61 291q62 149 134 199q51 36 90 4zM217 747q-1 4 32 51t39 53l3 -1h6h3
q-3 -6 -15 -54t-13 -50q-3 0 -28.5 0.5t-26.5 0.5z" />
    <glyph glyph-name="L_cedilla" unicode="&#x13b;" horiz-adv-x="901" 
d="M222 771l8 -12q-33 -56 -4.5 -98.5t102 -64t156.5 -12.5q40 91 111 136t155 37q22 0 33 -35q14 -40 -12.5 -76t-87.5 -59q-44 -15 -89 -18q-22 -54 -65.5 -197t-80.5 -217q36 -11 78.5 -43.5t73.5 -62t72 -49.5t80 -13q35 7 62 47l10 -9q-31 -46 -70 -51q-37 -4 -72 8
t-63.5 34.5t-54.5 46.5t-58.5 47t-63.5 33q-36 -67 -86.5 -108t-99 -53t-97 -10t-81.5 13t-52 25q-26 26 -26 59q0 49 47.5 81.5t98.5 45.5q86 19 192 -28q29 67 72 203.5t68 198.5q-78 -9 -154.5 15t-109.5 71.5t8 114.5zM202 189q-19 0 -53 -6q-48 -10 -91.5 -39.5
t-43.5 -74.5q0 -32 21 -50q35 -32 97 -27q126 13 201 163q-73 34 -131 34zM750 745q-41 7 -112 -94q-4 -6 -38 -69q49 7 80 18q53 20 78 52.5t14 65.5q-9 24 -22 27zM389 -215l6 12q36 -23 70 11q28 27 21 54q-6 23 -38 23l17 71l19 -2l-15 -49q63 -17 56 -60
q-5 -36 -46 -58q-47 -25 -90 -2z" />
    <glyph glyph-name="l.cedilla" unicode="&#x13c;" horiz-adv-x="351" 
d="M187 507q-2 -5 -27 -82.5t-58 -163.5q74 74 119.5 144.5t51.5 152.5q4 46 -13 61q-8 4 -14 4t-13.5 -10t-12.5 -19.5t-11 -25t-10 -26t-7.5 -22t-4.5 -13.5zM270 629q16 -13 16 -74q-3 -48 -22.5 -96t-52.5 -91.5t-55 -68.5t-53 -56l-10 -10q-12 -35 -21.5 -73.5
t-9.5 -83.5t22 -58q8 -5 17 -5.5t17.5 1t19 7.5t17.5 10.5t17.5 13.5t15 13.5t14 13.5t10.5 10q60 58 139 156v-21q-96 -110 -132 -145q-26 -24 -41 -37t-42.5 -27t-50.5 -13q-94 6 -100 140q-7 128 61 291q62 149 134 199q51 36 90 4zM-7 -199l6 12q36 -23 70 11
q28 27 21 54q-6 23 -38 23l17 71l19 -2l-15 -49q63 -17 56 -60q-5 -36 -46 -58q-47 -25 -90 -2z" />
    <glyph glyph-name="L_caron" unicode="&#x13d;" horiz-adv-x="901" 
d="M222 771l8 -12q-33 -56 -4.5 -98.5t102 -64t156.5 -12.5q40 91 111 136t155 37q22 0 33 -35q14 -40 -12.5 -76t-87.5 -59q-44 -15 -89 -18q-22 -54 -65.5 -197t-80.5 -217q36 -11 78.5 -43.5t73.5 -62t72 -49.5t80 -13q35 7 62 47l10 -9q-31 -46 -70 -51q-37 -4 -72 8
t-63.5 34.5t-54.5 46.5t-58.5 47t-63.5 33q-36 -67 -86.5 -108t-99 -53t-97 -10t-81.5 13t-52 25q-26 26 -26 59q0 49 47.5 81.5t98.5 45.5q86 19 192 -28q29 67 72 203.5t68 198.5q-78 -9 -154.5 15t-109.5 71.5t8 114.5zM202 189q-19 0 -53 -6q-48 -10 -91.5 -39.5
t-43.5 -74.5q0 -32 21 -50q35 -32 97 -27q126 13 201 163q-73 34 -131 34zM750 745q-41 7 -112 -94q-4 -6 -38 -69q49 7 80 18q53 20 78 52.5t14 65.5q-9 24 -22 27zM897 643q-1 4 32 51t39 53l3 -1h6h3q-3 -6 -15 -54t-13 -50q-3 0 -28.5 0.5t-26.5 0.5z" />
    <glyph glyph-name="l.caron" unicode="&#x13e;" horiz-adv-x="351" 
d="M187 507q-2 -5 -27 -82.5t-58 -163.5q74 74 119.5 144.5t51.5 152.5q4 46 -13 61q-8 4 -14 4t-13.5 -10t-12.5 -19.5t-11 -25t-10 -26t-7.5 -22t-4.5 -13.5zM270 629q16 -13 16 -74q-3 -48 -22.5 -96t-52.5 -91.5t-55 -68.5t-53 -56l-10 -10q-12 -35 -21.5 -73.5
t-9.5 -83.5t22 -58q8 -5 17 -5.5t17.5 1t19 7.5t17.5 10.5t17.5 13.5t15 13.5t14 13.5t10.5 10q60 58 139 156v-21q-96 -110 -132 -145q-26 -24 -41 -37t-42.5 -27t-50.5 -13q-94 6 -100 140q-7 128 61 291q62 149 134 199q51 36 90 4zM367 537q-1 4 32 51t39 53l3 -1h6h3
q-3 -6 -15 -54t-13 -50q-3 0 -28.5 0.5t-26.5 0.5z" />
    <glyph glyph-name="L_middot" unicode="&#x13f;" horiz-adv-x="901" 
d="M222 771l8 -12q-33 -56 -4.5 -98.5t102 -64t156.5 -12.5q40 91 111 136t155 37q22 0 33 -35q14 -40 -12.5 -76t-87.5 -59q-44 -15 -89 -18q-22 -54 -65.5 -197t-80.5 -217q36 -11 78.5 -43.5t73.5 -62t72 -49.5t80 -13q35 7 62 47l10 -9q-31 -46 -70 -51q-37 -4 -72 8
t-63.5 34.5t-54.5 46.5t-58.5 47t-63.5 33q-36 -67 -86.5 -108t-99 -53t-97 -10t-81.5 13t-52 25q-26 26 -26 59q0 49 47.5 81.5t98.5 45.5q86 19 192 -28q29 67 72 203.5t68 198.5q-78 -9 -154.5 15t-109.5 71.5t8 114.5zM202 189q-19 0 -53 -6q-48 -10 -91.5 -39.5
t-43.5 -74.5q0 -32 21 -50q35 -32 97 -27q126 13 201 163q-73 34 -131 34zM750 745q-41 7 -112 -94q-4 -6 -38 -69q49 7 80 18q53 20 78 52.5t14 65.5q-9 24 -22 27zM643 301q0 12 7.5 20.5t18.5 8.5t18.5 -8.5t7.5 -20.5q0 -13 -7.5 -21.5t-18.5 -8.5t-18.5 8.5t-7.5 21.5z
" />
    <glyph glyph-name="l.middot" unicode="&#x140;" horiz-adv-x="351" 
d="M187 507q-2 -5 -27 -82.5t-58 -163.5q74 74 119.5 144.5t51.5 152.5q4 46 -13 61q-8 4 -14 4t-13.5 -10t-12.5 -19.5t-11 -25t-10 -26t-7.5 -22t-4.5 -13.5zM270 629q16 -13 16 -74q-3 -48 -22.5 -96t-52.5 -91.5t-55 -68.5t-53 -56l-10 -10q-12 -35 -21.5 -73.5
t-9.5 -83.5t22 -58q8 -5 17 -5.5t17.5 1t19 7.5t17.5 10.5t17.5 13.5t15 13.5t14 13.5t10.5 10q60 58 139 156v-21q-96 -110 -132 -145q-26 -24 -41 -37t-42.5 -27t-50.5 -13q-94 6 -100 140q-7 128 61 291q62 149 134 199q51 36 90 4zM182 229q0 12 7.5 20.5t18.5 8.5
t18.5 -8.5t7.5 -20.5q0 -13 -7.5 -21.5t-18.5 -8.5t-18.5 8.5t-7.5 21.5z" />
    <glyph glyph-name="L_slash" unicode="&#x141;" horiz-adv-x="901" 
d="M222 771l8 -12q-33 -56 -4.5 -98.5t102 -64t156.5 -12.5q40 91 111 136t155 37q22 0 33 -35q14 -40 -12.5 -76t-87.5 -59q-44 -15 -89 -18q-25 -63 -63 -189h100v-12h-104q-42 -138 -79 -213q36 -11 78.5 -43.5t73.5 -62t72 -49.5t80 -13q35 7 62 47l10 -9
q-31 -46 -70 -51q-37 -4 -72 8t-63.5 34.5t-54.5 46.5t-58.5 47t-63.5 33q-36 -67 -86.5 -108t-99 -53t-97 -10t-81.5 13t-52 25q-26 26 -26 59q0 49 47.5 81.5t98.5 45.5q86 19 192 -28q24 55 71 200h-98v12h101q40 128 66 190q-78 -9 -154.5 15t-109.5 71.5t8 114.5z
M202 189q-19 0 -53 -6q-48 -10 -91.5 -39.5t-43.5 -74.5q0 -32 21 -50q35 -32 97 -27q126 13 201 163q-73 34 -131 34zM750 745q-41 7 -112 -94q-4 -6 -38 -69q49 7 80 18q53 20 78 52.5t14 65.5q-9 24 -22 27z" />
    <glyph glyph-name="lslash" unicode="&#x142;" horiz-adv-x="351" 
d="M245 370l-1 -11l-38 2q-29 -41 -113 -128q-12 -35 -21.5 -73.5t-9.5 -83.5t22 -58q8 -5 17 -5.5t17.5 1t19 7.5t17.5 10.5t17.5 13.5t15 13.5t14 13.5t10.5 10q60 58 139 156v-21q-96 -110 -132 -145q-26 -24 -41 -37t-42.5 -27t-50.5 -13q-45 3 -70.5 37.5t-29 88.5
t6.5 118t33 131l-43 3v12l47 -3q30 86 71.5 151.5t86 95.5t83.5 0q16 -13 16 -74q-7 -90 -72 -184zM187 507q-5 -15 -18 -56t-25 -75l56 -4q66 94 73 186q4 46 -13 61q-8 4 -14 4t-13.5 -10t-12.5 -19.5t-11 -25t-10 -26t-7.5 -22t-4.5 -13.5zM140 364l-38 -103
q57 57 89 101z" />
    <glyph glyph-name="N_acute" unicode="&#x143;" horiz-adv-x="806" 
d="M223 368q27 86 47 141.5t58.5 128.5t83.5 122q-8 -42 9 -194q14 -127 35 -257q4 -32 30 -149t35 -130q3 29 11.5 78t25.5 131t43.5 162.5t59.5 158t81 134.5t101 75q46 20 101.5 13t87.5 -48q9 -11 13.5 -26t0.5 -38.5t-20 -47.5l-12 7q40 57 8 97q-64 80 -153 -18
q-52 -57 -100 -154t-79 -187t-71 -201.5t-70 -175.5h-23q-28 16 -83 317q-24 143 -36 259q-12 113 -9 159q-16 -169 -67 -366q-31 -122 -97.5 -241t-151.5 -183q-40 -30 -82 -33l4 10q26 7 52 37t44.5 65.5t40 91.5t32.5 93t28 95t22 74zM557 802q-1 4 32 51t39 53h3h6l3 -1
q-3 -6 -15 -54t-13 -50q-3 0 -28.5 0.5t-26.5 0.5z" />
    <glyph glyph-name="n.acute" unicode="&#x144;" horiz-adv-x="536" 
d="M312 22q21 0 88.5 65.5t135.5 150.5v-21q-64 -79 -125.5 -139t-88.5 -68q-20 -5 -66 2t-52 22q-7 17 -7.5 40t3 44.5t11 48.5t14.5 47.5t16.5 46.5t13.5 41q5 16 6.5 21.5t2 15t-5 13t-15.5 4.5q-27 1 -56.5 -27.5t-58.5 -82.5t-48 -96t-42 -100q-16 -35 -20 -50l-82 5
q7 59 37 181t49 162q3 0 9 -2t18.5 -12t18.5 -30.5t9.5 -56.5t-10.5 -91q15 32 20.5 43t22.5 44t29 48.5t30 37t35.5 31t35.5 9.5q35 0 69 -18.5t36 -43.5q4 -46 -11.5 -96t-32 -93.5t-14.5 -73.5q2 -22 25 -22zM207 457q-1 4 32 51t39 53l3 -1h6h3q-3 -6 -15 -54t-13 -50
q-3 0 -28.5 0.5t-26.5 0.5z" />
    <glyph glyph-name="N_cedilla" unicode="&#x145;" horiz-adv-x="806" 
d="M223 368q27 86 47 141.5t58.5 128.5t83.5 122q-8 -42 9 -194q14 -127 35 -257q4 -32 30 -149t35 -130q3 29 11.5 78t25.5 131t43.5 162.5t59.5 158t81 134.5t101 75q46 20 101.5 13t87.5 -48q9 -11 13.5 -26t0.5 -38.5t-20 -47.5l-12 7q40 57 8 97q-64 80 -153 -18
q-52 -57 -100 -154t-79 -187t-71 -201.5t-70 -175.5h-23q-28 16 -83 317q-24 143 -36 259q-12 113 -9 159q-16 -169 -67 -366q-31 -122 -97.5 -241t-151.5 -183q-40 -30 -82 -33l4 10q26 7 52 37t44.5 65.5t40 91.5t32.5 93t28 95t22 74zM251 -194l6 12q36 -23 70 11
q28 27 21 54q-6 23 -38 23l17 71l19 -2l-15 -49q63 -17 56 -60q-5 -36 -46 -58q-47 -25 -90 -2z" />
    <glyph glyph-name="n.cedilla" unicode="&#x146;" horiz-adv-x="536" 
d="M312 22q21 0 88.5 65.5t135.5 150.5v-21q-64 -79 -125.5 -139t-88.5 -68q-20 -5 -66 2t-52 22q-7 17 -7.5 40t3 44.5t11 48.5t14.5 47.5t16.5 46.5t13.5 41q5 16 6.5 21.5t2 15t-5 13t-15.5 4.5q-27 1 -56.5 -27.5t-58.5 -82.5t-48 -96t-42 -100q-16 -35 -20 -50l-82 5
q7 59 37 181t49 162q3 0 9 -2t18.5 -12t18.5 -30.5t9.5 -56.5t-10.5 -91q15 32 20.5 43t22.5 44t29 48.5t30 37t35.5 31t35.5 9.5q35 0 69 -18.5t36 -43.5q4 -46 -11.5 -96t-32 -93.5t-14.5 -73.5q2 -22 25 -22zM23 -179l6 12q36 -23 70 11q28 27 21 54q-6 23 -38 23l17 71
l19 -2l-15 -49q63 -17 56 -60q-5 -36 -46 -58q-47 -25 -90 -2z" />
    <glyph glyph-name="N_caron" unicode="&#x147;" horiz-adv-x="806" 
d="M223 368q27 86 47 141.5t58.5 128.5t83.5 122q-8 -42 9 -194q14 -127 35 -257q4 -32 30 -149t35 -130q3 29 11.5 78t25.5 131t43.5 162.5t59.5 158t81 134.5t101 75q46 20 101.5 13t87.5 -48q9 -11 13.5 -26t0.5 -38.5t-20 -47.5l-12 7q40 57 8 97q-64 80 -153 -18
q-52 -57 -100 -154t-79 -187t-71 -201.5t-70 -175.5h-23q-28 16 -83 317q-24 143 -36 259q-12 113 -9 159q-16 -169 -67 -366q-31 -122 -97.5 -241t-151.5 -183q-40 -30 -82 -33l4 10q26 7 52 37t44.5 65.5t40 91.5t32.5 93t28 95t22 74zM557 908l8 17q19 -7 36.5 -36
t15.5 -57q10 11 32 37.5t35 39.5l11 -12q-74 -90 -78 -96l-15 8q-3 3 -24 49t-21 50z" />
    <glyph glyph-name="n.caron" unicode="&#x148;" horiz-adv-x="536" 
d="M312 22q21 0 88.5 65.5t135.5 150.5v-21q-64 -79 -125.5 -139t-88.5 -68q-20 -5 -66 2t-52 22q-7 17 -7.5 40t3 44.5t11 48.5t14.5 47.5t16.5 46.5t13.5 41q5 16 6.5 21.5t2 15t-5 13t-15.5 4.5q-27 1 -56.5 -27.5t-58.5 -82.5t-48 -96t-42 -100q-16 -35 -20 -50l-82 5
q7 59 37 181t49 162q3 0 9 -2t18.5 -12t18.5 -30.5t9.5 -56.5t-10.5 -91q15 32 20.5 43t22.5 44t29 48.5t30 37t35.5 31t35.5 9.5q35 0 69 -18.5t36 -43.5q4 -46 -11.5 -96t-32 -93.5t-14.5 -73.5q2 -22 25 -22zM105 546l8 17q19 -7 36.5 -36t15.5 -57q10 11 32 37.5
t35 39.5l11 -12q-74 -90 -78 -96l-15 8q-3 3 -24 49t-21 50z" />
    <glyph glyph-name="n.apostrophe" unicode="&#x149;" horiz-adv-x="536" 
d="M-45 476q25 0 25 -21q1 -18 -21 -42t-39 -26l-2 8q13 2 30.5 19t22.5 32q-6 -3 -15 -3q-10 0 -17 5t-7 12q0 6 6.5 11t16.5 5zM312 22q-23 0 -25 22q-2 30 14.5 73.5t32 93.5t11.5 96q-2 25 -36 43.5t-69 18.5q-18 0 -35.5 -9.5t-35.5 -31t-30 -37t-29 -48.5t-22.5 -44
t-20.5 -43q14 55 10.5 91t-9.5 56.5t-18.5 30.5t-18.5 12t-9 2q-19 -40 -49 -162t-37 -181l82 -5q4 15 20 50q23 58 42 100t48 96t58.5 82.5t56.5 27.5q10 -1 15.5 -4.5t5 -13t-2 -15t-6.5 -21.5q-4 -15 -13.5 -41t-16.5 -46.5t-14.5 -47.5t-11 -48.5t-3 -44.5t7.5 -40
q6 -15 52 -22t66 -2q27 8 88.5 68t125.5 139v21q-68 -85 -135.5 -150.5t-88.5 -65.5z" />
    <glyph glyph-name="Eng" unicode="&#x14a;" horiz-adv-x="846" 
d="M529 725q-22 -56 -42 -150.5t-38 -175.5t-46 -164.5t-79 -147.5t-125 -96q-41 -20 -97.5 -11t-85.5 46q-14 18 -15.5 43.5t21.5 68.5l12 -7q-39 -58 -7 -97q24 -32 73.5 -41t87.5 8q44 18 71 63t38.5 103.5t18.5 127t17.5 138t28 130.5t57 109.5t98.5 71.5
q-66 -20 -179 -40q-12 -2 -46 -7.5t-50 -9t-47.5 -10.5t-48 -14.5t-40.5 -20t-36.5 -28t-24.5 -36t-15.5 -47.5t-0.5 -59q6 -59 54.5 -102t101.5 -22l5 -13q-63 -21 -115.5 25t-58.5 112q-3 30 1 56t11 46t22 37t28 28.5t36.5 22t39.5 16.5t45 13t44.5 10t47 8.5t44.5 7.5
q130 24 188 43l20 -10q-6 -44 30 -322t79 -398q4 32 11.5 76t24 125t42 157t58.5 151.5t80 130t100 73.5q42 18 101.5 10t87.5 -44q9 -11 13.5 -26t0.5 -39t-21 -48l-11 7q19 28 21.5 54t-14.5 44q-141 136 -272 -184q-83 -205 -141 -521q-11 -58 -59 -88.5t-120 -25.5
l-2 15q29 -5 48 1t28 23.5t12.5 33.5t5.5 41q0 4 -16 44q-39 108 -72 347t-29 338z" />
    <glyph glyph-name="eng" unicode="&#x14b;" horiz-adv-x="536" 
d="M312 22q21 0 88.5 65.5t135.5 150.5v-21q-64 -79 -125.5 -139t-88.5 -68h-1q-1 -1 -2 -1q-4 -16 -10.5 -45t-10.5 -39t-15 -24t-29.5 -17.5t-48.5 -1.5l-1 15q12 -4 23 -2t19 2t15 5.5t11 9t8.5 12t6.5 14t5 16t4.5 17.5t3.5 18t4 19q-31 0 -63 6.5t-37 19.5
q-7 17 -7.5 40t3 44.5t11 48.5t14.5 47.5t16.5 46.5t13.5 41q5 16 6.5 21.5t2 15t-5 13t-15.5 4.5q-27 1 -56.5 -27.5t-58.5 -82.5t-48 -96t-42 -100q-16 -35 -20 -50l-82 5q7 59 37 181t49 162q3 0 9 -2t18.5 -12t18.5 -30.5t9.5 -56.5t-10.5 -91q15 32 20.5 43t22.5 44
t29 48.5t30 37t35.5 31t35.5 9.5q35 0 69 -18.5t36 -43.5q4 -46 -11.5 -96t-32 -93.5t-14.5 -73.5q2 -22 25 -22z" />
    <glyph glyph-name="O.macron" unicode="&#x14c;" horiz-adv-x="660" 
d="M308 566l-5 12q16 49 53.5 78t62.5 34q50 8 84.5 -5t52.5 -43.5t25.5 -65.5t8.5 -81q4 -139 -60 -263q-41 -80 -97 -135q-51 -53 -112 -83q-99 -49 -172 -12q-66 32 -102.5 89.5t-43 122t4.5 136t33.5 131.5t51.5 108q58 99 152 144.5t207 24.5q0 -1 -0.5 -2l-2 -4
t-1.5 -4l-1 -2q-41 7 -84 -8q-42 -17 -80.5 -58t-67 -94.5t-47.5 -98.5t-33 -91q-42 -145 -47 -213q-9 -133 69 -171q67 -32 159 14q66 36 108 80q57 59 94 131q62 124 59 258q-2 46 -8 77t-21.5 59.5t-47 40t-79.5 5.5q-24 -3 -56.5 -29t-56.5 -82zM446 869l-1 -22l-153 15
v23z" />
    <glyph glyph-name="o.macron" unicode="&#x14d;" horiz-adv-x="448" 
d="M208 364q33 -3 51 -32l-11 -7q-17 25 -44 26q-55 3 -96 -86q-41 -87 -36 -175q5 -84 54 -85q19 0 43 13q54 31 87 108.5t8 171.5q-1 9 5.5 9t10.5 -6q6 -8 19 -28.5t22.5 -35t24.5 -28t29.5 -16.5t33.5 7.5t39 37.5v-21q-15 -18 -30.5 -27t-28 -11t-26 4.5t-22.5 13.5
t-20 20.5t-16 21.5t-13 21t-9 14q14 -92 -20.5 -163t-89.5 -101q-95 -54 -154 9q-48 51 -43 142q5 101 73 159q62 52 159 44zM267 479l-1 -22l-153 15v23z" />
    <glyph glyph-name="O.breve" unicode="&#x14e;" horiz-adv-x="660" 
d="M308 566l-5 12q16 49 53.5 78t62.5 34q50 8 84.5 -5t52.5 -43.5t25.5 -65.5t8.5 -81q4 -139 -60 -263q-41 -80 -97 -135q-51 -53 -112 -83q-99 -49 -172 -12q-66 32 -102.5 89.5t-43 122t4.5 136t33.5 131.5t51.5 108q58 99 152 144.5t207 24.5q0 -1 -0.5 -2l-2 -4
t-1.5 -4l-1 -2q-41 7 -84 -8q-42 -17 -80.5 -58t-67 -94.5t-47.5 -98.5t-33 -91q-42 -145 -47 -213q-9 -133 69 -171q67 -32 159 14q66 36 108 80q57 59 94 131q62 124 59 258q-2 46 -8 77t-21.5 59.5t-47 40t-79.5 5.5q-24 -3 -56.5 -29t-56.5 -82zM317 920l22 14
q46 -47 61 -54q31 -14 63 40l20 -14q-26 -50 -66 -62.5t-69.5 11t-30.5 65.5z" />
    <glyph glyph-name="o.breve" unicode="&#x14f;" horiz-adv-x="450" 
d="M210 364q33 -3 51 -32l-11 -7q-17 25 -44 26q-55 3 -96 -86q-41 -87 -36 -175q5 -84 54 -85q19 0 43 13q54 31 87 108.5t8 171.5q-1 9 5.5 9t10.5 -6q6 -8 19 -28.5t22.5 -35t24.5 -28t29.5 -16.5t33.5 7.5t39 37.5v-21q-15 -18 -30.5 -27t-28 -11t-26 4.5t-22.5 13.5
t-20 20.5t-16 21.5t-13 21t-9 14q14 -92 -20.5 -163t-89.5 -101q-95 -54 -154 9q-48 51 -43 142q5 101 73 159q62 52 159 44zM110 540l22 14q46 -47 61 -54q31 -14 63 40l20 -14q-26 -50 -66 -62.5t-69.5 11t-30.5 65.5z" />
    <glyph glyph-name="O.dblacute" unicode="&#x150;" horiz-adv-x="660" 
d="M308 566l-5 12q16 49 53.5 78t62.5 34q50 8 84.5 -5t52.5 -43.5t25.5 -65.5t8.5 -81q4 -139 -60 -263q-41 -80 -97 -135q-51 -53 -112 -83q-99 -49 -172 -12q-66 32 -102.5 89.5t-43 122t4.5 136t33.5 131.5t51.5 108q58 99 152 144.5t207 24.5q0 -1 -0.5 -2l-2 -4
t-1.5 -4l-1 -2q-41 7 -84 -8q-42 -17 -80.5 -58t-67 -94.5t-47.5 -98.5t-33 -91q-42 -145 -47 -213q-9 -133 69 -171q67 -32 159 14q66 36 108 80q57 59 94 131q62 124 59 258q-2 46 -8 77t-21.5 59.5t-47 40t-79.5 5.5q-24 -3 -56.5 -29t-56.5 -82zM277 847q-1 4 32 51
t39 53l3 -1h6h3q-3 -6 -15 -54t-13 -50q-3 0 -28.5 0.5t-26.5 0.5zM377 847q-1 4 32 51t39 53l3 -1h6h3q-3 -6 -15 -54t-13 -50q-3 0 -28.5 0.5t-26.5 0.5z" />
    <glyph glyph-name="o.dblacute" unicode="&#x151;" horiz-adv-x="449" 
d="M209 364q33 -3 51 -32l-11 -7q-17 25 -44 26q-55 3 -96 -86q-41 -87 -36 -175q5 -84 54 -85q19 0 43 13q54 31 87 108.5t8 171.5q-1 9 5.5 9t10.5 -6q6 -8 19 -28.5t22.5 -35t24.5 -28t29.5 -16.5t33.5 7.5t39 37.5v-21q-15 -18 -30.5 -27t-28 -11t-26 4.5t-22.5 13.5
t-20 20.5t-16 21.5t-13 21t-9 14q14 -92 -20.5 -163t-89.5 -101q-95 -54 -154 9q-48 51 -43 142q5 101 73 159q62 52 159 44zM99 447q-1 4 32 51t39 53l3 -1h6h3q-3 -6 -15 -54t-13 -50q-3 0 -28.5 0.5t-26.5 0.5zM209 447q-1 4 32 51t39 53l3 -1h6h3q-3 -6 -15 -54t-13 -50
q-3 0 -28.5 0.5t-26.5 0.5z" />
    <glyph glyph-name="OE" unicode="&#x152;" horiz-adv-x="1058" 
d="M852 37q88 52 206 201v-21q-114 -139 -197 -191q-111 -66 -229 -36q-65 17 -96.5 60t-30.5 102q0 23 4 42q-33 -56 -76 -97q-51 -53 -112 -83q-99 -49 -172 -12q-66 32 -102.5 89.5t-43 122t4.5 136t33.5 131.5t51.5 108q58 99 152 144.5t207 24.5q0 -1 -0.5 -2l-2 -4
t-1.5 -4l-1 -2q-41 7 -84 -8q-42 -17 -80.5 -58t-67 -94.5t-47.5 -98.5t-33 -91q-42 -145 -47 -213q-9 -133 69 -171q67 -32 159 14q66 36 108 80q57 59 94 131q62 124 59 258q-2 46 -8 77t-21.5 59.5t-47 40t-79.5 5.5q-24 -3 -56.5 -29t-56.5 -82l-5 12q16 49 53.5 78
t62.5 34q50 8 84.5 -5t52.5 -43.5t25.5 -65.5t8.5 -81q3 -81 -21 -165q51 70 121 97q-44 22 -79 65q-24 36 -18.5 86.5t33.5 95.5q32 51 84.5 75t103 19t93 -36t57.5 -82q42 23 78 36l9 -9q-66 -30 -85 -42q4 -21 -4 -48q-8 -24 -26 -41.5t-35 -9.5q-13 6 -13 20.5t7.5 27.5
t18.5 25q13 14 38 32q-9 33 -29 59q-57 73 -136 26q-62 -36 -97 -117q-40 -91 -6 -149q8 -14 22 -25q34 16 67 21.5t61 -5.5q15 -9 17.5 -27.5t-16.5 -25.5q-42 -15 -130 23q-35 -22 -61 -99t-28 -161q-2 -57 19 -95t55.5 -52t77.5 -8t84 31zM722 428q79 -30 109 -18
q10 4 7.5 14.5t-11.5 15.5q-29 16 -105 -12zM922 598q-8 -8 -13.5 -17.5t-8 -19.5t6.5 -13q10 -4 23.5 11t19.5 32q7 26 4 36q-20 -15 -32 -29z" />
    <glyph glyph-name="o_e" unicode="&#x153;" horiz-adv-x="617" 
d="M-29 169q15 74 61 137t110 58q25 -2 42.5 -18.5t25 -42t10 -50t0.5 -49.5q11 41 51 91t87 73t84 -19q23 -31 -8 -82q-43 -72 -135 -151q-2 -51 10 -77t32 -28t47 10.5t51 31t48 41.5q88 86 130 144v-21q-13 -17 -33.5 -39.5t-47 -51t-40.5 -44.5q-54 -61 -125.5 -82.5
t-124.5 6t-56 97.5q-26 -49 -68 -80q-32 -23 -64 -28.5t-56.5 9.5t-34 56t3.5 109zM138 351q-23 -10 -55 -117q-40 -136 -24 -193q12 -44 60 -7q51 42 73 105q4 16 7 24l6 26q2 30 2 65t-18 65.5t-51 31.5zM395 350q-28 -10 -57 -66q-29 -54 -39 -150q82 73 124 141
q10 16 13 35t-5 31q-11 16 -36 9z" />
    <glyph glyph-name="R_acute" unicode="&#x154;" horiz-adv-x="806" 
d="M234 32l-7 -13q-30 -46 -101.5 -79.5t-125.5 -37.5l3 10q73 4 136 122q28 66 49.5 162t34 171.5t43 163t78.5 149.5q39 53 107 74t128.5 10.5t91.5 -40.5q59 -51 77 -118t-1 -123.5t-68.5 -99t-116.5 -49.5q39 -30 62 -73t29 -87.5t8 -92t-1 -88t1.5 -73.5t16.5 -51
t42.5 -18t81.5 23l4 -12q-56 -17 -94 -17q-45 0 -78 22q-42 31 -61 95t-18.5 126.5t-0.5 135t-11 107.5h-1q-23 -3 -50.5 0t-51 8.5t-35.5 20t-3 34.5q12 26 34.5 29.5t46 -10.5t42.5 -32t30 -34q12 2 36.5 46.5t45.5 104.5t27.5 122t-17.5 101q-13 21 -50 28.5t-83.5 -10
t-75.5 -60.5q-40 -72 -66 -162t-37 -162t-36.5 -161.5t-64.5 -161.5zM415 389q-10 -24 30.5 -36t92.5 -9q-11 20 -35.5 41t-49.5 26.5t-38 -22.5zM510 845q-1 4 32 51t39 53l3 -1h6h3q-3 -6 -15 -54t-13 -50q-3 0 -28.5 0.5t-26.5 0.5z" />
    <glyph glyph-name="r.acute" unicode="&#x155;" horiz-adv-x="313" 
d="M-214 -724l-8 -10q-46 43 -65 95t-12 103t21 90t36 76q39 66 111.5 117t164.5 74q-16 29 -25 79t-7 86q2 55 22 120t59.5 121t87.5 64q-5 2 -29 7.5t-44 11.5t-30 12q-23 -55 -68 -105v21q50 67 56 95q-25 20 -47 86.5t5 86.5q9 5 24.5 8.5t34 0t27.5 -16.5
q27 -39 2 -114q8 -8 25 -22.5t37 -30t26 -20.5q10 -8 -8 -39q-2 -3 -3 -5q-71 -134 -79 -275q-2 -39 4.5 -86.5t21.5 -75.5q167 45 329 31q55 -5 89.5 -16.5t52.5 -41.5q16 -28 8.5 -68.5t-32.5 -63.5q-54 -51 -134.5 -59.5t-157 18.5t-143 75t-98.5 104q-92 -23 -162.5 -72
t-107.5 -114q-20 -34 -33.5 -71t-21.5 -86t9.5 -99t61.5 -91zM132 -182q35 -77 112 -133.5t162.5 -62.5t158.5 60q21 21 27 55t-6 58q-24 45 -132 53q-160 13 -322 -30zM78 494q-16 -2 -8.5 -44t22.5 -56q10 19 9 60.5t-23 39.5zM57 607q-1 4 32 51t39 53l3 -1h6h3
q-3 -6 -15 -54t-13 -50q-3 0 -28.5 0.5t-26.5 0.5z" />
    <glyph glyph-name="R_cedilla" unicode="&#x156;" horiz-adv-x="806" 
d="M234 32l-7 -13q-30 -46 -101.5 -79.5t-125.5 -37.5l3 10q73 4 136 122q28 66 49.5 162t34 171.5t43 163t78.5 149.5q39 53 107 74t128.5 10.5t91.5 -40.5q59 -51 77 -118t-1 -123.5t-68.5 -99t-116.5 -49.5q39 -30 62 -73t29 -87.5t8 -92t-1 -88t1.5 -73.5t16.5 -51
t42.5 -18t81.5 23l4 -12q-56 -17 -94 -17q-45 0 -78 22q-42 31 -61 95t-18.5 126.5t-0.5 135t-11 107.5h-1q-23 -3 -50.5 0t-51 8.5t-35.5 20t-3 34.5q12 26 34.5 29.5t46 -10.5t42.5 -32t30 -34q12 2 36.5 46.5t45.5 104.5t27.5 122t-17.5 101q-13 21 -50 28.5t-83.5 -10
t-75.5 -60.5q-40 -72 -66 -162t-37 -162t-36.5 -161.5t-64.5 -161.5zM415 389q-10 -24 30.5 -36t92.5 -9q-11 20 -35.5 41t-49.5 26.5t-38 -22.5zM297 -235l6 12q36 -23 70 11q28 27 21 54q-7 22 -38 23l17 71l19 -2l-15 -49q63 -17 56 -60q-5 -36 -46 -58q-47 -25 -90 -2z
" />
    <glyph glyph-name="r.cedilla" unicode="&#x157;" horiz-adv-x="306" 
d="M-214 -724l-8 -10q-46 43 -65 95t-12 103t21 90t36 76q39 66 111.5 117t164.5 74q-16 29 -25 79t-7 86q2 55 22 120t59.5 121t87.5 64q-5 2 -29 7.5t-44 11.5t-30 12q-23 -55 -68 -105v21q50 67 56 95q-25 20 -47 86.5t5 86.5q9 5 24.5 8.5t34 0t27.5 -16.5
q27 -39 2 -114q8 -8 25 -22.5t37 -30t26 -20.5q10 -8 -8 -39q-2 -3 -3 -5q-71 -134 -79 -275q-2 -39 4.5 -86.5t21.5 -75.5q167 45 329 31q55 -5 89.5 -16.5t52.5 -41.5q16 -28 8.5 -68.5t-32.5 -63.5q-54 -51 -134.5 -59.5t-157 18.5t-143 75t-98.5 104q-92 -23 -162.5 -72
t-107.5 -114q-20 -34 -33.5 -71t-21.5 -86t9.5 -99t61.5 -91zM132 -182q35 -77 112 -133.5t162.5 -62.5t158.5 60q21 21 27 55t-6 58q-24 45 -132 53q-160 13 -322 -30zM78 494q-16 -2 -8.5 -44t22.5 -56q10 19 9 60.5t-23 39.5zM-87 -459l6 12q36 -23 70 11q28 27 21 54
q-6 23 -38 23l17 71l19 -2l-15 -49q63 -17 56 -60q-5 -36 -46 -58q-47 -25 -90 -2z" />
    <glyph glyph-name="R_caron" unicode="&#x158;" horiz-adv-x="806" 
d="M234 32l-7 -13q-30 -46 -101.5 -79.5t-125.5 -37.5l3 10q73 4 136 122q28 66 49.5 162t34 171.5t43 163t78.5 149.5q39 53 107 74t128.5 10.5t91.5 -40.5q59 -51 77 -118t-1 -123.5t-68.5 -99t-116.5 -49.5q39 -30 62 -73t29 -87.5t8 -92t-1 -88t1.5 -73.5t16.5 -51
t42.5 -18t81.5 23l4 -12q-56 -17 -94 -17q-45 0 -78 22q-42 31 -61 95t-18.5 126.5t-0.5 135t-11 107.5h-1q-23 -3 -50.5 0t-51 8.5t-35.5 20t-3 34.5q12 26 34.5 29.5t46 -10.5t42.5 -32t30 -34q12 2 36.5 46.5t45.5 104.5t27.5 122t-17.5 101q-13 21 -50 28.5t-83.5 -10
t-75.5 -60.5q-40 -72 -66 -162t-37 -162t-36.5 -161.5t-64.5 -161.5zM415 389q-10 -24 30.5 -36t92.5 -9q-11 20 -35.5 41t-49.5 26.5t-38 -22.5zM479 957l8 17q19 -7 36.5 -36t15.5 -57q10 11 32 37.5t35 39.5l11 -12q-74 -90 -78 -96l-15 8q-3 3 -24 49t-21 50z" />
    <glyph glyph-name="r.caron" unicode="&#x159;" horiz-adv-x="305" 
d="M-214 -724l-8 -10q-46 43 -65 95t-12 103t21 90t36 76q39 66 111.5 117t164.5 74q-16 29 -25 79t-7 86q2 55 22 120t59.5 121t87.5 64q-5 2 -29 7.5t-44 11.5t-30 12q-23 -55 -68 -105v21q50 67 56 95q-25 20 -47 86.5t5 86.5q9 5 24.5 8.5t34 0t27.5 -16.5
q27 -39 2 -114q8 -8 25 -22.5t37 -30t26 -20.5q10 -8 -8 -39q-2 -3 -3 -5q-71 -134 -79 -275q-2 -39 4.5 -86.5t21.5 -75.5q167 45 329 31q55 -5 89.5 -16.5t52.5 -41.5q16 -28 8.5 -68.5t-32.5 -63.5q-54 -51 -134.5 -59.5t-157 18.5t-143 75t-98.5 104q-92 -23 -162.5 -72
t-107.5 -114q-20 -34 -33.5 -71t-21.5 -86t9.5 -99t61.5 -91zM132 -182q35 -77 112 -133.5t162.5 -62.5t158.5 60q21 21 27 55t-6 58q-24 45 -132 53q-160 13 -322 -30zM78 494q-16 -2 -8.5 -44t22.5 -56q10 19 9 60.5t-23 39.5zM25 736l8 17q19 -7 36.5 -36t15.5 -57
q10 11 32 37.5t35 39.5l11 -12q-74 -90 -78 -96l-15 8q-3 3 -24 49t-21 50z" />
    <glyph glyph-name="Sacute" unicode="&#x15a;" horiz-adv-x="577" 
d="M108 586q11 99 95 145.5t179 18.5q38 -12 63.5 -39.5t33.5 -60.5l3 1q37 21 75 35l9 -9q-65 -29 -84 -42q3 -20 -4 -48q-9 -25 -27 -42t-35 -9q-13 6 -13 20.5t8 27.5t19 25q10 12 36 32q-5 33 -29 59t-60 38q-86 28 -127.5 -49.5t-27 -173t65.5 -111.5q62 -30 96 -86
t32 -113t-27 -111q-46 -87 -135 -104q-133 -26 -201.5 47t-52 167.5t94.5 123.5l7 -16q-40 -14 -63.5 -50.5t-22.5 -80.5t17 -85.5t56 -69t94 -27.5q32 0 65 55.5t51 124.5t14 134t-39 82q-5 2 -28.5 12.5t-38.5 18t-38 24t-35.5 33.5t-21 44.5t-4.5 58.5zM437 598
q-8 -8 -13.5 -17.5t-8 -19.5t6.5 -13q10 -4 23.5 11t19.5 32q6 24 4 36q-18 -12 -32 -29zM297 827q-1 4 32 51t39 53l3 -1h6h3q-3 -6 -15 -54t-13 -50q-3 0 -28.5 0.5t-26.5 0.5z" />
    <glyph glyph-name="s.acute" unicode="&#x15b;" horiz-adv-x="384" 
d="M18 7q-13 10 -16.5 20.5t2.5 20t16 18.5t25 17.5t27.5 14.5t26 12.5t18.5 9.5q-5 57 -31 208q-34 -51 -86 -111v21q69 81 82 107l-6 44q-9 76 41 122q34 31 60 20q14 -6 17 -24q2 -3 0.5 -11.5t-1.5 -12t-3.5 -12t-4.5 -11.5t-5.5 -11t-5.5 -10.5t-5.5 -9.5t-5.5 -9
q1 -23 27.5 -145t27.5 -133q11 6 51.5 22.5t69 34t45.5 39.5v-21q-14 -17 -47.5 -35t-72 -33.5t-44.5 -18.5q11 -100 -52 -126q-16 -7 -76.5 -7t-73.5 10zM120 108q-5 -3 -17 -8.5t-22.5 -10.5t-24 -12.5t-22 -14.5t-15 -14t-5.5 -14.5t10 -14.5q17 -9 36.5 -8.5t33.5 6.5
q15 6 22 17t7.5 19t-1.5 27.5t-2 27.5zM160 517q-10 -6 -11 -21.5t3.5 -36.5t4.5 -25q2 5 9.5 18.5t11.5 25.5t3 23q-4 24 -21 16zM127 627q-1 4 32 51t39 53l3 -1h6h3q-3 -6 -15 -54t-13 -50q-3 0 -28.5 0.5t-26.5 0.5z" />
    </font>
</defs>
</svg>
